<svg width="33" height="33" viewBox="0 0 33 33" fill="none" xmlns="http://www.w3.org/2000/svg">
<g clip-path="url(#clip0_1244_24)">
<path d="M9.96875 33H3.78125C3.212 33 2.75 32.538 2.75 31.9688V25.7812C2.75 25.212 3.212 24.75 3.78125 24.75H9.96875C10.538 24.75 11 25.212 11 25.7812V31.9688C11 32.538 10.538 33 9.96875 33Z" fill="#0749AA"/>
<path d="M20.9688 33H14.7812C14.212 33 13.75 32.538 13.75 31.9688V18.9062C13.75 18.337 14.212 17.875 14.7812 17.875H20.9688C21.538 17.875 22 18.337 22 18.9062V31.9688C22 32.538 21.538 33 20.9688 33Z" fill="#0749AA"/>
<path d="M31.9688 33H25.7812C25.212 33 24.75 32.538 24.75 31.9687V12.0312C24.75 11.462 25.212 11 25.7812 11H31.9688C32.538 11 33 11.462 33 12.0312V31.9687C33 32.538 32.538 33 31.9688 33Z" fill="#0749AA"/>
<path d="M20.4242 0.202161C20.2909 0.0701615 20.0942 -0.00546351 19.9251 3.6492e-05C16.038 0.0729115 11.5032 2.34166 8.62399 5.63754C5.50824 5.74891 2.90949 6.68804 1.28836 8.30916C1.11236 8.48516 1.04498 8.74229 1.11236 8.98154C1.17973 9.22079 1.37086 9.40504 1.61423 9.46416L4.54161 10.1654L4.52374 10.1847C4.27899 10.4555 4.28999 10.8722 4.54849 11.1307L9.49436 16.0765C9.62774 16.2113 9.80374 16.2773 9.98111 16.2773C10.1461 16.2773 10.3097 16.2195 10.4404 16.1013L10.4596 16.0834L11.1609 19.0108C11.2186 19.2528 11.4029 19.4453 11.6435 19.5127C11.7054 19.5305 11.7672 19.5388 11.8305 19.5388C12.0106 19.5388 12.1852 19.4687 12.3172 19.338C13.9397 17.7155 14.8775 15.1168 14.9889 12.001C18.2889 9.11216 20.5535 4.58291 20.6264 0.699911C20.6277 0.514286 20.5562 0.334161 20.4242 0.202161Z" fill="#0749AA"/>
<path d="M2.35949 14.2271C1.43686 15.1497 0.255737 18.9819 0.0288624 19.7409C-0.0440126 19.9829 0.0233624 20.2455 0.200737 20.4242C0.332737 20.5549 0.507362 20.625 0.687487 20.625C0.753487 20.625 0.819487 20.6154 0.885487 20.5961C1.64449 20.3692 5.47523 19.1895 6.39923 18.2655C7.51298 17.1517 7.51298 15.3409 6.39923 14.2257C5.28273 13.112 3.47049 13.1134 2.35949 14.2271Z" fill="#0749AA"/>
</g>
<defs>
<clipPath id="clip0_1244_24">
<rect width="33" height="33" fill="white"/>
</clipPath>
</defs>
</svg>
