<svg width="35" height="25" viewBox="0 0 35 25" fill="none" xmlns="http://www.w3.org/2000/svg">
<path d="M17.5 14.0381C13.8249 14.0381 10.835 17.028 10.835 20.7031V24.8047H24.165V20.7031C24.165 17.028 21.1751 14.0381 17.5 14.0381Z" fill="#0749AA"/>
<path d="M22.1143 9.42383C22.1143 6.87931 20.0445 4.80957 17.5 4.80957C14.9555 4.80957 12.8857 6.87931 12.8857 9.42383C12.8857 11.9683 14.9555 14.0381 17.5 14.0381C20.0445 14.0381 22.1143 11.9683 22.1143 9.42383Z" fill="#0749AA"/>
<path d="M11.3477 4.80957C11.3477 2.26505 9.27792 0.195312 6.7334 0.195312C4.18888 0.195312 2.11914 2.26505 2.11914 4.80957C2.11914 7.35409 4.18888 9.42383 6.7334 9.42383C9.27792 9.42383 11.3477 7.35409 11.3477 4.80957Z" fill="#0749AA"/>
<path d="M28.2666 9.42383C25.5579 9.42383 23.2312 11.0543 22.1898 13.3801C24.604 14.9316 26.2158 17.6267 26.2158 20.7031H35V16.0889C35 12.4137 31.9417 9.42383 28.2666 9.42383Z" fill="#0749AA"/>
<path d="M32.8809 4.80957C32.8809 2.26505 30.8111 0.195312 28.2666 0.195312C25.7221 0.195312 23.6523 2.26505 23.6523 4.80957C23.6523 7.35409 25.7221 9.42383 28.2666 9.42383C30.8111 9.42383 32.8809 7.35409 32.8809 4.80957Z" fill="#0749AA"/>
<path d="M12.8102 13.3801C11.7688 11.0543 9.44214 9.42383 6.7334 9.42383C3.05828 9.42383 0 12.4137 0 16.0889V20.7031H8.78418C8.78418 17.6267 10.396 14.9316 12.8102 13.3801Z" fill="#0749AA"/>
</svg>
