<svg width="12" height="16" viewBox="0 0 12 16">
<path d="M5.99998 0C2.80482 0 0.205383 2.59944 0.205383 5.79456C0.205383 9.75981 5.39098 15.581 5.61176 15.8269C5.81913 16.0579 6.1812 16.0575 6.3882 15.8269C6.60898 15.581 11.7946 9.75981 11.7946 5.79456C11.7945 2.59944 9.1951 0 5.99998 0ZM5.99998 14.679C4.25476 12.606 1.24888 8.516 1.24888 5.79463C1.24888 3.17481 3.3802 1.0435 5.99998 1.0435C8.61976 1.0435 10.7511 3.17481 10.7511 5.79459C10.751 8.5161 7.74563 12.6053 5.99998 14.679Z" fill="#696969"/>
<path d="M5.99997 2.87918C4.39241 2.87918 3.08459 4.18702 3.08459 5.79459C3.08459 7.40215 4.39244 8.70999 5.99997 8.70999C7.6075 8.70999 8.91531 7.40215 8.91531 5.79459C8.91531 4.18702 7.6075 2.87918 5.99997 2.87918ZM5.99997 7.66649C4.96778 7.66649 4.12809 6.82677 4.12809 5.79459C4.12809 4.7624 4.96781 3.92268 5.99997 3.92268C7.03212 3.92268 7.87184 4.7624 7.87184 5.79459C7.87184 6.82677 7.03212 7.66649 5.99997 7.66649Z" fill="inherit"/>
</svg>
