<svg viewBox="0 0 31 31" fill="none" xmlns="http://www.w3.org/2000/svg">
<g clip-path="url(#clip0)">
<path d="M18.6004 0H12.3996C6.41607 0 1.54822 4.86785 1.54822 10.8514V15.502C1.54822 19.7028 3.97094 23.515 7.749 25.3082V30.4872C7.749 30.9369 8.31155 31.172 8.63111 30.8526L13.1303 26.3534H18.6003C24.5838 26.3534 29.4517 21.4855 29.4517 15.502V10.8514C29.4517 4.86785 24.5838 0 18.6004 0Z" fill="#665CAC"/>
<path d="M9.29919 25.3082C5.52112 23.5149 3.0984 19.7027 3.0984 15.5019V10.8513C3.0984 4.86785 7.96631 0 13.9498 0H12.3996C6.41607 0 1.54822 4.86785 1.54822 10.8514V15.502C1.54822 19.7028 3.97094 23.515 7.74901 25.3082V30.4872C7.74901 30.9369 8.31155 31.172 8.63111 30.8526L9.29919 30.1846V25.3082Z" fill="#523494"/>
<path d="M23.3015 19.26L22.8369 16.7433C22.7985 16.5354 22.6374 16.3719 22.4301 16.3304L18.7763 15.5997C18.6065 15.5659 18.4317 15.6189 18.3094 15.741L16.825 17.2255C14.3239 16.1048 12.9358 14.7137 11.7145 12.1053L13.1941 10.6257C13.3163 10.5035 13.3693 10.3283 13.3355 10.1589L12.6047 6.50499C12.5632 6.29773 12.3997 6.13656 12.1918 6.09817L9.6751 5.63366C9.60619 5.621 9.53523 5.62233 9.46681 5.63789C8.80231 5.78884 8.196 6.12366 7.71338 6.6064C6.87771 7.44207 6.55832 8.66148 6.78986 10.1328C7.17851 12.6035 8.38896 16.0418 10.6222 18.2841L10.6527 18.3144C12.8932 20.546 16.3316 21.7566 18.8024 22.1453C19.1137 22.1944 19.4135 22.2187 19.7009 22.2187C20.7723 22.2187 21.6699 21.8807 22.329 21.2218C22.8116 20.7391 23.1465 20.1328 23.2974 19.4684C23.3127 19.3999 23.3142 19.3291 23.3015 19.26Z" fill="white"/>
<path d="M12.6889 11.1309L13.1941 10.6256L13.1947 10.6251L12.6888 11.1308L12.6889 11.1309Z" fill="#E5E5E5"/>
<path d="M18.3095 15.7404L17.7993 16.2506L17.7994 16.2507L18.3096 15.7405L18.3095 15.7404Z" fill="#E5E5E5"/>
<path d="M20.6751 21.2441C20.3877 21.2441 20.0879 21.2199 19.7766 21.1708C17.3059 20.7821 13.8675 19.5715 11.6269 17.3398L11.5964 17.3096C9.36316 15.0673 8.1527 11.629 7.76405 9.15831C7.57702 7.96959 7.74995 6.94544 8.26393 6.15512C8.06709 6.28645 7.88236 6.43709 7.71313 6.60632C6.87747 7.44198 6.55808 8.6614 6.78961 10.1327C7.17826 12.6034 8.38872 16.0418 10.622 18.284L10.6525 18.3143C12.893 20.546 16.3314 21.7565 18.8022 22.1452C19.1134 22.1943 19.4132 22.2186 19.7007 22.2186C20.7721 22.2186 21.6697 21.8807 22.3287 21.2217C22.4979 21.0524 22.6485 20.8678 22.7799 20.6709C22.1964 21.0504 21.4855 21.2441 20.6751 21.2441Z" fill="#E5E5E5"/>
<path d="M16.5334 8.78442C16.2481 8.78442 16.0167 9.01577 16.0167 9.30113C16.0167 9.58649 16.2481 9.81784 16.5334 9.81784C17.6732 9.81784 18.6004 10.7451 18.6004 11.8848C18.6004 12.1663 18.8355 12.4015 19.1171 12.4015C19.3986 12.4015 19.6338 12.1663 19.6338 11.8848C19.6339 10.1752 18.243 8.78442 16.5334 8.78442Z" fill="white"/>
<path d="M16.5334 6.71747C16.3423 6.71747 16.1494 6.72806 15.96 6.74895C15.6763 6.78026 15.4717 7.03558 15.503 7.3193C15.5343 7.60303 15.7902 7.80707 16.0734 7.77625C16.2252 7.75948 16.38 7.75094 16.5334 7.75094C18.8128 7.75094 20.6673 9.60537 20.6673 11.8848C20.6673 12.0383 20.6587 12.193 20.642 12.3449C20.6111 12.6247 20.819 12.8844 21.0989 12.9152C21.3787 12.946 21.6383 12.7382 21.6692 12.4583C21.6901 12.2689 21.7007 12.076 21.7007 11.8848C21.7007 9.03557 19.3827 6.71747 16.5334 6.71747Z" fill="white"/>
<path d="M16.5339 4.6506C16.3492 4.6506 16.1622 4.65763 15.9781 4.67161C15.6936 4.69317 15.4803 4.94141 15.5019 5.22592C15.5234 5.51049 15.7725 5.72374 16.0562 5.70218C16.2144 5.69013 16.3751 5.68408 16.5339 5.68408C19.953 5.68408 22.7347 8.46572 22.7347 11.8849C22.7347 12.3686 22.6789 12.8502 22.5688 13.3162C22.5056 13.5832 22.6701 13.8608 22.9348 13.9333C23.2134 14.0096 23.5082 13.8349 23.5745 13.5539C23.703 13.0101 23.7681 12.4486 23.7681 11.8849C23.7681 7.89586 20.5229 4.6506 16.5339 4.6506Z" fill="white"/>
</g>
<defs>
</defs>
</svg>
