<svg viewBox="0 0 31 31" fill="none" xmlns="http://www.w3.org/2000/svg">
<path d="M15.5039 0H15.4961C6.94981 0 0 6.95175 0 15.5C0 18.8906 1.09275 22.0333 2.95081 24.5849L1.01912 30.3432L6.97694 28.4386C9.42788 30.0623 12.3516 31 15.5039 31C24.0502 31 31 24.0463 31 15.5C31 6.95369 24.0502 0 15.5039 0Z" fill="#4CAF50"/>
<path d="M24.5228 21.8879C24.1489 22.9439 22.6648 23.8196 21.4809 24.0754C20.6711 24.2478 19.6132 24.3854 16.0521 22.909C11.497 21.0219 8.56363 16.3932 8.33501 16.0929C8.11607 15.7925 6.49438 13.6419 6.49438 11.4177C6.49438 9.19342 7.62395 8.11036 8.07926 7.64536C8.4532 7.26367 9.07126 7.08929 9.66413 7.08929C9.85595 7.08929 10.0284 7.09898 10.1834 7.10673C10.6387 7.12611 10.8673 7.15323 11.1676 7.87204C11.5416 8.77298 12.4522 10.9972 12.5607 11.2259C12.6711 11.4545 12.7816 11.7645 12.6266 12.0648C12.4813 12.3748 12.3534 12.5124 12.1248 12.7759C11.8961 13.0394 11.6791 13.2409 11.4505 13.5237C11.2413 13.7698 11.0049 14.0333 11.2684 14.4886C11.5319 14.9342 12.4425 16.4203 13.7833 17.6138C15.5134 19.1541 16.9162 19.6462 17.418 19.8555C17.7919 20.0105 18.2376 19.9737 18.5108 19.683C18.8576 19.3091 19.2858 18.6891 19.7217 18.0788C20.0317 17.6409 20.4231 17.5867 20.8338 17.7417C21.2523 17.887 23.4669 18.9817 23.9222 19.2084C24.3775 19.437 24.6778 19.5455 24.7883 19.7373C24.8968 19.9291 24.8968 20.83 24.5228 21.8879Z" fill="#FAFAFA"/>
</svg>
