<svg width="19" height="19" viewBox="0 0 19 19">
<path d="M0.735916 9.50004C0.735916 4.65975 4.65975 0.735918 9.50004 0.735918C14.3403 0.735918 18.2642 4.65975 18.2642 9.50004C18.2642 14.3403 14.3403 18.2642 9.50004 18.2642C4.65975 18.2642 0.735916 14.3403 0.735916 9.50004Z" fill="inherit"/>
<path d="M0 9.5C0 14.7379 4.26138 19 9.5 19C14.7379 19 19 14.7379 19 9.5C19 4.26138 14.7379 0 9.5 0C4.26138 0 0 4.26138 0 9.5ZM17.5283 9.5C17.5283 13.927 13.927 17.5283 9.5 17.5283C5.07304 17.5283 1.47172 13.927 1.47172 9.5C1.47172 5.07304 5.07378 1.47172 9.5 1.47172C13.927 1.47172 17.5283 5.07304 17.5283 9.5Z" fill="inherit"/>
<path d="M7.45432 5.29824C7.1688 5.58525 7.1688 6.04881 7.45432 6.33582L10.6112 9.49267L7.45432 12.6495C7.19014 12.9579 7.22621 13.4229 7.53451 13.6871C7.80971 13.9233 8.21666 13.9233 8.49186 13.6871L12.1712 10.0078C12.4567 9.72079 12.4567 9.25722 12.1712 8.97021L8.49186 5.29089C8.20267 5.00756 7.73909 5.01053 7.45432 5.29824Z" fill="currentColor"/>
</svg>
