<svg width="160" height="160" viewBox="0 0 160 160" fill="none" xmlns="http://www.w3.org/2000/svg">
<g clip-path="url(#clip0_1364_84)">
<path d="M32.2462 31.2146C31.3312 30.299 29.8471 30.2993 28.9318 31.2143L23.0159 37.1296L20.4924 34.6062C19.5771 33.6912 18.0931 33.6909 17.1781 34.6065C16.2627 35.5218 16.2627 37.0059 17.1781 37.9209L21.3587 42.1015C21.8162 42.559 22.4162 42.788 23.0159 42.788C23.6155 42.788 24.2155 42.5593 24.673 42.1018L32.2462 34.529C33.1615 33.6137 33.1615 32.1296 32.2462 31.2146Z" fill="#0749AA"/>
<path d="M30.665 55.5421H18.759C16.2097 55.5421 14.1356 57.6165 14.1356 60.1658V72.0714C14.1356 74.6208 16.2097 76.6952 18.759 76.6952H30.6646C33.2143 76.6952 35.2884 74.6208 35.2884 72.0714V60.1658C35.2884 57.6165 33.2143 55.5421 30.665 55.5421ZM30.6009 72.0077H18.8231V60.2299H30.6009C30.6012 60.2299 30.6012 72.0077 30.6009 72.0077Z" fill="#0749AA"/>
<path d="M30.665 88.4383H18.759C16.2097 88.4383 14.1356 90.5126 14.1356 93.062V104.968C14.1356 107.517 16.2097 109.591 18.759 109.591H30.6646C33.2143 109.591 35.2884 107.517 35.2884 104.968V93.062C35.2884 90.5126 33.2143 88.4383 30.665 88.4383ZM30.6009 104.904H18.8231V93.1258H30.6009C30.6012 93.1258 30.6012 104.904 30.6009 104.904Z" fill="#0749AA"/>
<path d="M30.665 122.034H18.759C16.2097 122.034 14.1356 124.109 14.1356 126.658V138.563C14.1356 141.113 16.2097 143.187 18.759 143.187H30.6646C33.2143 143.187 35.2884 141.113 35.2884 138.563V126.658C35.2884 124.108 33.2143 122.034 30.665 122.034ZM30.6009 138.499H18.8231V126.722H30.6009C30.6012 126.722 30.6012 138.499 30.6009 138.499Z" fill="#0749AA"/>
<path d="M156.155 62.693C154.86 62.693 153.811 63.7421 153.811 65.0368V152.148C153.811 153.893 152.392 155.312 150.647 155.312H66.7293C64.9846 155.312 63.5649 153.893 63.5649 152.148V34.9215C63.5649 33.1765 64.9843 31.7571 66.7293 31.7571H150.646C152.391 31.7571 153.81 33.1765 153.81 34.9215V55.4274C153.811 56.7221 154.86 57.7711 156.154 57.7711C157.449 57.7711 158.498 56.7221 158.498 55.4274V34.9215C158.498 30.5921 154.976 27.0696 150.646 27.0696H138.086V13.8415C138.086 6.20999 131.878 0.000937498 124.244 0C124.244 0 124.244 0 124.243 0H17.3034C8.59063 0 1.50159 7.08874 1.50159 15.8015V145.993C1.50159 153.626 7.71095 159.835 15.3428 159.835H52.8649C54.1593 159.835 55.2087 158.786 55.2087 157.491C55.2087 156.196 54.1593 155.147 52.8649 155.147H15.3434C10.2959 155.147 6.1897 151.041 6.1897 145.993V15.8015C6.18908 9.67311 11.175 4.68749 17.3034 4.68749H113.873C111.715 7.12936 110.401 10.334 110.401 13.8415V20.3103C110.401 21.605 111.45 22.654 112.745 22.654C114.039 22.654 115.089 21.605 115.089 20.3103V13.8415C115.089 8.79405 119.195 4.68749 124.244 4.68749C129.292 4.68749 133.398 8.79405 133.398 13.8415V27.0696H66.7296C62.4002 27.0696 58.8777 30.5918 58.8777 34.9215V36.544H46.7009C45.4065 36.544 44.3571 37.5931 44.3571 38.8877C44.3571 40.1824 45.4065 41.2315 46.7009 41.2315H58.8777V63.7749H46.7009C45.4065 63.7749 44.3571 64.8239 44.3571 66.1186C44.3571 67.4133 45.4065 68.4624 46.7009 68.4624H58.8777V96.6711H46.7009C45.4065 96.6711 44.3571 97.7201 44.3571 99.0148C44.3571 100.309 45.4065 101.359 46.7009 101.359H58.8777V130.267H46.7009C45.4065 130.267 44.3571 131.316 44.3571 132.611C44.3571 133.905 45.4065 134.954 46.7009 134.954H58.8777V152.148C58.8777 156.478 62.3999 160 66.7296 160H150.647C154.976 160 158.498 156.478 158.498 152.148V65.0368C158.498 63.7421 157.449 62.693 156.155 62.693Z" fill="#0749AA"/>
<path d="M143.455 35.4637H73.1161C70.0392 35.4637 67.5364 37.9668 67.5364 41.0434V58.5571C67.5364 61.6339 70.0395 64.1368 73.1161 64.1368H143.454C146.531 64.1368 149.034 61.6336 149.034 58.5571V41.0434H149.034C149.034 37.9665 146.531 35.4637 143.455 35.4637ZM143.455 59.4493H73.1161C72.6239 59.4493 72.2239 59.0489 72.2239 58.5571V41.0434C72.2239 40.5515 72.6242 40.1512 73.1161 40.1512H143.454C143.947 40.1512 144.347 40.5515 144.347 41.0434V58.5571H144.347C144.347 59.0489 143.947 59.4493 143.455 59.4493Z" fill="#0749AA"/>
<path d="M79.9939 68.8152H72.2804C69.6645 68.8152 67.5364 70.9433 67.5364 73.5592V81.0917C67.5364 83.7076 69.6645 85.8358 72.2804 85.8358H79.9939C82.6098 85.8358 84.7379 83.7076 84.7379 81.0917V73.5592C84.7376 70.9433 82.6098 68.8152 79.9939 68.8152ZM80.0501 81.0914C80.0501 81.1227 80.0248 81.148 79.9935 81.148H72.2801C72.2489 81.148 72.2236 81.1227 72.2236 81.0914V73.5592C72.2236 73.528 72.2489 73.5027 72.2801 73.5027H79.9935C80.0248 73.5027 80.0501 73.528 80.0501 73.5592V81.0914Z" fill="#0749AA"/>
<path d="M101.426 68.8152H93.7123C91.0964 68.8152 88.9683 70.9433 88.9683 73.5592V81.0917C88.9683 83.7076 91.0964 85.8358 93.7123 85.8358H101.426C104.042 85.8358 106.17 83.7076 106.17 81.0917V73.5592C106.17 70.9433 104.042 68.8152 101.426 68.8152ZM101.483 81.0914C101.483 81.1227 101.457 81.148 101.426 81.148H93.7123C93.6811 81.148 93.6558 81.1227 93.6558 81.0914V73.5592C93.6558 73.528 93.6811 73.5027 93.7123 73.5027H101.426C101.457 73.5027 101.482 73.528 101.482 73.5592V81.0914H101.483Z" fill="#0749AA"/>
<path d="M122.858 68.8152H115.144C112.529 68.8152 110.4 70.9433 110.4 73.5592V81.0917C110.4 83.7076 112.529 85.8358 115.144 85.8358H122.858C125.474 85.8358 127.602 83.7076 127.602 81.0917V73.5592C127.602 70.9433 125.474 68.8152 122.858 68.8152ZM122.915 81.0914C122.915 81.1227 122.889 81.148 122.858 81.148H115.145C115.113 81.148 115.088 81.1227 115.088 81.0914V73.5592C115.088 73.528 115.113 73.5027 115.145 73.5027H122.858C122.889 73.5027 122.915 73.528 122.915 73.5592V81.0914Z" fill="#0749AA"/>
<path d="M144.291 68.8152H136.577C133.961 68.8152 131.833 70.9433 131.833 73.5592V81.0917C131.833 83.7076 133.961 85.8358 136.577 85.8358H144.291C146.907 85.8358 149.035 83.7076 149.035 81.0917V73.5592C149.034 70.9433 146.907 68.8152 144.291 68.8152ZM144.347 81.0914C144.347 81.1227 144.322 81.148 144.29 81.148H136.577C136.546 81.148 136.52 81.1227 136.52 81.0914V73.5592C136.52 73.528 136.546 73.5027 136.577 73.5027H144.29C144.322 73.5027 144.347 73.528 144.347 73.5592V81.0914Z" fill="#0749AA"/>
<path d="M79.9939 90.5045H72.2804C69.6645 90.5045 67.5364 92.6326 67.5364 95.2486V102.781C67.5364 105.397 69.6645 107.525 72.2804 107.525H79.9939C82.6098 107.525 84.7379 105.397 84.7379 102.781V95.2486C84.7376 92.6326 82.6098 90.5045 79.9939 90.5045ZM80.0501 102.781C80.0501 102.812 80.0248 102.837 79.9935 102.837H72.2801C72.2489 102.837 72.2236 102.812 72.2236 102.781V95.2483C72.2236 95.217 72.2489 95.1917 72.2801 95.1917H79.9935C80.0248 95.1917 80.0501 95.217 80.0501 95.2483V102.781Z" fill="#0749AA"/>
<path d="M101.426 90.5045H93.7123C91.0964 90.5045 88.9683 92.6326 88.9683 95.2486V102.781C88.9683 105.397 91.0964 107.525 93.7123 107.525H101.426C104.042 107.525 106.17 105.397 106.17 102.781V95.2486C106.17 92.6326 104.042 90.5045 101.426 90.5045ZM101.483 102.781C101.483 102.812 101.457 102.837 101.426 102.837H93.7123C93.6811 102.837 93.6558 102.812 93.6558 102.781V95.2483C93.6558 95.217 93.6811 95.1917 93.7123 95.1917H101.426C101.457 95.1917 101.482 95.217 101.482 95.2483V102.781H101.483Z" fill="#0749AA"/>
<path d="M122.858 90.5045H115.144C112.529 90.5045 110.4 92.6326 110.4 95.2486V102.781C110.4 105.397 112.529 107.525 115.144 107.525H122.858C125.474 107.525 127.602 105.397 127.602 102.781V95.2486C127.602 92.6326 125.474 90.5045 122.858 90.5045ZM122.915 102.781C122.915 102.812 122.889 102.837 122.858 102.837H115.145C115.113 102.837 115.088 102.812 115.088 102.781V95.2483C115.088 95.217 115.113 95.1917 115.145 95.1917H122.858C122.889 95.1917 122.915 95.217 122.915 95.2483V102.781Z" fill="#0749AA"/>
<path d="M144.291 90.5045H136.577C133.961 90.5045 131.833 92.6326 131.833 95.2486V102.781C131.833 105.397 133.961 107.525 136.577 107.525H144.291C146.907 107.525 149.035 105.397 149.035 102.781V95.2486C149.034 92.6326 146.907 90.5045 144.291 90.5045ZM144.347 102.781C144.347 102.812 144.322 102.837 144.29 102.837H136.577C136.546 102.837 136.52 102.812 136.52 102.781V95.2483C136.52 95.217 136.546 95.1917 136.577 95.1917H144.29C144.322 95.1917 144.347 95.217 144.347 95.2483V102.781Z" fill="#0749AA"/>
<path d="M79.9939 112.194H72.2804C69.6645 112.194 67.5364 114.322 67.5364 116.938V124.47C67.5364 127.086 69.6645 129.214 72.2804 129.214H79.9939C82.6098 129.214 84.7379 127.086 84.7379 124.47V116.938C84.7376 114.322 82.6098 112.194 79.9939 112.194ZM80.0501 124.47C80.0501 124.502 80.0248 124.527 79.9935 124.527H72.2801C72.2489 124.527 72.2236 124.502 72.2236 124.47V116.938C72.2236 116.907 72.2489 116.881 72.2801 116.881H79.9935C80.0248 116.881 80.0501 116.907 80.0501 116.938V124.47Z" fill="#0749AA"/>
<path d="M101.426 112.194H93.7123C91.0964 112.194 88.9683 114.322 88.9683 116.938V124.47C88.9683 127.086 91.0964 129.214 93.7123 129.214H101.426C104.042 129.214 106.17 127.086 106.17 124.47V116.938C106.17 114.322 104.042 112.194 101.426 112.194ZM101.483 124.47C101.483 124.502 101.457 124.527 101.426 124.527H93.7123C93.6811 124.527 93.6558 124.502 93.6558 124.47V116.938C93.6558 116.907 93.6811 116.881 93.7123 116.881H101.426C101.457 116.881 101.482 116.907 101.482 116.938V124.47H101.483Z" fill="#0749AA"/>
<path d="M122.858 112.194H115.144C112.529 112.194 110.4 114.322 110.4 116.938V124.47C110.4 127.086 112.529 129.214 115.144 129.214H122.858C125.474 129.214 127.602 127.086 127.602 124.47V116.938C127.602 114.322 125.474 112.194 122.858 112.194ZM122.915 124.47C122.915 124.502 122.889 124.527 122.858 124.527H115.145C115.113 124.527 115.088 124.502 115.088 124.47V116.938C115.088 116.907 115.113 116.881 115.145 116.881H122.858C122.889 116.881 122.915 116.907 122.915 116.938V124.47Z" fill="#0749AA"/>
<path d="M144.291 112.194H136.577C133.961 112.194 131.833 114.322 131.833 116.938V144.853C131.833 147.469 133.961 149.598 136.577 149.598H144.291C146.907 149.598 149.035 147.469 149.035 144.853V116.938C149.034 114.322 146.907 112.194 144.291 112.194ZM144.347 144.853C144.347 144.885 144.322 144.91 144.29 144.91H136.577C136.546 144.91 136.52 144.885 136.52 144.853V116.938C136.52 116.907 136.546 116.881 136.577 116.881H144.29C144.322 116.881 144.347 116.907 144.347 116.938V144.853Z" fill="#0749AA"/>
<path d="M79.9942 132.577H72.2808C69.6649 132.577 67.5367 134.705 67.5367 137.321V144.854C67.5367 147.47 69.6649 149.598 72.2808 149.598H79.9942C82.6102 149.598 84.7383 147.47 84.7383 144.854V137.321C84.7376 134.705 82.6098 132.577 79.9942 132.577ZM80.0502 144.853C80.0502 144.885 80.0248 144.91 79.9936 144.91H72.2802C72.2489 144.91 72.2236 144.885 72.2236 144.853V137.321C72.2236 137.29 72.2489 137.264 72.2802 137.264H79.9936C80.0248 137.264 80.0502 137.29 80.0502 137.321V144.853Z" fill="#0749AA"/>
<path d="M101.426 132.577H93.7129C91.097 132.577 88.9689 134.705 88.9689 137.321V144.854C88.9689 147.47 91.097 149.598 93.7129 149.598H101.426C104.042 149.598 106.17 147.47 106.17 144.854V137.321C106.17 134.705 104.042 132.577 101.426 132.577ZM101.483 144.853C101.483 144.885 101.457 144.91 101.426 144.91H93.7123C93.6811 144.91 93.6557 144.885 93.6557 144.853V137.321C93.6557 137.29 93.6811 137.264 93.7123 137.264H101.426C101.457 137.264 101.482 137.29 101.482 137.321V144.853H101.483Z" fill="#0749AA"/>
<path d="M122.858 132.577H115.145C112.529 132.577 110.401 134.705 110.401 137.321V144.854C110.401 147.47 112.529 149.598 115.145 149.598H122.858C125.474 149.598 127.603 147.47 127.603 144.854V137.321C127.602 134.705 125.474 132.577 122.858 132.577ZM122.915 144.853C122.915 144.885 122.889 144.91 122.858 144.91H115.145C115.113 144.91 115.088 144.885 115.088 144.853V137.321C115.088 137.29 115.113 137.264 115.145 137.264H122.858C122.889 137.264 122.915 137.29 122.915 137.321V144.853Z" fill="#0749AA"/>
</g>
<defs>
<clipPath id="clip0_1364_84">
<rect width="160" height="160" fill="white"/>
</clipPath>
</defs>
</svg>
