<svg width="9" height="17" viewBox="0 0 9 17">
<path d="M6.86426 7.72238C6.19716 7.35372 5.48792 7.07283 4.78571 6.78142C4.37843 6.61288 3.9887 6.41627 3.64461 6.1424C2.96698 5.6017 3.09689 4.72394 3.89039 4.37634C4.1151 4.27803 4.35034 4.24643 4.58909 4.23239C5.50899 4.18323 6.38324 4.35176 7.21536 4.75202C7.62967 4.95215 7.7666 4.88896 7.90704 4.45709C8.05451 4.00066 8.1774 3.5372 8.31433 3.07725C8.40561 2.76828 8.29326 2.56463 8.00184 2.43472C7.46816 2.19948 6.92044 2.03095 6.34462 1.93967C5.59325 1.8238 5.59325 1.82029 5.58974 1.06541C5.58623 0.00156049 5.58623 0.00156047 4.51887 0.00156047C4.36438 0.00156047 4.2099 -0.00195059 4.05541 0.00156047C3.55684 0.0156047 3.47257 0.103381 3.45853 0.605463C3.45151 0.83017 3.45853 1.05488 3.45502 1.2831C3.45151 1.9502 3.448 1.93967 2.80898 2.1714C1.26411 2.73316 0.309106 3.78648 0.207285 5.47179C0.115998 6.96399 0.895453 7.97166 2.12081 8.70548C2.87569 9.1584 3.71132 9.42524 4.51185 9.77986C4.82433 9.91679 5.12277 10.0748 5.38259 10.2925C6.15151 10.928 6.01107 11.9848 5.09819 12.3851C4.61016 12.5992 4.09403 12.6519 3.56386 12.5852C2.74578 12.4834 1.96282 12.2692 1.22549 11.8865C0.793633 11.6618 0.667234 11.7215 0.51977 12.1884C0.393371 12.5922 0.281018 12.9995 0.168664 13.4068C0.0176879 13.9545 0.0738646 14.0844 0.597013 14.3407C1.26411 14.6637 1.97686 14.8288 2.70365 14.9446C3.27244 15.0359 3.29 15.0605 3.29702 15.6504C3.30053 15.9172 3.30053 16.1875 3.30404 16.4544C3.30755 16.7914 3.46906 16.9881 3.81666 16.9951C4.2099 17.0021 4.60665 17.0021 4.99988 16.9916C5.3229 16.9846 5.48792 16.809 5.48792 16.4825C5.48792 16.1173 5.50548 15.7487 5.49143 15.3835C5.47388 15.0113 5.63539 14.8217 5.99352 14.7234C6.81861 14.4987 7.52083 14.0563 8.06153 13.3963C9.56427 11.5705 8.99196 8.89858 6.86426 7.72238Z" fill="#0749AA"/>
</svg>
