<svg width="160" height="160" viewBox="0 0 160 160" fill="none" xmlns="http://www.w3.org/2000/svg">
<g clip-path="url(#clip0_1364_78)">
<path d="M152 0H136C133.878 0 131.843 0.842855 130.343 2.34315C128.843 3.84344 128 5.87827 128 8V13.3333H93.3333V10.6667C93.3333 8.54494 92.4905 6.5101 90.9902 5.00981C89.4899 3.50952 87.4551 2.66667 85.3333 2.66667H74.6667C72.5449 2.66667 70.5101 3.50952 69.0098 5.00981C67.5095 6.5101 66.6667 8.54494 66.6667 10.6667V13.3333H32V8C32 5.87827 31.1571 3.84344 29.6569 2.34315C28.1566 0.842855 26.1217 0 24 0L8 0C5.87827 0 3.84344 0.842855 2.34315 2.34315C0.842855 3.84344 0 5.87827 0 8L0 24C0 26.1217 0.842855 28.1566 2.34315 29.6569C3.84344 31.1571 5.87827 32 8 32H13.3333V66.6667H10.6667C8.54494 66.6667 6.5101 67.5095 5.00981 69.0098C3.50952 70.5101 2.66667 72.5449 2.66667 74.6667V85.3333C2.66667 87.4551 3.50952 89.4899 5.00981 90.9902C6.5101 92.4905 8.54494 93.3333 10.6667 93.3333H13.3333V128H8C5.87827 128 3.84344 128.843 2.34315 130.343C0.842855 131.843 0 133.878 0 136L0 152C0 154.122 0.842855 156.157 2.34315 157.657C3.84344 159.157 5.87827 160 8 160H24C26.1217 160 28.1566 159.157 29.6569 157.657C31.1571 156.157 32 154.122 32 152V146.667H66.6667V149.333C66.6667 151.455 67.5095 153.49 69.0098 154.99C70.5101 156.49 72.5449 157.333 74.6667 157.333H85.3333C87.4551 157.333 89.4899 156.49 90.9902 154.99C92.4905 153.49 93.3333 151.455 93.3333 149.333V146.667H128V152C128 154.122 128.843 156.157 130.343 157.657C131.843 159.157 133.878 160 136 160H152C154.122 160 156.157 159.157 157.657 157.657C159.157 156.157 160 154.122 160 152V136C160 133.878 159.157 131.843 157.657 130.343C156.157 128.843 154.122 128 152 128H146.667V93.3333H149.333C151.455 93.3333 153.49 92.4905 154.99 90.9902C156.49 89.4899 157.333 87.4551 157.333 85.3333V74.6667C157.333 72.5449 156.49 70.5101 154.99 69.0098C153.49 67.5095 151.455 66.6667 149.333 66.6667H146.667V32H152C154.122 32 156.157 31.1571 157.657 29.6569C159.157 28.1566 160 26.1217 160 24V8C160 5.87827 159.157 3.84344 157.657 2.34315C156.157 0.842855 154.122 0 152 0V0ZM128 18.6667V24C128.005 25.188 128.278 26.3595 128.8 27.4267L120.76 35.4667C119.693 34.9448 118.521 34.6713 117.333 34.6667H106.667C104.545 34.6667 102.51 35.5095 101.01 37.0098C99.5095 38.5101 98.6667 40.5449 98.6667 42.6667V53.3333C98.6713 54.5213 98.9448 55.6928 99.4667 56.76L91.4267 64.8C90.3595 64.2781 89.188 64.0046 88 64H82.6667V29.3333H85.3333C87.4551 29.3333 89.4899 28.4905 90.9902 26.9902C92.4905 25.4899 93.3333 23.4551 93.3333 21.3333V18.6667H128ZM104 53.3333V42.6667C104 41.9594 104.281 41.2811 104.781 40.7811C105.281 40.281 105.959 40 106.667 40H117.333C118.041 40 118.719 40.281 119.219 40.7811C119.719 41.2811 120 41.9594 120 42.6667V53.3333C120 54.0406 119.719 54.7189 119.219 55.219C118.719 55.7191 118.041 56 117.333 56H106.667C105.959 56 105.281 55.7191 104.781 55.219C104.281 54.7189 104 54.0406 104 53.3333ZM72 90.6667C71.2928 90.6667 70.6145 90.3857 70.1144 89.8856C69.6143 89.3855 69.3333 88.7072 69.3333 88V72C69.3333 71.2928 69.6143 70.6145 70.1144 70.1144C70.6145 69.6143 71.2928 69.3333 72 69.3333H88C88.7072 69.3333 89.3855 69.6143 89.8856 70.1144C90.3857 70.6145 90.6667 71.2928 90.6667 72V88C90.6667 88.7072 90.3857 89.3855 89.8856 89.8856C89.3855 90.3857 88.7072 90.6667 88 90.6667H72ZM72 10.6667C72 9.95942 72.281 9.28115 72.7811 8.78105C73.2811 8.28095 73.9594 8 74.6667 8H85.3333C86.0406 8 86.7189 8.28095 87.219 8.78105C87.7191 9.28115 88 9.95942 88 10.6667V21.3333C88 22.0406 87.7191 22.7189 87.219 23.219C86.7189 23.719 86.0406 24 85.3333 24H74.6667C73.9594 24 73.2811 23.719 72.7811 23.219C72.281 22.7189 72 22.0406 72 21.3333V10.6667ZM66.6667 18.6667V21.3333C66.6667 23.4551 67.5095 25.4899 69.0098 26.9902C70.5101 28.4905 72.5449 29.3333 74.6667 29.3333H77.3333V64H72C70.812 64.0046 69.6405 64.2781 68.5733 64.8L60.5333 56.76C61.0552 55.6928 61.3287 54.5213 61.3333 53.3333V42.6667C61.3333 40.5449 60.4905 38.5101 58.9902 37.0098C57.4899 35.5095 55.4551 34.6667 53.3333 34.6667H42.6667C41.4787 34.6713 40.3072 34.9448 39.24 35.4667L31.2 27.4267C31.7219 26.3595 31.9954 25.188 32 24V18.6667H66.6667ZM40 42.6667C40 41.9594 40.281 41.2811 40.7811 40.7811C41.2811 40.281 41.9594 40 42.6667 40H53.3333C54.0406 40 54.7189 40.281 55.219 40.7811C55.7191 41.2811 56 41.9594 56 42.6667V53.3333C56 54.0406 55.7191 54.7189 55.219 55.219C54.7189 55.7191 54.0406 56 53.3333 56H42.6667C41.9594 56 41.2811 55.7191 40.7811 55.219C40.281 54.7189 40 54.0406 40 53.3333V42.6667ZM5.33333 24V8C5.33333 7.29276 5.61428 6.61448 6.11438 6.11438C6.61448 5.61428 7.29276 5.33333 8 5.33333H24C24.7072 5.33333 25.3855 5.61428 25.8856 6.11438C26.3857 6.61448 26.6667 7.29276 26.6667 8V24C26.6667 24.7072 26.3857 25.3855 25.8856 25.8856C25.3855 26.3857 24.7072 26.6667 24 26.6667H8C7.29276 26.6667 6.61448 26.3857 6.11438 25.8856C5.61428 25.3855 5.33333 24.7072 5.33333 24ZM18.6667 32H24C25.188 31.9954 26.3595 31.7219 27.4267 31.2L35.4667 39.24C34.9448 40.3072 34.6713 41.4787 34.6667 42.6667V53.3333C34.6667 55.4551 35.5095 57.4899 37.0098 58.9902C38.5101 60.4905 40.5449 61.3333 42.6667 61.3333H53.3333C54.5213 61.3287 55.6928 61.0552 56.76 60.5333L64.8 68.5733C64.2781 69.6405 64.0046 70.812 64 72V77.3333H29.3333V74.6667C29.3333 72.5449 28.4905 70.5101 26.9902 69.0098C25.4899 67.5095 23.4551 66.6667 21.3333 66.6667H18.6667V32ZM8 85.3333V74.6667C8 73.9594 8.28095 73.2811 8.78105 72.7811C9.28115 72.281 9.95942 72 10.6667 72H21.3333C22.0406 72 22.7189 72.281 23.219 72.7811C23.719 73.2811 24 73.9594 24 74.6667V85.3333C24 86.0406 23.719 86.7189 23.219 87.219C22.7189 87.7191 22.0406 88 21.3333 88H10.6667C9.95942 88 9.28115 87.7191 8.78105 87.219C8.28095 86.7189 8 86.0406 8 85.3333ZM18.6667 93.3333H21.3333C23.4551 93.3333 25.4899 92.4905 26.9902 90.9902C28.4905 89.4899 29.3333 87.4551 29.3333 85.3333V82.6667H64V88C64.0046 89.188 64.2781 90.3595 64.8 91.4267L56.76 99.4667C55.6928 98.9448 54.5213 98.6713 53.3333 98.6667H42.6667C40.5449 98.6667 38.5101 99.5095 37.0098 101.01C35.5095 102.51 34.6667 104.545 34.6667 106.667V117.333C34.6713 118.521 34.9448 119.693 35.4667 120.76L27.4267 128.8C26.3595 128.278 25.188 128.005 24 128H18.6667V93.3333ZM40 117.333V106.667C40 105.959 40.281 105.281 40.7811 104.781C41.2811 104.281 41.9594 104 42.6667 104H53.3333C54.0406 104 54.7189 104.281 55.219 104.781C55.7191 105.281 56 105.959 56 106.667V117.333C56 118.041 55.7191 118.719 55.219 119.219C54.7189 119.719 54.0406 120 53.3333 120H42.6667C41.9594 120 41.2811 119.719 40.7811 119.219C40.281 118.719 40 118.041 40 117.333ZM26.6667 152C26.6667 152.707 26.3857 153.386 25.8856 153.886C25.3855 154.386 24.7072 154.667 24 154.667H8C7.29276 154.667 6.61448 154.386 6.11438 153.886C5.61428 153.386 5.33333 152.707 5.33333 152V136C5.33333 135.293 5.61428 134.614 6.11438 134.114C6.61448 133.614 7.29276 133.333 8 133.333H24C24.7072 133.333 25.3855 133.614 25.8856 134.114C26.3857 134.614 26.6667 135.293 26.6667 136V152ZM32 141.333V136C31.9954 134.812 31.7219 133.641 31.2 132.573L39.24 124.533C40.3072 125.055 41.4787 125.329 42.6667 125.333H53.3333C55.4551 125.333 57.4899 124.49 58.9902 122.99C60.4905 121.49 61.3333 119.455 61.3333 117.333V106.667C61.3287 105.479 61.0552 104.307 60.5333 103.24L68.5733 95.2C69.6405 95.7219 70.812 95.9954 72 96H77.3333V130.667H74.6667C72.5449 130.667 70.5101 131.51 69.0098 133.01C67.5095 134.51 66.6667 136.545 66.6667 138.667V141.333H32ZM88 149.333C88 150.041 87.7191 150.719 87.219 151.219C86.7189 151.719 86.0406 152 85.3333 152H74.6667C73.9594 152 73.2811 151.719 72.7811 151.219C72.281 150.719 72 150.041 72 149.333V138.667C72 137.959 72.281 137.281 72.7811 136.781C73.2811 136.281 73.9594 136 74.6667 136H85.3333C86.0406 136 86.7189 136.281 87.219 136.781C87.7191 137.281 88 137.959 88 138.667V149.333ZM93.3333 141.333V138.667C93.3333 136.545 92.4905 134.51 90.9902 133.01C89.4899 131.51 87.4551 130.667 85.3333 130.667H82.6667V96H88C89.188 95.9954 90.3595 95.7219 91.4267 95.2L99.4667 103.24C98.9448 104.307 98.6713 105.479 98.6667 106.667V117.333C98.6667 119.455 99.5095 121.49 101.01 122.99C102.51 124.49 104.545 125.333 106.667 125.333H117.333C118.521 125.329 119.693 125.055 120.76 124.533L128.8 132.573C128.278 133.641 128.005 134.812 128 136V141.333H93.3333ZM120 117.333C120 118.041 119.719 118.719 119.219 119.219C118.719 119.719 118.041 120 117.333 120H106.667C105.959 120 105.281 119.719 104.781 119.219C104.281 118.719 104 118.041 104 117.333V106.667C104 105.959 104.281 105.281 104.781 104.781C105.281 104.281 105.959 104 106.667 104H117.333C118.041 104 118.719 104.281 119.219 104.781C119.719 105.281 120 105.959 120 106.667V117.333ZM154.667 136V152C154.667 152.707 154.386 153.386 153.886 153.886C153.386 154.386 152.707 154.667 152 154.667H136C135.293 154.667 134.614 154.386 134.114 153.886C133.614 153.386 133.333 152.707 133.333 152V136C133.333 135.293 133.614 134.614 134.114 134.114C134.614 133.614 135.293 133.333 136 133.333H152C152.707 133.333 153.386 133.614 153.886 134.114C154.386 134.614 154.667 135.293 154.667 136ZM141.333 128H136C134.812 128.005 133.641 128.278 132.573 128.8L124.533 120.76C125.055 119.693 125.329 118.521 125.333 117.333V106.667C125.333 104.545 124.49 102.51 122.99 101.01C121.49 99.5095 119.455 98.6667 117.333 98.6667H106.667C105.479 98.6713 104.307 98.9448 103.24 99.4667L95.2 91.4267C95.7219 90.3595 95.9954 89.188 96 88V82.6667H130.667V85.3333C130.667 87.4551 131.51 89.4899 133.01 90.9902C134.51 92.4905 136.545 93.3333 138.667 93.3333H141.333V128ZM152 74.6667V85.3333C152 86.0406 151.719 86.7189 151.219 87.219C150.719 87.7191 150.041 88 149.333 88H138.667C137.959 88 137.281 87.7191 136.781 87.219C136.281 86.7189 136 86.0406 136 85.3333V74.6667C136 73.9594 136.281 73.2811 136.781 72.7811C137.281 72.281 137.959 72 138.667 72H149.333C150.041 72 150.719 72.281 151.219 72.7811C151.719 73.2811 152 73.9594 152 74.6667ZM141.333 66.6667H138.667C136.545 66.6667 134.51 67.5095 133.01 69.0098C131.51 70.5101 130.667 72.5449 130.667 74.6667V77.3333H96V72C95.9954 70.812 95.7219 69.6405 95.2 68.5733L103.24 60.5333C104.307 61.0552 105.479 61.3287 106.667 61.3333H117.333C119.455 61.3333 121.49 60.4905 122.99 58.9902C124.49 57.4899 125.333 55.4551 125.333 53.3333V42.6667C125.329 41.4787 125.055 40.3072 124.533 39.24L132.573 31.2C133.641 31.7219 134.812 31.9954 136 32H141.333V66.6667ZM154.667 24C154.667 24.7072 154.386 25.3855 153.886 25.8856C153.386 26.3857 152.707 26.6667 152 26.6667H136C135.293 26.6667 134.614 26.3857 134.114 25.8856C133.614 25.3855 133.333 24.7072 133.333 24V8C133.333 7.29276 133.614 6.61448 134.114 6.11438C134.614 5.61428 135.293 5.33333 136 5.33333H152C152.707 5.33333 153.386 5.61428 153.886 6.11438C154.386 6.61448 154.667 7.29276 154.667 8V24Z" fill="#0749AA"/>
</g>
<defs>
<clipPath id="clip0_1364_78">
<rect width="160" height="160" fill="white"/>
</clipPath>
</defs>
</svg>
