<svg width="160" height="160" viewBox="0 0 160 160" fill="none" xmlns="http://www.w3.org/2000/svg">
<path d="M157.5 90H152.5V75.155C152.5 62.99 143.812 52.5925 132.025 50.2925L131.71 49.0375C135.12 47.4425 137.5 44.005 137.5 40H140C144.135 40 147.5 36.635 147.5 32.5C147.5 31.125 147.103 29.8525 146.455 28.745C147.135 26.7125 147.5 24.5975 147.5 22.435C147.5 11.4425 138.557 2.5 127.565 2.5H117.432C106.525 2.5 97.645 11.31 97.51 22.1875C92.9975 17.75 86.8175 15 80 15C73.1825 15 67.0025 17.75 62.4875 22.1875C62.355 11.31 53.475 2.5 42.565 2.5H32.4325C21.4425 2.5 12.5 11.4425 12.5 22.435C12.5 24.6 12.8625 26.715 13.545 28.7475C12.8975 29.855 12.5 31.1275 12.5 32.5C12.5 36.635 15.865 40 20 40H22.5C22.5 44.005 24.88 47.4425 28.2875 49.0375L27.9725 50.2925C16.1875 52.5925 7.5 62.99 7.5 75.1575V90H2.5V95H15V104.335L21.6325 106.415C23.1 112.605 25.54 118.48 28.8925 123.92L25.67 130.092L42.4075 146.83L48.58 143.605C54.0175 146.96 59.8925 149.398 66.0825 150.867L68.165 157.5H91.8375L93.92 150.87C100.11 149.4 105.985 146.963 111.423 143.607L117.595 146.833L134.333 130.095L131.11 123.923C134.465 118.482 136.902 112.608 138.37 106.418L145 104.335V95H157.5V90ZM147.5 75.1575V90H109.993C109.943 81.8475 105.988 74.5125 99.825 69.8875C102.62 67.115 104.41 63.4975 104.873 59.5525C105.918 58.6825 107.037 57.9375 108.217 57.3025L110.537 80.5L122.5 68.535L134.462 80.4975L136.788 57.2475C143.208 60.71 147.5 67.495 147.5 75.1575ZM70.055 70.5425C70.3425 75.8 74.6725 80 80 80C85.3275 80 89.6575 75.8 89.945 70.5425C98.6425 72.885 104.923 80.7875 104.993 90H55.0075C55.0775 80.7875 61.3575 72.8825 70.055 70.5425ZM75 67.805L75.7025 65H84.3L85 67.805V70C85 72.7575 82.7575 75 80 75C77.2425 75 75 72.7575 75 70V67.805ZM85 60H75C72.2425 60 70 57.7575 70 55V44.7875C72.94 44.2825 75.65 42.885 77.8025 40.7325L80 38.535L82.1975 40.7325C84.35 42.885 87.06 44.2825 90 44.7875V55C90 57.7575 87.7575 60 85 60ZM80 100C76.745 100 73.995 97.9025 72.96 95H87.0375C86.005 97.9025 83.255 100 80 100ZM67.7525 95C68.0775 96.5925 68.7125 98.07 69.5825 99.38L57.1125 111.85C53.1925 107.22 50.6575 101.393 50.1275 95H67.7525ZM73.1175 102.917C74.43 103.787 75.9075 104.422 77.5 104.747V122.373C71.105 121.84 65.2775 119.307 60.6475 115.385L73.1175 102.917ZM82.5 104.747C84.0925 104.422 85.5725 103.787 86.8825 102.917L99.35 115.387C94.72 119.31 88.8925 121.842 82.4975 122.375V104.747H82.5ZM102.887 111.85L90.4175 99.38C91.285 98.07 91.9225 96.5925 92.2475 95H109.873C109.343 101.395 106.807 107.22 102.887 111.85ZM45.1275 95C46.4175 113.132 61.545 127.5 80 127.5C98.455 127.5 113.583 113.132 114.873 95H124.873C123.565 118.647 103.97 137.5 80 137.5C56.03 137.5 36.435 118.647 35.1275 95H45.1275ZM126.798 50L127.323 52.1025L122.5 60.14L117.677 52.1L118.202 50H126.798ZM131.262 55.2525C131.493 55.3 131.72 55.3525 131.945 55.4075L130.535 69.5025L125.645 64.6125L131.262 55.2525ZM113.763 55.295L119.353 64.6125L114.463 69.5025L113.055 55.44C113.29 55.3825 113.528 55.3425 113.763 55.295ZM112.975 50.2925C110.135 50.8425 107.465 51.92 105 53.375V40H107.5C107.5 44.005 109.88 47.4425 113.287 49.0375L112.975 50.2925ZM107.5 35H105C104.823 35 104.65 34.96 104.48 34.925C104.183 33.4925 103.747 32.11 103.215 30.7775C103.677 30.2975 104.308 30 105 30H107.5V35ZM132.5 40C132.5 42.7575 130.257 45 127.5 45H117.5C114.743 45 112.5 42.7575 112.5 40V29.9925C115.933 29.915 119.355 29.15 122.5 27.76C125.645 29.15 129.067 29.9125 132.5 29.9925V40ZM140 35H137.5V30H140C141.378 30 142.5 31.12 142.5 32.5C142.5 33.88 141.378 35 140 35ZM117.435 7.5H127.568C135.8 7.5 142.5 14.2 142.5 22.435C142.5 23.43 142.398 24.41 142.205 25.37C141.503 25.15 140.773 25 140 25H137.5H135H133.09C129.82 25 126.545 24.225 123.617 22.7625L122.5 22.205L121.383 22.765C118.455 24.225 115.18 25 111.91 25H110H107.5H105C104.235 25 103.49 25.1175 102.783 25.335C102.595 24.385 102.5 23.415 102.5 22.435C102.5 14.2 109.2 7.5 117.435 7.5ZM80 20C91.0275 20 100 28.9725 100 40V57.5C100 61.3125 98.2825 64.845 95.3575 67.2075C93.525 66.35 91.575 65.6925 89.525 65.2925L89.21 64.0375C92.62 62.4425 95 59.005 95 55V40H92.5C89.945 40 87.54 39.005 85.7325 37.1975L80 31.465L74.2675 37.1975C72.46 39.005 70.055 40 67.5 40H65V55C65 59.005 67.38 62.4425 70.7875 64.0375L70.4725 65.2925C68.4225 65.6925 66.4725 66.3525 64.64 67.2075C61.7175 64.845 60 61.3125 60 57.5V40C60 28.9725 68.9725 20 80 20ZM47.025 50.2925L46.71 49.0375C50.12 47.4425 52.5 44.005 52.5 40H55V53.375C52.535 51.92 49.865 50.8425 47.025 50.2925ZM32.5 52.805L33.2025 50H41.8L42.5 52.805V55C42.5 57.7575 40.2575 60 37.5 60C34.7425 60 32.5 57.7575 32.5 55V52.805ZM52.5 30H55C55.69 30 56.3225 30.2975 56.785 30.775C56.2525 32.1075 55.8175 33.49 55.52 34.9225C55.35 34.96 55.1775 35 55 35H52.5V30ZM20 35C18.6225 35 17.5 33.88 17.5 32.5C17.5 31.12 18.6225 30 20 30H22.5V35H20ZM22.53 25H20C19.225 25 18.4925 25.1525 17.79 25.37C17.5975 24.41 17.5 23.4275 17.5 22.435C17.5 14.2 24.2 7.5 32.435 7.5H42.5675C50.8 7.5 57.5 14.2 57.5 22.435C57.5 23.4175 57.405 24.3875 57.215 25.3375C56.51 25.1175 55.765 25 55 25H52.5H50H48.41C43.655 25 39.185 23.1475 35.82 19.785C34.3475 18.31 32.3875 17.5 30.3025 17.5C26.1025 17.5 22.695 20.84 22.53 25ZM27.5 25.3025C27.5 23.7575 28.7575 22.5 30.3025 22.5C31.0525 22.5 31.755 22.79 32.285 23.32C36.3775 27.4125 41.75 29.7575 47.5 29.9825V40C47.5 42.7575 45.2575 45 42.5 45H32.5C29.7425 45 27.5 42.7575 27.5 40V25.3025ZM12.5 75.1575C12.5 65.8775 18.8075 57.8975 27.555 55.5425C27.8425 60.8 32.1725 65 37.5 65C42.83 65 47.1575 60.8 47.445 55.54C50.27 56.295 52.865 57.67 55.1275 59.5525C55.5875 63.4975 57.38 67.115 60.1725 69.8875C54.0075 74.5125 50.055 81.8475 50.005 90H12.5V75.1575ZM140 100.665L134.102 102.515L133.8 103.945C132.405 110.535 129.825 116.757 126.13 122.438L125.332 123.66L128.2 129.152L116.652 140.695L111.162 137.827L109.938 138.625C104.26 142.322 98.0375 144.902 91.4475 146.295L90.0175 146.598L88.165 152.5H71.8375L69.9875 146.602L68.5575 146.3C61.9675 144.905 55.745 142.325 50.0675 138.63L48.8425 137.833L43.3525 140.7L31.805 129.157L34.6725 123.665L33.875 122.443C30.1775 116.763 27.5975 110.538 26.205 103.95L25.9025 102.52L20 100.665V95H30.1275C31.4425 121.405 53.275 142.5 80 142.5C106.725 142.5 128.558 121.405 129.873 95H140V100.665Z" fill="#0749AA"/>
</svg>
