<svg width="160" height="160" viewBox="0 0 160 160" fill="none" xmlns="http://www.w3.org/2000/svg">
<g clip-path="url(#clip0_1364_7)">
<path d="M54.1139 159.219C55.1555 160.259 56.843 160.259 57.8846 159.219L71.2178 145.886L67.447 142.115L55.9993 153.563L6.43741 104.001L36.5516 73.8868L32.7808 70.116L0.78124 102.116C-0.259111 103.157 -0.259111 104.845 0.78124 105.886L54.1139 159.219Z" fill="#0749AA"/>
<path d="M159.982 55.7087L154.649 7.70928C154.511 6.46842 153.532 5.48796 152.291 5.35124L104.292 0.01798C103.488 -0.0666543 102.687 0.214592 102.113 0.783595L83.4468 19.45L87.2176 23.2208L104.978 5.46062L149.598 10.415L154.553 55.0225L144.089 65.4872L139.022 31.4043C142.66 29.959 144.727 26.1049 143.919 22.2755C143.111 18.4461 139.662 15.7561 135.751 15.9032C131.841 16.0516 128.605 18.9943 128.088 22.8744C127.571 26.7533 129.924 30.4408 133.66 31.6074L137.785 59.3401L100.551 22.1166C99.5091 21.075 97.8216 21.075 96.7799 22.1166L83.4468 35.4498L87.2176 39.2206L98.6653 27.7728L132.227 61.3349L126.113 67.4494L129.884 71.2202L137.884 63.2203C138.035 63.0484 138.162 62.857 138.262 62.6526L139.382 70.1798L134.113 75.4493L137.884 79.2201L140.357 76.7448L142.051 88.1106C142.454 91.3918 144.622 94.1886 147.699 95.3969C150.777 96.6052 154.267 96.031 156.796 93.9009C159.323 91.7707 160.482 88.4283 159.814 85.19L154.907 62.1955L159.217 57.887C159.79 57.3141 160.071 56.5133 159.982 55.7087ZM135.998 21.3354C137.471 21.3354 138.665 22.5294 138.665 24.002C138.665 25.4747 137.471 26.6687 135.998 26.6687C134.526 26.6687 133.332 25.4747 133.332 24.002C133.332 22.5294 134.526 21.3354 135.998 21.3354ZM154.593 86.2734C154.848 87.595 154.361 88.9517 153.321 89.8085C152.282 90.6652 150.856 90.884 149.607 90.3788C148.359 89.8736 147.486 88.7264 147.334 87.3879L145.064 72.0522L150.428 66.689L154.593 86.2734Z" fill="#0749AA"/>
<path d="M19.4503 103.716L36.7823 86.384L40.5532 90.1549L23.2212 107.487L19.4503 103.716Z" fill="#0749AA"/>
<path d="M27.7119 111.982L45.044 94.6495L48.8161 98.4204L31.4827 115.752L27.7119 111.982Z" fill="#0749AA"/>
<path d="M35.98 120.247L46.1128 110.114L49.8849 113.885L39.7508 124.018L35.98 120.247Z" fill="#0749AA"/>
<path d="M44.2468 128.515L51.4486 121.315L55.2195 125.085L48.019 132.287L44.2468 128.515Z" fill="#0749AA"/>
<path d="M52.5137 136.782L57.847 131.45L61.6178 135.221L56.2858 140.553L52.5137 136.782Z" fill="#0749AA"/>
<path d="M95.9987 146.667C105.083 146.663 113.927 143.741 121.225 138.331L140.456 157.563C143.708 160.813 148.977 160.813 152.227 157.563C155.477 154.313 155.477 149.042 152.227 145.792L132.55 126.115L132.209 126.456C142.419 109.942 140.177 88.6158 126.759 74.5847C113.34 60.5523 92.1342 57.3623 75.1813 66.8244C58.2271 76.2865 49.8106 96.0102 54.7102 114.798C59.6086 133.584 76.5836 146.687 95.9987 146.667ZM148.456 149.563C149.624 150.731 149.624 152.624 148.456 153.792C147.288 154.96 145.395 154.96 144.227 153.792L125.332 134.899C126.783 133.525 128.136 132.053 129.382 130.492L148.456 149.563ZM95.9987 66.6681C116.617 66.6681 133.332 83.3828 133.332 104.001C133.332 124.619 116.617 141.334 95.9987 141.334C75.3805 141.334 58.6659 124.619 58.6659 104.001C58.688 83.3919 75.3896 66.6903 95.9987 66.6681Z" fill="#0749AA"/>
<path d="M95.9987 136.001C113.672 136.001 127.998 121.674 127.998 104.001C127.998 86.328 113.672 72.0014 95.9987 72.0014C78.3258 72.0014 63.9991 86.328 63.9991 104.001C64.0187 121.666 78.3336 135.981 95.9987 136.001ZM95.9987 77.3347C110.726 77.3347 122.665 89.2733 122.665 104.001C122.665 118.729 110.726 130.667 95.9987 130.667C81.2711 130.667 69.3324 118.729 69.3324 104.001C69.348 89.2798 81.2776 77.3503 95.9987 77.3347Z" fill="#0749AA"/>
<path d="M98.6653 114.668H93.332C91.8594 114.668 90.6654 113.474 90.6654 112.001H85.3322C85.3322 116.419 88.9141 120.001 93.332 120.001V125.334H98.6653V120.001C103.083 120.001 106.665 116.419 106.665 112.001V109.334C106.665 104.916 103.083 101.334 98.6653 101.334H93.332C91.8594 101.334 90.6654 100.14 90.6654 98.6677V96.0011C90.6654 94.5285 91.8594 93.3345 93.332 93.3345H98.6653C100.138 93.3345 101.332 94.5285 101.332 96.0011H106.665C106.665 91.5832 103.083 88.0012 98.6653 88.0012V82.6679H93.332V88.0012C88.9141 88.0012 85.3322 91.5832 85.3322 96.0011V98.6677C85.3322 103.086 88.9141 106.668 93.332 106.668H98.6653C100.138 106.668 101.332 107.862 101.332 109.334V112.001C101.332 113.474 100.138 114.668 98.6653 114.668Z" fill="#0749AA"/>
<path d="M13.3332 64.0015H31.1467L49.1165 76.836C49.5683 77.1602 50.11 77.3347 50.666 77.3347C51.179 77.3334 51.6816 77.185 52.1139 76.9076C53.0371 76.3113 53.4993 75.211 53.2792 74.1342L51.2532 64.0015H66.6658C74.0264 63.9924 79.9898 58.0276 79.9989 50.6684V13.3355C79.9898 5.97496 74.0264 0.0114948 66.6658 0.00238037H13.3332C5.97258 0.0114948 0.00911448 5.97496 0 13.3355V50.6684C0.00911448 58.0276 5.97258 63.9924 13.3332 64.0015ZM5.33326 13.3355C5.33326 8.91763 8.91525 5.33564 13.3332 5.33564H66.6658C71.0837 5.33564 74.6657 8.91763 74.6657 13.3355V50.6684C74.6657 55.0863 71.0837 58.6683 66.6658 58.6683H47.9994C47.1986 58.6683 46.4395 59.0276 45.933 59.6474C45.4265 60.2685 45.226 61.0836 45.3861 61.8674L46.7194 68.59L33.5412 59.1774C33.0933 58.8506 32.5543 58.6722 31.9996 58.6683H13.3332C8.91525 58.6683 5.33326 55.0863 5.33326 50.6684V13.3355Z" fill="#0749AA"/>
<path d="M13.3331 53.335H69.3324V48.0017H15.9998V40.8898L21.333 33.7806L27.2001 41.6021C27.7353 42.2726 28.5465 42.6645 29.4045 42.6685C30.2704 42.645 31.0712 42.2023 31.5516 41.481L40.2364 28.4525L51.2819 41.7114C51.791 42.3169 52.541 42.6671 53.3326 42.6685C53.4159 42.6737 53.4993 42.6737 53.5839 42.6685C54.4589 42.5851 55.2362 42.0773 55.6633 41.3078L68.9965 17.3081L64.3351 14.7222L52.8899 35.3196L42.0502 22.3054C41.5177 21.6466 40.7013 21.2846 39.8549 21.3354C39.0164 21.381 38.2469 21.8198 37.7807 22.519L29.2053 35.3886L23.4658 27.7351C22.9411 27.097 22.1585 26.7273 21.333 26.7273C20.5075 26.7273 19.725 27.097 19.2002 27.7351L15.9998 32.0019V13.3355H10.6665V50.6683C10.6665 52.141 11.8605 53.335 13.3331 53.335Z" fill="#0749AA"/>
</g>
<defs>
<clipPath id="clip0_1364_7">
<rect width="160" height="160" fill="white"/>
</clipPath>
</defs>
</svg>
