<svg width="160" height="130" viewBox="0 0 160 130" fill="none" xmlns="http://www.w3.org/2000/svg">
<path d="M117.156 99.4034L111.893 104.666L110.917 103.689C108.702 101.474 105.098 101.474 102.882 103.689C100.667 105.903 100.667 109.507 102.882 111.723C103.791 112.632 104.552 113.403 105.198 114.059C108.557 117.465 109.459 118.381 111.893 118.381C113.411 118.381 114.837 117.79 115.911 116.717L125.19 107.437C127.405 105.222 127.405 101.618 125.19 99.4038C122.975 97.1884 119.371 97.1891 117.156 99.4034ZM121.876 104.122C111.409 114.589 112.578 113.679 111.632 113.679V113.68C111.146 113.495 109.186 111.397 106.197 108.408C105.81 108.021 105.81 107.39 106.197 107.004C106.584 106.617 107.215 106.616 107.602 107.003L110.236 109.638C111.152 110.552 112.636 110.553 113.551 109.638L120.471 102.718C120.858 102.33 121.489 102.331 121.876 102.718C122.263 103.105 122.263 103.736 121.876 104.122Z" fill="#0749AA"/>
<path d="M50.9872 129.016C52.2819 129.016 53.3309 127.967 53.3309 126.672C53.3309 125.377 52.2819 124.328 50.9872 124.328H38.5128C37.2181 124.328 36.1691 125.377 36.1691 126.672C36.1691 127.967 37.2181 129.016 38.5128 129.016H50.9872Z" fill="#0749AA"/>
<path d="M38.5128 76.5778C37.2181 76.5778 36.1691 77.6269 36.1691 78.9216C36.1691 80.2163 37.2181 81.2653 38.5128 81.2653H50.9872C52.2819 81.2653 53.3309 80.2163 53.3309 78.9216C53.3309 77.6269 52.2819 76.5778 50.9872 76.5778H38.5128Z" fill="#0749AA"/>
<path d="M109.013 76.5778C107.718 76.5778 106.669 77.6269 106.669 78.9216C106.669 80.2163 107.718 81.2653 109.013 81.2653H121.487C122.782 81.2653 123.831 80.2163 123.831 78.9216C123.831 77.6269 122.782 76.5778 121.487 76.5778H109.013Z" fill="#0749AA"/>
<path d="M50.9872 35.5153C52.2819 35.5153 53.3309 34.4662 53.3309 33.1716C53.3309 31.8769 52.2819 30.8278 50.9872 30.8278H38.5128C37.2181 30.8278 36.1691 31.8769 36.1691 33.1716C36.1691 34.4662 37.2181 35.5153 38.5128 35.5153H50.9872Z" fill="#0749AA"/>
<path d="M121.487 35.5153C122.782 35.5153 123.831 34.4662 123.831 33.1716C123.831 31.8769 122.782 30.8278 121.487 30.8278H109.013C107.718 30.8278 106.669 31.8769 106.669 33.1716C106.669 34.4662 107.718 35.5153 109.013 35.5153H121.487Z" fill="#0749AA"/>
<path d="M150.696 11.3731H144.219V7.00375C144.219 3.62312 141.468 0.87281 138.088 0.87281H120.719C119.424 0.87281 118.375 1.92187 118.375 3.21656C118.375 4.51125 119.424 5.56031 120.719 5.56031H138.088C138.884 5.56031 139.531 6.20781 139.531 7.00375V20.4294C139.531 21.2253 138.884 21.8728 138.088 21.8728H92.4125C91.6166 21.8728 90.9691 21.2253 90.9691 20.4294V7.00375C90.9691 6.20781 91.6166 5.56031 92.4125 5.56031H109.781C111.076 5.56031 112.125 4.51125 112.125 3.21656C112.125 1.92187 111.076 0.87281 109.781 0.87281H92.4125C89.0319 0.87281 86.2816 3.62312 86.2816 7.00375V11.3728H73.7191V7.00375C73.7191 3.62312 70.9688 0.87281 67.5881 0.87281H21.9122C18.5316 0.87281 15.7812 3.62312 15.7812 7.00375V20.4294C15.7812 23.81 18.5316 26.5603 21.9122 26.5603H67.5878C70.9684 26.5603 73.7188 23.81 73.7188 20.4294V16.0606H86.2812V20.4294C86.2812 23.81 89.0316 26.5603 92.4122 26.5603H138.087C141.468 26.5603 144.218 23.81 144.218 20.4294V16.0606H150.696C153.242 16.0606 155.312 18.1312 155.312 20.6766V52.5062C155.312 55.0519 153.241 57.1225 150.696 57.1225H144.219V52.7537C144.219 49.3731 141.468 46.6228 138.088 46.6228H92.4125C89.0319 46.6228 86.2816 49.3731 86.2816 52.7537V57.1225H73.7191V52.7537C73.7191 49.3731 70.9688 46.6228 67.5881 46.6228H21.9122C18.5316 46.6228 15.7812 49.3731 15.7812 52.7537V57.1225H9.30375C4.17344 57.1228 0 61.2962 0 66.4266V100.256C0 105.387 4.17344 109.56 9.30375 109.56H15.7812V113.929C15.7812 117.309 18.5316 120.06 21.9122 120.06H67.5878C70.9684 120.06 73.7188 117.309 73.7188 113.929V109.56H92.2528C93.4263 120.543 102.747 129.127 114.037 129.127C123.721 129.127 132.372 122.635 135.073 113.339C135.435 112.096 134.72 110.796 133.477 110.434C132.234 110.073 130.934 110.788 130.572 112.031C128.449 119.337 121.649 124.439 114.037 124.439C104.54 124.439 96.8134 116.713 96.8134 107.216C96.8134 97.7197 104.54 89.9931 114.037 89.9931C121.649 89.9931 128.449 95.0956 130.572 102.402C130.934 103.645 132.236 104.36 133.477 103.998C134.72 103.637 135.435 102.337 135.073 101.093C132.372 91.7978 123.721 85.3056 114.037 85.3056C102.747 85.3056 93.4263 93.8891 92.2528 104.873H73.7188V100.504C73.7188 97.1231 70.9684 94.3728 67.5878 94.3728H21.9122C18.5316 94.3728 15.7812 97.1231 15.7812 100.504V104.873H9.30375C6.75812 104.873 4.6875 102.802 4.6875 100.256V66.4266C4.6875 63.8809 6.75844 61.8103 9.30375 61.8103H15.7812V66.1791C15.7812 69.5597 18.5316 72.31 21.9122 72.31H67.5878C70.9684 72.31 73.7188 69.5597 73.7188 66.1791V61.8103H86.2812V66.1791C86.2812 69.5597 89.0316 72.31 92.4122 72.31H138.087C141.468 72.31 144.218 69.5597 144.218 66.1791V61.8103H150.696C155.826 61.8103 160 57.6369 160 52.5066V20.6766C160 15.5466 155.827 11.3731 150.696 11.3731ZM69.0312 20.4294C69.0312 21.2253 68.3838 21.8728 67.5878 21.8728H21.9122C21.1163 21.8728 20.4688 21.2253 20.4688 20.4294V7.00375C20.4688 6.20781 21.1163 5.56031 21.9122 5.56031H67.5878C68.3838 5.56031 69.0312 6.20781 69.0312 7.00375V20.4294ZM20.4688 100.504C20.4688 99.7078 21.1163 99.0603 21.9122 99.0603H67.5878C68.3838 99.0603 69.0312 99.7078 69.0312 100.504V113.929C69.0312 114.725 68.3838 115.373 67.5878 115.373H21.9122C21.1163 115.373 20.4688 114.725 20.4688 113.929V100.504ZM69.0312 66.1791C69.0312 66.975 68.3838 67.6225 67.5878 67.6225H21.9122C21.1163 67.6225 20.4688 66.975 20.4688 66.1791V59.4725C20.4688 59.4703 20.4691 59.4684 20.4691 59.4666C20.4691 59.4647 20.4688 59.4625 20.4688 59.4606V52.7541C20.4688 51.9581 21.1163 51.3106 21.9122 51.3106H67.5878C68.3838 51.3106 69.0312 51.9581 69.0312 52.7541V66.1791ZM139.531 66.1791C139.531 66.975 138.884 67.6225 138.088 67.6225H92.4125C91.6166 67.6225 90.9691 66.975 90.9691 66.1791V52.7537C90.9691 51.9578 91.6166 51.3103 92.4125 51.3103H138.088C138.884 51.3103 139.531 51.9578 139.531 52.7537V66.1791Z" fill="#0749AA"/>
</svg>
