<svg width="120" height="120" viewBox="0 0 120 120" fill="none" xmlns="http://www.w3.org/2000/svg">
<path d="M116.461 0.0217896H100.056C98.1016 0.0217896 96.5171 1.60585 96.5171 3.56079C96.5171 5.51574 98.1016 7.09979 100.056 7.09979H107.917L71.5506 43.4661C68.3386 41.2502 64.4499 39.9488 60.2612 39.9488C55.9384 39.9488 51.9365 41.3361 48.6669 43.6836L12.0831 7.09979H19.9444C21.8989 7.09979 23.4834 5.51574 23.4834 3.56079C23.4834 1.60585 21.8989 0.0217896 19.9444 0.0217896H3.539C1.58453 0.0217896 0 1.60585 0 3.56079V19.9657C0 21.9207 1.58453 23.5047 3.539 23.5047C5.49347 23.5047 7.078 21.9207 7.078 19.9657V12.1049L43.7298 48.7562C41.5833 51.9356 40.3286 55.7648 40.3286 59.8814C40.3286 64.0588 41.6229 67.9385 43.8279 71.1453L7.078 107.895V100.034C7.078 98.0795 5.49347 96.4954 3.539 96.4954C1.58453 96.4954 0 98.0795 0 100.034V116.439C0 118.394 1.58453 119.978 3.539 119.978H19.9439C21.8984 119.978 23.4829 118.394 23.4829 116.439C23.4829 114.484 21.8984 112.9 19.9439 112.9H12.0826L48.8052 76.1783C52.0488 78.4654 55.9993 79.814 60.2607 79.814C71.2514 79.814 80.1933 70.8726 80.1933 59.8819C80.1933 55.6313 78.8513 51.6903 76.5755 48.4514L112.922 12.1054V19.9657C112.922 21.9207 114.506 23.5047 116.461 23.5047C118.415 23.5047 120 21.9207 120 19.9657V3.56079C120 1.60585 118.415 0.0217896 116.461 0.0217896ZM60.2612 72.736C53.1733 72.736 47.4066 66.9693 47.4066 59.8819C47.4066 52.794 53.1733 47.0273 60.2612 47.0273C63.4661 47.0273 66.3983 48.2088 68.6519 50.1562C68.7982 50.3997 68.9718 50.6309 69.1818 50.8404C69.4008 51.0594 69.6433 51.2396 69.8986 51.3892C71.8984 53.6561 73.1153 56.6288 73.1153 59.8819C73.1153 66.9693 67.3491 72.736 60.2612 72.736Z" fill="#0749AA"/>
<path d="M116.461 96.4954C114.507 96.4954 112.922 98.0795 112.922 100.034V107.895L86.3842 81.3574C85.0021 79.9758 82.7612 79.9758 81.3796 81.3574C79.9975 82.74 79.9975 84.9804 81.3796 86.3625L107.917 112.9H100.056C98.1016 112.9 96.5171 114.484 96.5171 116.439C96.5171 118.394 98.1016 119.978 100.056 119.978H116.461C118.415 119.978 120 118.394 120 116.439V100.034C120 98.0795 118.415 96.4954 116.461 96.4954Z" fill="#F36F56" fill-opacity="0.8"/>
</svg>
