<svg width="94" height="94" viewBox="0 0 94 94" fill="none" xmlns="http://www.w3.org/2000/svg">
<g clip-path="url(#clip0_1114_238)">
<path d="M80.7173 6.28705C80.2881 6.25681 79.8576 6.2462 79.4273 6.25495H14.5722C6.68578 6.09499 0.162896 12.3584 0.00293381 20.2448C-0.00582032 20.6751 0.00505603 21.1057 0.0350323 21.5349V60.3926C0.0350323 67.4171 3.85502 74.9298 14.5722 74.9298H34.7969V83.5035H25.9473C24.7753 83.5035 23.825 84.4537 23.825 85.6257C23.825 86.7977 24.7753 87.7479 25.9473 87.7479H68.052C69.224 87.7479 70.1742 86.7977 70.1742 85.6257C70.1742 84.4537 69.224 83.5035 68.052 83.5035H59.2023V74.9086H79.427C90.0381 74.9086 93.9642 67.3959 93.9642 60.3714V21.5349C94.5168 13.6662 88.586 6.83962 80.7173 6.28705ZM54.9579 83.5035H39.0413V74.9086H54.9579V83.5035ZM89.7198 21.5349V60.3714C89.7198 64.2126 88.3828 70.6641 79.427 70.6641H14.5722C5.61645 70.6641 4.27946 64.2975 4.27946 60.3714V21.5349C3.78498 16.0132 7.86016 11.1358 13.3819 10.6413C13.7777 10.6058 14.1751 10.5938 14.5722 10.6055H79.427C84.9684 10.4426 89.5927 14.803 89.7556 20.3446C89.7673 20.7417 89.7553 21.1391 89.7198 21.5349Z" fill="#A7A7A7"/>
<path d="M44.8349 48.4446V30.7665C44.9042 30.0036 44.6763 29.243 44.1983 28.6443C43.7951 28.1729 43.2056 27.9015 42.5854 27.9015C41.9678 27.8792 41.3712 28.127 40.9513 28.5806C40.4849 29.1847 40.265 29.9431 40.3359 30.7028V37.0695H30.51V30.7028C30.5792 29.9399 30.3514 29.1794 29.8733 28.5806C29.4486 28.1214 28.843 27.8729 28.218 27.9015C27.593 27.8729 26.9874 28.1214 26.5627 28.5806C26.1001 29.1865 25.8804 29.9434 25.9473 30.7028V48.3809C25.8804 49.1404 26.1001 49.8972 26.5627 50.5031C26.9787 50.9644 27.5758 51.2204 28.1968 51.2034C28.8218 51.2321 29.4274 50.9835 29.8521 50.5243C30.332 49.9264 30.5604 49.1653 30.4888 48.4021V40.8895H40.2934V48.4233C40.2266 49.1828 40.4462 49.9397 40.9089 50.5455C41.3248 51.0069 41.9219 51.2629 42.543 51.2459C43.1679 51.2745 43.7736 51.026 44.1983 50.5668C44.6782 49.9691 44.9066 49.2078 44.8349 48.4446Z" fill="#A7A7A7"/>
<path d="M65.5053 30.4269C64.6305 29.6526 63.5824 29.0995 62.4494 28.8141C61.1495 28.5066 59.8162 28.3642 58.4808 28.3896H52.5811C51.277 28.1583 50.0323 29.0279 49.801 30.332C49.7519 30.6089 49.7519 30.8925 49.801 31.1697V47.6169C49.7861 48.2098 49.8503 48.8021 49.992 49.3783C50.1143 49.8288 50.4127 50.211 50.8196 50.4394C51.3977 50.7288 52.0418 50.8607 52.6872 50.8214H58.6082C59.5385 50.8315 60.468 50.7678 61.3883 50.6304C62.1859 50.5076 62.964 50.2792 63.7015 49.9513C64.4206 49.6213 65.0859 49.1849 65.6751 48.6568C66.4314 47.966 67.0694 47.1558 67.5639 46.2587C68.0716 45.3132 68.4361 44.2975 68.6462 43.2451C68.8937 42.0299 69.0147 40.7926 69.007 39.5525C69.276 36.1381 67.9891 32.785 65.5053 30.4269ZM62.0674 46.1526C61.7175 46.4518 61.3142 46.6823 60.8789 46.8317C60.4468 46.9842 59.9979 47.0839 59.5419 47.1288C59.1175 47.1288 58.5233 47.1288 57.7593 47.1288H54.3213V31.9762H57.3136C58.5105 31.9491 59.7048 32.0993 60.8577 32.4218C61.9162 32.794 62.7953 33.5519 63.3195 34.544C64.084 36.0824 64.4281 37.7958 64.3169 39.51C64.5856 41.9479 63.7622 44.3797 62.0674 46.1526Z" fill="#A7A7A7"/>
</g>
<defs>
<clipPath id="clip0_1114_238">
<path d="M0 0H91C92.6569 0 94 1.34315 94 3V91C94 92.6569 92.6569 94 91 94H0V0Z" fill="white"/>
</clipPath>
</defs>
</svg>
