<svg width="94" height="94" viewBox="0 0 94 94" fill="none" xmlns="http://www.w3.org/2000/svg">
<path d="M78.7625 34.7439C78.4315 34.3235 78.1135 33.9196 77.8114 33.5299C74.8847 29.758 73.398 25.5568 72.0862 21.8503C71.1524 19.2114 70.3459 16.9329 69.1706 15.2998C68.6021 14.5102 67.7235 13.7624 66.5597 13.0783C65.8364 12.6525 64.9053 12.8936 64.481 13.6174C64.0557 14.3403 64.2972 15.2709 65.0201 15.6962C66.0139 16.2799 66.4855 16.7683 66.7065 17.0744C67.6283 18.3551 68.3676 20.4437 69.2235 22.8632C70.5421 26.5924 72.1853 31.2327 75.4119 35.3916C75.7179 35.7862 76.0413 36.1963 76.3768 36.623C81.7088 43.3945 89.7308 53.5794 87.4825 72.5831C82.8413 74.9715 55.043 88.3064 31.637 78.1593C31.2278 77.9818 30.7602 77.9929 30.3608 78.1913C29.9608 78.3893 29.6677 78.7532 29.5596 79.186C29.5427 79.2527 27.9083 85.5163 20.7738 90.3563C18.8053 86.9589 13.4973 77.4809 8.88462 66.3934C4.21323 55.1666 6.77113 43.3505 7.75336 39.7222C9.50653 39.8415 12.9942 40.0025 17.7296 39.8477C24.224 39.6337 32.8662 42.2877 37.6043 50.3591C37.9544 50.9557 38.6635 51.2399 39.3277 51.0518C39.474 51.009 53.9949 47.0543 59.9443 59.0075C60.1423 59.4052 60.5049 59.6961 60.935 59.8038C66.9953 61.3185 67.8734 60.3398 68.2956 59.8692C69.0669 59.0088 68.7395 58.0484 68.244 56.5946C67.2555 53.6951 64.9414 46.9071 65.848 32.743C65.8751 32.3123 65.7181 31.8911 65.4169 31.5828C65.3586 31.5227 63.9663 30.1117 62.0013 28.911C61.2847 28.4746 60.3501 28.7001 59.9137 29.4159C59.4773 30.1317 59.7032 31.0663 60.4186 31.5036C61.4346 32.1237 62.2794 32.823 62.7745 33.2648C61.956 47.4934 64.3226 54.4994 65.3591 57.5386C64.5521 57.4545 63.44 57.2646 62.3328 57.0141C56.2045 45.6722 43.5026 47.129 39.6399 47.8746C34.1282 39.3944 24.7472 36.5843 17.6318 36.812C11.0319 37.0256 6.84542 36.6034 6.80449 36.5985C6.09629 36.5247 5.43924 36.9477 5.21014 37.6172C4.99661 38.2413 0.0511875 53.0674 6.08116 67.5589C11.9363 81.6296 18.8951 93.1535 18.965 93.2683C19.2506 93.7389 19.7515 93.9996 20.2648 93.9996C20.53 93.9996 20.7987 93.9306 21.0416 93.7838C27.9132 89.6774 30.843 84.2555 31.9387 81.5673C45.6099 86.9135 60.2553 84.9744 70.2903 82.3325C81.4979 79.3813 89.3042 75.0636 89.6311 74.8816C90.0502 74.6476 90.3336 74.2295 90.3963 73.7535C93.125 52.9833 84.1345 41.5657 78.7625 34.7439Z" fill="#A7A7A7"/>
<path d="M48.6691 0C38.6217 0 30.4479 8.17372 30.4479 18.2212C30.4479 28.2686 38.6217 36.4423 48.6691 36.4423C58.7165 36.4423 66.8903 28.2686 66.8903 18.2212C66.8903 8.17372 58.7165 0 48.6691 0ZM48.6691 33.4053C40.2965 33.4053 33.4849 26.5937 33.4849 18.2212C33.4849 9.84859 40.2965 3.03701 48.6691 3.03701C57.0417 3.03701 63.8533 9.84859 63.8533 18.2212C63.8537 26.5937 57.0417 33.4053 48.6691 33.4053Z" fill="#A7A7A7"/>
<path d="M48.6691 9.1106C43.6454 9.1106 39.5585 13.1975 39.5585 18.2212C39.5585 23.2449 43.6454 27.3318 48.6691 27.3318C53.6928 27.3318 57.7797 23.2449 57.7797 18.2212C57.7797 13.1975 53.6928 9.1106 48.6691 9.1106ZM48.6691 24.2947C45.3203 24.2947 42.5955 21.57 42.5955 18.2212C42.5955 14.8723 45.3203 12.1476 48.6691 12.1476C52.018 12.1476 54.7427 14.8723 54.7427 18.2212C54.7431 21.57 52.018 24.2947 48.6691 24.2947Z" fill="#A7A7A7"/>
<path d="M63.6228 69.0438C63.1779 68.3334 62.2424 68.1159 61.5302 68.5612C50.5059 75.4488 34.6638 61.2758 34.5059 61.1321C33.884 60.568 32.9244 60.6152 32.3612 61.2353C31.798 61.8554 31.8434 62.8154 32.4635 63.3795C32.6406 63.5397 36.8609 67.3494 42.6756 70.2574C46.968 72.4038 51.0063 73.4794 54.6706 73.4794C57.7903 73.4794 60.6378 72.6992 63.1397 71.1364C63.8514 70.6911 64.0668 69.7551 63.6228 69.0438Z" fill="#A7A7A7"/>
<path d="M42.4292 53.9713L38.5367 46.3723C38.1532 45.6254 37.2368 45.33 36.4931 45.7126C35.7461 46.0951 35.4512 47.0102 35.8333 47.7562L39.7258 55.3552C39.9954 55.8806 40.527 56.1822 41.0786 56.1822C41.3117 56.1822 41.5479 56.1283 41.7695 56.0154C42.5168 55.6323 42.8113 54.7173 42.4292 53.9713Z" fill="#A7A7A7"/>
</svg>
