<svg width="96" height="68" viewBox="0 0 96 68" fill="none" xmlns="http://www.w3.org/2000/svg">
<path d="M15.8438 60.0312L6.65625 14.0938L32.6875 30.9375L48 4.90625L63.3125 32.4688L89.3438 15.625L80.1562 60.0312H15.8438Z" fill="white"/>
<path d="M83.2188 66.1562H12.7812L14.3125 60.0312H81.6875L83.2188 66.1562Z" fill="white"/>
<path d="M6.65625 20.2188C9.19331 20.2188 11.25 18.1621 11.25 15.625C11.25 13.0879 9.19331 11.0312 6.65625 11.0312C4.11919 11.0312 2.0625 13.0879 2.0625 15.625C2.0625 18.1621 4.11919 20.2188 6.65625 20.2188Z" fill="white"/>
<path d="M48 11.0312C50.5371 11.0312 52.5938 8.97456 52.5938 6.4375C52.5938 3.90044 50.5371 1.84375 48 1.84375C45.4629 1.84375 43.4062 3.90044 43.4062 6.4375C43.4062 8.97456 45.4629 11.0312 48 11.0312Z" fill="white"/>
<path d="M89.3438 20.2188C91.8808 20.2188 93.9375 18.1621 93.9375 15.625C93.9375 13.0879 91.8808 11.0312 89.3438 11.0312C86.8067 11.0312 84.75 13.0879 84.75 15.625C84.75 18.1621 86.8067 20.2188 89.3438 20.2188Z" fill="white"/>
<path d="M89.3438 9.49995C87.7198 9.50147 86.1627 10.1473 85.0144 11.2956C83.8661 12.4439 83.2203 14.001 83.2188 15.6249C83.218 16.2195 83.305 16.811 83.4772 17.3801L63.2283 29.6148L52.387 10.7058C53.2277 9.843 53.7952 8.75146 54.0187 7.56775C54.2422 6.38403 54.1116 5.16071 53.6434 4.0508C53.1752 2.9409 52.3901 1.99371 51.3863 1.32772C50.3825 0.661732 49.2046 0.306519 48 0.306519C46.7954 0.306519 45.6175 0.661732 44.6137 1.32772C43.6099 1.99371 42.8248 2.9409 42.3566 4.0508C41.8884 5.16071 41.7578 6.38403 41.9813 7.56775C42.2048 8.75146 42.7723 9.843 43.613 10.7058L32.7717 29.6148L12.5229 17.3801C12.695 16.811 12.782 16.2195 12.7813 15.6249C12.7813 14.4262 12.4297 13.2539 11.7698 12.2531C11.11 11.2523 10.171 10.4672 9.06926 9.99492C7.9675 9.52268 6.75138 9.3841 5.57161 9.59638C4.39185 9.80865 3.3003 10.3624 2.43225 11.1891C1.56419 12.0158 0.957785 13.079 0.68818 14.247C0.418575 15.415 0.497623 16.6364 0.915527 17.7599C1.33343 18.8834 2.07182 19.8596 3.03919 20.5675C4.00655 21.2754 5.16037 21.6839 6.35766 21.7423L13.9718 58.5401C13.6961 58.6027 13.4432 58.7405 13.2411 58.9381C13.0391 59.1358 12.8958 59.3856 12.8272 59.6599L11.2959 65.7849C11.2395 66.0106 11.2353 66.2462 11.2835 66.4738C11.3318 66.7014 11.4313 66.9151 11.5745 67.0985C11.7177 67.2819 11.9008 67.4302 12.1099 67.5323C12.319 67.6343 12.5486 67.6874 12.7813 67.6874H83.2188C83.4514 67.6874 83.681 67.6343 83.8901 67.5323C84.0992 67.4302 84.2823 67.2819 84.4255 67.0985C84.5687 66.9151 84.6682 66.7014 84.7165 66.4738C84.7647 66.2462 84.7605 66.0106 84.7041 65.7849L83.1728 59.6599C83.1042 59.3856 82.9609 59.1358 82.7589 58.9381C82.5568 58.7405 82.3039 58.6027 82.0282 58.5401L89.6423 21.7423C91.2376 21.6625 92.7387 20.9626 93.8253 19.792C94.912 18.6213 95.4984 17.0724 95.4595 15.4756C95.4205 13.8788 94.7593 12.3603 93.6169 11.244C92.4744 10.1277 90.9411 9.5019 89.3438 9.49995ZM48 3.37495C48.6057 3.37495 49.1978 3.55456 49.7014 3.89108C50.2051 4.22759 50.5976 4.70588 50.8294 5.26548C51.0612 5.82508 51.1218 6.44085 51.0037 7.03491C50.8855 7.62898 50.5938 8.17467 50.1655 8.60296C49.7372 9.03126 49.1915 9.32294 48.5975 9.4411C48.0034 9.55927 47.3876 9.49862 46.828 9.26683C46.2684 9.03504 45.7901 8.64251 45.4536 8.13888C45.1171 7.63526 44.9375 7.04316 44.9375 6.43745C44.9386 5.62555 45.2616 4.84721 45.8357 4.27311C46.4098 3.69901 47.1881 3.37601 48 3.37495ZM7.28215 18.6224C7.28111 18.6222 7.28006 18.6224 7.27906 18.6227C7.27807 18.623 7.27716 18.6236 7.27641 18.6243C7.27318 18.6247 7.26999 18.6254 7.26684 18.6262C6.43578 18.8318 5.55709 18.6991 4.82379 18.2573C4.09049 17.8155 3.56254 17.1007 3.35592 16.2699C3.1493 15.4391 3.28089 14.5602 3.72181 13.8264C4.16272 13.0926 4.8769 12.5637 5.70745 12.3561C6.538 12.1485 7.41701 12.279 8.15139 12.719C8.88577 13.159 9.41546 13.8725 9.62411 14.7028C9.83276 15.5331 9.70331 16.4123 9.26419 17.1472C8.82507 17.8821 8.11219 18.4127 7.28215 18.6224ZM14.7432 64.6249L15.5088 61.5624H80.4912L81.2568 64.6249H14.7432ZM78.9102 58.4999H17.0898L9.35699 21.1202C9.93925 20.8328 10.4722 20.4549 10.9361 20.0005L32.5286 33.0467C32.7678 33.191 33.0418 33.2671 33.3211 33.2669C33.4509 33.2673 33.5803 33.2506 33.7058 33.2171C33.9033 33.1665 34.0885 33.0766 34.2506 32.953C34.4127 32.8294 34.5484 32.6745 34.6494 32.4974L46.2295 12.3002C47.3839 12.6499 48.6161 12.6499 49.7705 12.3002L61.3506 32.4974C61.4517 32.6745 61.5873 32.8294 61.7494 32.953C61.9115 33.0766 62.0967 33.1665 62.2942 33.2171C62.4197 33.2506 62.5491 33.2673 62.679 33.2669C62.9582 33.2671 63.2322 33.191 63.4714 33.0467L85.0639 20.0005C85.5278 20.4549 86.0608 20.8328 86.643 21.1202L78.9102 58.4999ZM89.3438 18.6874C89.1387 18.6876 88.9341 18.667 88.7332 18.6262C88.73 18.6254 88.7268 18.6247 88.7236 18.6243C88.7228 18.6236 88.7219 18.623 88.7209 18.6227C88.72 18.6224 88.7189 18.6222 88.7179 18.6224C87.9501 18.4615 87.2734 18.0119 86.8275 17.3665C86.3817 16.7211 86.2006 15.9291 86.3218 15.1541C86.443 14.3791 86.8571 13.6801 87.4787 13.2016C88.1003 12.7231 88.8819 12.5016 89.6622 12.5827C90.4424 12.6638 91.1617 13.0414 91.6716 13.6376C92.1814 14.2337 92.4429 15.0029 92.4021 15.7863C92.3612 16.5697 92.0211 17.3075 91.452 17.8473C90.8829 18.3872 90.1282 18.6879 89.3438 18.6874Z" fill="white"/>
</svg>
