<svg width="52" height="52" viewBox="0 0 52 52" fill="none" xmlns="http://www.w3.org/2000/svg">
<g clip-path="url(#clip0)">
<path d="M5.41663 22.75C2.431 22.75 0 25.181 0 28.1666V45.5C0 48.4856 2.431 50.9166 5.41663 50.9166H11.9166C13.1365 50.9166 14.2588 50.505 15.1666 49.8203V22.75H5.41663Z" fill="white"/>
<path d="M52 30.875C52 29.5729 51.4844 28.3595 50.5895 27.4646C51.6014 26.3575 52.117 24.8733 51.9761 23.3285C51.7226 20.5746 49.2418 18.4166 46.3255 18.4166H32.942C33.605 16.4038 34.6666 12.714 34.6666 9.75001C34.6666 5.05051 30.6735 1.08337 28.1666 1.08337C25.9155 1.08337 24.3078 2.35087 24.2385 2.40287C23.9829 2.60874 23.8334 2.92074 23.8334 3.25001V10.5971L17.5934 24.115L17.3334 24.2471V47.4695C19.097 48.3015 21.3286 48.75 22.75 48.75H42.6379C44.9974 48.75 47.0622 47.1596 47.5475 44.9649C47.7966 43.836 47.6515 42.6985 47.1554 41.7105C48.7565 40.9045 49.8334 39.2556 49.8334 37.375C49.8334 36.608 49.6579 35.8735 49.3242 35.2084C50.9254 34.4024 52 32.7535 52 30.875Z" fill="white"/>
</g>
<defs>
<clipPath id="clip0">
<rect width="52" height="52" fill="white"/>
</clipPath>
</defs>
</svg>
