<svg width="109" height="109" viewBox="0 0 109 109" fill="none" xmlns="http://www.w3.org/2000/svg">
<g clip-path="url(#clip0_1720_127)">
<path d="M14.2952 98.495C14.6285 98.8283 15.0815 99.0157 15.5528 99.0157C16.0249 99.0157 16.4771 98.8283 16.8104 98.495L60.5353 54.6008L62.3552 65.945C62.4767 66.7052 63.0747 67.3006 63.8358 67.4204C63.9261 67.4343 64.0181 67.4412 64.1092 67.4412C64.7792 67.4412 65.392 67.0645 65.6949 66.4674L73.8712 50.3421L91.7305 53.1367C92.4943 53.26 93.2511 52.8755 93.6 52.1847C93.9497 51.4947 93.8126 50.6572 93.2615 50.1147L80.4532 37.3568L88.6296 21.2315C88.9741 20.545 88.8388 19.7145 88.2928 19.1729C87.7478 18.6313 86.9155 18.502 86.2316 18.8518L70.1384 27.0915L57.3284 14.3266C56.7834 13.7833 55.9494 13.6532 55.2646 14.0038C54.579 14.3544 54.198 15.1069 54.3195 15.8671L57.1809 33.7195L41.0851 41.9584C40.3995 42.309 40.0176 43.0606 40.1391 43.8208C40.2606 44.5811 40.8577 45.1765 41.618 45.2962L52.9673 47.0737L9.24241 90.9765C8.5481 91.67 8.5481 92.7956 9.24241 93.4899L14.2952 98.495ZM55.6083 54.5019L53.0949 51.9885L57.3163 47.7506L59.4869 48.0908L59.8418 50.2588L55.6083 54.5019ZM47.5795 42.6301L59.9503 36.2954C60.636 35.9448 61.0178 35.1932 60.8963 34.4329L58.6936 20.7073L68.5407 30.517C69.0866 31.0621 69.9215 31.1922 70.608 30.8408L82.9805 24.5043L76.6936 36.9012C76.3455 37.5886 76.4783 38.4217 77.0242 38.965L86.873 48.7747L73.1387 46.6276C72.3776 46.5052 71.6251 46.8906 71.2797 47.5805L64.9927 59.9783L62.7909 46.2527C62.6694 45.4915 62.0714 44.8962 61.3103 44.7773L47.5795 42.6301ZM50.5867 54.5071L53.1001 57.0205L21.8172 88.4258L19.2986 85.9176L50.5867 54.5071ZM16.7895 88.4362L19.3081 90.9462L15.545 94.7232L13.0264 92.2133L16.7895 88.4362Z" fill="#0749AA"/>
<path d="M14.0677 0.501953C13.2979 0.501953 12.6157 0.998384 12.377 1.73088L10.2212 8.36586H3.24342C2.47274 8.36586 1.79058 8.86142 1.55278 9.59392C1.31411 10.3264 1.57535 11.1283 2.19762 11.5814L7.84668 15.6813L5.68739 22.3188C5.44872 23.0505 5.70995 23.8533 6.33309 24.3063C6.95623 24.7585 7.79982 24.7585 8.42296 24.3054L14.0677 20.2029L19.7124 24.3054C20.3356 24.7585 21.1791 24.7585 21.8023 24.3063C22.4254 23.8533 22.6867 23.0505 22.448 22.3188L20.2887 15.6813L25.9334 11.5814C26.5566 11.1283 26.8169 10.3273 26.58 9.59565C26.3431 8.86316 25.6618 8.36673 24.8919 8.36586H17.9142L15.7583 1.73088C15.5205 0.998384 14.8375 0.501953 14.0677 0.501953ZM19.4217 11.9207L17.1565 13.5645C16.5342 14.0175 16.2738 14.8195 16.5116 15.5519L17.3752 18.2181L15.1126 16.5717C14.4895 16.1187 13.6459 16.1187 13.0228 16.5717L10.7602 18.2181L11.6237 15.5519C11.8615 14.8195 11.6012 14.0175 10.9789 13.5645L8.7137 11.9207H11.5118C12.2824 11.9216 12.9655 11.4252 13.2041 10.6927L14.0677 8.03172L14.9312 10.6979C15.1716 11.4278 15.8529 11.9216 16.6219 11.9207H19.4217Z" fill="#7446AC"/>
<path d="M92.8311 89.5777C92.5933 88.8452 91.9111 88.3496 91.1405 88.3496H81.3238L78.2914 79.0129C78.0519 78.283 77.3714 77.79 76.6034 77.79C75.8353 77.79 75.154 78.283 74.9145 79.0129L71.8751 88.3496H62.0585C61.2887 88.3496 60.6056 88.8452 60.3678 89.5777C60.13 90.3102 60.3904 91.1121 61.0135 91.5651L68.9564 97.3357L65.9223 106.673C65.6845 107.405 65.9449 108.208 66.568 108.661C67.1911 109.113 68.0347 109.113 68.6579 108.66L76.6016 102.888L84.541 108.66C85.1642 109.113 86.0078 109.113 86.6309 108.661C87.2541 108.208 87.5144 107.405 87.2766 106.673L84.2442 97.3357L92.1863 91.5651C92.8085 91.1121 93.0689 90.3102 92.8311 89.5777ZM81.1112 95.2189C80.4872 95.6711 80.2259 96.4739 80.4637 97.2064L82.2056 102.569L77.6466 99.2537C77.0234 98.8007 76.1798 98.8007 75.5567 99.2537L70.9934 102.569L72.7369 97.2064C72.9756 96.4739 72.7152 95.6719 72.0921 95.2189L67.5296 91.9045H73.1674C73.9372 91.9045 74.6203 91.408 74.8581 90.6764L76.6016 85.3137L78.3417 90.6764C78.5795 91.408 79.2617 91.9045 80.0315 91.9045H85.6719L81.1112 95.2189Z" fill="#4A7AC1"/>
<path d="M12.2905 54.579C17.1984 54.579 21.1776 50.5997 21.1776 45.6918C21.1776 40.7831 17.1984 36.8047 12.2905 36.8047C7.38257 36.8047 3.40332 40.7831 3.40332 45.6918C3.4094 50.5971 7.38431 54.5729 12.2905 54.579ZM12.2905 40.3595C15.2352 40.3595 17.6228 42.7471 17.6228 45.6918C17.6228 48.6366 15.2352 51.0241 12.2905 51.0241C9.34573 51.0241 6.95818 48.6366 6.95818 45.6918C6.95818 42.7471 9.34573 40.3595 12.2905 40.3595Z" fill="#7446AC"/>
<path d="M101.162 67.0208C101.162 63.0937 97.9784 59.9111 94.0521 59.9111C90.1258 59.9111 86.9424 63.0937 86.9424 67.0208C86.9424 70.9472 90.1258 74.1306 94.0521 74.1306C97.9784 74.1306 101.162 70.9472 101.162 67.0208ZM90.4972 67.0208C90.4972 65.0577 92.0889 63.466 94.0521 63.466C96.0153 63.466 97.607 65.0577 97.607 67.0208C97.607 68.984 96.0153 70.5757 94.0521 70.5757C92.0889 70.5757 90.4972 68.984 90.4972 67.0208Z" fill="#4A7AC1"/>
<path d="M69.168 1.25586H72.7228V11.9204H69.168V1.25586Z" fill="#FFA412"/>
<path d="M94.5718 10.6646L105.236 0L107.75 2.5134L97.0852 13.178L94.5718 10.6646Z" fill="#FFA412"/>
<path d="M95.8296 35.0273H106.494V38.5822H95.8296V35.0273Z" fill="#FFA412"/>
</g>
<defs>
<clipPath id="clip0_1720_127">
<rect width="109" height="109" fill="white"/>
</clipPath>
</defs>
</svg>
