<svg width="109" height="109" viewBox="0 0 109 109" fill="none" xmlns="http://www.w3.org/2000/svg">
<g clip-path="url(#clip0_1720_110)">
<path d="M107.403 95.5668H100.467V37.434C100.467 33.7306 97.4543 30.7178 93.7509 30.7178H73.2729C72.3911 30.7178 71.6762 31.4327 71.6762 32.3145C71.6762 33.1962 72.3911 33.9111 73.2729 33.9111H93.7509C95.6935 33.9111 97.2738 35.4916 97.2738 37.434V95.567H91.8087C91.891 94.9641 91.9343 94.3574 91.9343 93.7507C91.9343 86.2833 85.859 80.208 78.3917 80.208C77.3877 80.208 76.3852 80.3228 75.3969 80.5499C73.6742 77.2306 70.2426 75.0882 66.4459 75.0882C65.2073 75.0882 64.0043 75.3141 62.8717 75.7529C62.4065 71.5453 58.8296 68.2619 54.5 68.2619C50.1704 68.2619 46.5935 71.5453 46.1283 75.7529C44.9957 75.3141 43.7927 75.0882 42.5541 75.0882C38.7574 75.0882 35.3256 77.2306 33.6031 80.5499C32.6146 80.3226 31.6123 80.208 30.6083 80.208C23.1408 80.208 17.0657 86.2833 17.0657 93.7507C17.0657 94.3576 17.109 94.9641 17.1913 95.567H11.7262V37.434C11.7262 35.4914 13.3065 33.9111 15.2491 33.9111H35.7277C36.6095 33.9111 37.3244 33.1962 37.3244 32.3145C37.3244 31.4327 36.6095 30.7178 35.7277 30.7178H15.2491C11.5457 30.7178 8.53287 33.7308 8.53287 37.434V95.567H1.59668C0.714887 95.567 0 96.2819 0 97.1637V100.577C0 103.339 2.24749 105.587 5.00974 105.587H103.99C106.753 105.587 109 103.339 109 100.577V97.1637C109 96.2817 108.285 95.5668 107.403 95.5668V95.5668ZM105.807 100.577C105.807 101.578 104.992 102.393 103.99 102.393H5.00974C4.00809 102.393 3.19336 101.578 3.19336 100.577V98.7604H23.7814C24.6632 98.7604 25.3781 98.0455 25.3781 97.1637C25.3781 96.2819 24.6632 95.567 23.7814 95.567H20.4224C20.314 94.9652 20.2589 94.3576 20.2589 93.7507C20.2589 88.0441 24.9016 83.4014 30.6081 83.4014C31.7448 83.4014 32.8829 83.596 33.991 83.9796C34.3923 84.1186 34.8321 84.092 35.2138 83.906C35.5953 83.7197 35.887 83.3893 36.0245 82.9875C36.987 80.1729 39.6111 78.2818 42.5543 78.2818C44.1682 78.2818 45.701 78.853 46.9873 79.9338C47.5304 80.3901 48.3091 80.4335 48.8995 80.0403C49.4898 79.6471 49.75 78.9118 49.5384 78.235C49.3557 77.6504 49.2706 77.158 49.2706 76.6851C49.2706 73.8015 51.6166 71.4557 54.5 71.4557C57.3834 71.4557 59.7294 73.8017 59.7294 76.6851C59.7294 77.158 59.6443 77.6504 59.4616 78.235C59.25 78.912 59.5104 79.6473 60.1005 80.0403C60.6909 80.4333 61.4696 80.3901 62.0127 79.9338C63.299 78.8532 64.832 78.2818 66.4457 78.2818C69.3889 78.2818 72.013 80.1729 72.9755 82.9875C73.113 83.3893 73.4047 83.7197 73.7862 83.906C74.1679 84.0922 74.6079 84.1188 75.009 83.9796C76.1171 83.596 77.255 83.4014 78.3919 83.4014C84.0986 83.4014 88.7411 88.0441 88.7411 93.7507C88.7411 94.3576 88.6858 94.9652 88.5776 95.567H30.6088C29.727 95.567 29.0121 96.2819 29.0121 97.1637C29.0121 98.0455 29.727 98.7604 30.6088 98.7604H105.807V100.577Z" fill="#0749AA"/>
<path d="M33.9815 50.3473C32.9777 51.5518 32.4248 53.0789 32.4248 54.647V59.6197C32.4248 60.1873 32.7263 60.7123 33.2163 60.9986C33.465 61.1438 33.7432 61.2164 34.0215 61.2164C34.2921 61.2164 34.5627 61.1478 34.8062 61.0103L46.1767 54.5944C46.6099 55.3855 47.0693 56.1639 47.5545 56.9279L46.1252 62.6455C46.0057 63.1226 46.113 63.6278 46.4155 64.0155C46.7181 64.4032 47.1824 64.6297 47.6742 64.6297H61.3266C61.8184 64.6297 62.2825 64.4032 62.5852 64.0155C62.8878 63.628 62.9951 63.1226 62.8756 62.6455L61.4463 56.9279C61.9314 56.1639 62.3909 55.3857 62.8241 54.5944L74.1946 61.0103C74.4384 61.1478 74.7087 61.2164 74.9793 61.2164C75.2576 61.2164 75.5358 61.1436 75.7845 60.9986C76.2745 60.7125 76.576 60.1875 76.576 59.6197V54.647C76.576 53.0789 76.0231 51.5518 75.0193 50.3473L67.4396 41.2545C67.8387 38.8827 68.0431 36.4645 68.0431 34.0213C68.0431 28.1986 66.9159 22.5702 64.6926 17.2928C62.5484 12.203 59.4962 7.68761 55.6207 3.87197C54.9993 3.26012 54.0019 3.26012 53.3805 3.87197C49.505 7.6874 46.4528 12.2028 44.3086 17.2928C42.0854 22.5704 40.9581 28.1986 40.9581 34.0213C40.9581 36.4606 41.1618 38.8752 41.5597 41.2434L33.9815 50.3473ZM35.6182 56.8853V54.647C35.6182 53.8244 35.9081 53.0235 36.4346 52.3917L42.4194 45.21C43.0174 47.4471 43.7947 49.6288 44.7476 51.7342L35.6182 56.8853ZM49.719 61.4361L50.6272 57.8033H58.3732L59.2814 61.4361H49.719ZM72.5655 52.3917C73.092 53.0235 73.382 53.8244 73.382 54.647V56.8853L64.2526 51.734C65.2053 49.6285 65.9828 47.4471 66.5808 45.2098L72.5655 52.3917ZM54.5001 7.29994C57.1814 10.1823 59.3929 13.4872 61.0737 17.0657H47.9264C49.6072 13.4872 51.8187 10.1823 54.5001 7.29994ZM46.5959 20.2588H62.4041C64.0005 24.6113 64.8491 29.2777 64.8491 34.0211C64.8491 41.3633 62.8739 48.4621 59.1283 54.6098H49.8716C46.126 48.4621 44.1508 41.3633 44.1508 34.0211C44.1508 29.2777 44.9996 24.6116 46.5959 20.2588V20.2588Z" fill="#FFA412"/>
<path d="M61.2162 32.3149C61.2162 28.6115 58.2034 25.5986 54.5 25.5986C50.7965 25.5986 47.7837 28.6117 47.7837 32.3149C47.7837 36.0181 50.7965 39.0312 54.5 39.0312C58.2034 39.0312 61.2162 36.0184 61.2162 32.3149ZM50.9771 32.3149C50.9771 30.3723 52.5573 28.792 54.5 28.792C56.4426 28.792 58.0229 30.3725 58.0229 32.3149C58.0229 34.2573 56.4426 35.8378 54.5 35.8378C52.5573 35.8378 50.9771 34.2575 50.9771 32.3149Z" fill="#FFA412"/>
</g>
<defs>
<clipPath id="clip0_1720_110">
<rect width="109" height="109" fill="white"/>
</clipPath>
</defs>
</svg>
