<svg width="200" height="66" viewBox="0 0 200 66" fill="none" xmlns="http://www.w3.org/2000/svg">
<rect x="1.5" y="1.5" width="197" height="63" rx="31.5" fill="white" stroke="#0749AA" stroke-width="3"/>
<path d="M168.498 44.7998C168.099 44.7998 167.716 44.6421 167.435 44.3594L161.422 38.3469C160.845 37.7503 160.862 36.7985 161.46 36.2215C162.043 35.6592 162.966 35.6592 163.548 36.2215L169.56 42.234C170.147 42.8216 170.147 43.7731 169.56 44.3594C169.278 44.6421 168.896 44.7998 168.498 44.7998Z" fill="#4CAF50"/>
<path d="M156 41.7998C149.925 41.7998 145 37.0988 145 31.2998C145 25.5008 149.925 20.7998 156 20.7998C162.075 20.7998 167 25.5008 167 31.2998C166.994 37.0959 162.072 41.794 156 41.7998ZM156 23.7999C151.661 23.7999 148.143 27.1583 148.143 31.2998C148.143 35.4413 151.661 38.7997 156 38.7997C160.339 38.7997 163.857 35.4413 163.857 31.2998C163.852 27.1599 160.337 23.8044 156 23.7999Z" fill="#4CAF50"/>
<path d="M41.7188 39.4404C43 39.4404 43.651 38.6071 43.6719 36.9404H47.8281C47.8073 38.7842 47.2396 40.2738 46.125 41.4092C45.0104 42.5446 43.5729 43.1123 41.8125 43.1123C39.6354 43.1123 37.974 42.4352 36.8281 41.0811C35.6823 39.7269 35.099 37.7321 35.0781 35.0967V33.7529C35.0781 31.0967 35.6406 29.0706 36.7656 27.6748C37.901 26.279 39.5729 25.5811 41.7812 25.5811C43.6458 25.5811 45.1146 26.1592 46.1875 27.3154C47.2604 28.4613 47.8073 30.0915 47.8281 32.2061H43.6719C43.6615 31.2581 43.5052 30.529 43.2031 30.0186C42.901 29.5081 42.401 29.2529 41.7031 29.2529C40.9323 29.2529 40.3802 29.529 40.0469 30.0811C39.7135 30.6227 39.5365 31.68 39.5156 33.2529V34.9717C39.5156 36.3467 39.5833 37.3102 39.7188 37.8623C39.8542 38.404 40.0781 38.805 40.3906 39.0654C40.7031 39.3154 41.1458 39.4404 41.7188 39.4404ZM62.6406 35.3779L64.1562 25.8936H68.3906L64.8906 42.7998H61.2188L58.8281 33.0186L56.4375 42.7998H52.75L49.25 25.8936H53.5L55 35.3936L57.25 25.8936H60.3906L62.6406 35.3779ZM77.4062 43.1123C75.1354 43.1123 73.3646 42.4352 72.0938 41.0811C70.8229 39.7269 70.1875 37.7894 70.1875 35.2686V33.9248C70.1875 31.2581 70.7708 29.2008 71.9375 27.7529C73.1042 26.305 74.776 25.5811 76.9531 25.5811C79.0781 25.5811 80.6771 26.2633 81.75 27.6279C82.8229 28.9821 83.3698 30.9925 83.3906 33.6592V35.8311H74.5938C74.6562 37.0811 74.9323 37.9977 75.4219 38.5811C75.9115 39.154 76.6667 39.4404 77.6875 39.4404C79.1667 39.4404 80.401 38.9352 81.3906 37.9248L83.125 40.5967C82.5833 41.3467 81.7969 41.9561 80.7656 42.4248C79.7344 42.8831 78.6146 43.1123 77.4062 43.1123ZM74.625 32.7373H79.0469V32.3311C79.026 31.3206 78.8594 30.555 78.5469 30.0342C78.2344 29.5133 77.6927 29.2529 76.9219 29.2529C76.151 29.2529 75.5885 29.529 75.2344 30.0811C74.8906 30.6331 74.6875 31.5186 74.625 32.7373Z" fill="#0749AA"/>
</svg>
