<svg width="19" height="19" viewBox="0 0 19 19" xmlns="http://www.w3.org/2000/svg">
	<g clip-path="url(#clip0_1116_1115)">
		<path
			d="M18.884 18.3243L13.1029 12.5432C14.3037 11.2099 15.0417 9.45209 15.0417 7.52081C15.0417 3.37387 11.6678 0 7.52085 0C3.37387 0 0 3.37387 0 7.52085C0 11.6678 3.37387 15.0417 7.52085 15.0417C9.45213 15.0417 11.2099 14.3037 12.5432 13.1029L18.3243 18.884C18.4016 18.9613 18.5029 19 18.6042 19C18.7055 19 18.8067 18.9613 18.8841 18.884C19.0387 18.7294 19.0387 18.4789 18.884 18.3243ZM7.52085 14.25C3.81069 14.25 0.791691 11.2314 0.791691 7.52085C0.791691 3.81032 3.81069 0.791654 7.52085 0.791654C11.231 0.791654 14.25 3.81028 14.25 7.52085C14.25 11.2314 11.231 14.25 7.52085 14.25Z"
			fill="#333333" />
	</g>
	<defs>
		<clipPath id="clip0_1116_1115">
			<rect width="19" height="19" fill="white" />
		</clipPath>
	</defs>
</svg>