<svg width="39" height="39" viewBox="0 0 39 39" fill="none" xmlns="http://www.w3.org/2000/svg">
<path d="M15.4922 30.3906L13.9547 35.5156H25.0453L23.5078 30.3906H15.4922Z" fill="#0749AA"/>
<path d="M7.32812 6.04688H12.4531V7.32812H7.32812V6.04688Z" fill="#0749AA"/>
<path d="M23.9844 8.60938H0.921875V22.7031H38.0781V6.04688H26.5469C26.5469 6.72649 26.2769 7.37827 25.7963 7.85884C25.3158 8.3394 24.664 8.60938 23.9844 8.60938ZM18.2188 20.7812H2.84375V10.5312H18.2188V20.7812ZM25.9062 20.7812H20.7812V16.9375H25.9062V20.7812ZM25.9062 14.375H20.7812V10.5312H25.9062V14.375ZM36.7969 20.7812H35.5156V19.5H36.7969V20.7812ZM36.7969 14.375H35.5156V13.0938H36.7969V14.375ZM27.8281 10.5312H36.7969V11.8125H27.8281V10.5312ZM27.8281 13.0938H34.2344V14.375H27.8281V13.0938ZM27.8281 16.9375H36.7969V18.2188H27.8281V16.9375ZM27.8281 19.5H34.2344V20.7812H27.8281V19.5Z" fill="#0749AA"/>
<path d="M6.04688 7.32812V6.04688H0.921875V7.34286C1.42861 7.32812 2.12945 7.32812 3.11986 7.32812H6.04688Z" fill="#0749AA"/>
<path d="M11.8125 36.7969H27.1875V38.0781H11.8125V36.7969Z" fill="#0749AA"/>
<path d="M0.921875 27.1875C0.921875 27.6972 1.12436 28.186 1.48478 28.5465C1.8452 28.9069 2.33404 29.1094 2.84375 29.1094H36.1562C36.666 29.1094 37.1548 28.9069 37.5152 28.5465C37.8756 28.186 38.0781 27.6972 38.0781 27.1875V23.9844H0.921875V27.1875ZM19.5 25.2656C19.7534 25.2656 20.0011 25.3408 20.2118 25.4816C20.4225 25.6223 20.5867 25.8224 20.6837 26.0566C20.7807 26.2907 20.8061 26.5483 20.7566 26.7968C20.7072 27.0454 20.5852 27.2737 20.406 27.4529C20.2268 27.632 19.9985 27.7541 19.75 27.8035C19.5014 27.8529 19.2438 27.8276 19.0097 27.7306C18.7756 27.6336 18.5755 27.4694 18.4347 27.2587C18.2939 27.048 18.2188 26.8003 18.2188 26.5469C18.2188 26.2071 18.3537 25.8812 18.594 25.6409C18.8343 25.4006 19.1602 25.2656 19.5 25.2656Z" fill="#0749AA"/>
<path d="M25.2656 6.04688H20.1406V7.32812H23.9844C24.3242 7.32812 24.6501 7.19314 24.8904 6.95286C25.1306 6.71257 25.2656 6.38668 25.2656 6.04688Z" fill="#0749AA"/>
<path d="M36.1562 0.921875H2.84375C2.33404 0.921875 1.8452 1.12436 1.48478 1.48478C1.12436 1.8452 0.921875 2.33404 0.921875 2.84375V4.76562H38.0781V2.84375C38.0781 2.33404 37.8756 1.8452 37.5152 1.48478C37.1548 1.12436 36.666 0.921875 36.1562 0.921875ZM31.6719 3.48438H30.3906V2.20312H31.6719V3.48438ZM34.2344 3.48438H32.9531V2.20312H34.2344V3.48438ZM36.7969 3.48438H35.5156V2.20312H36.7969V3.48438Z" fill="#0749AA"/>
<path d="M13.7344 6.04688H18.8594V7.32812H13.7344V6.04688Z" fill="#0749AA"/>
<path d="M8.60938 13.0938V18.2188L12.4531 15.6562L8.60938 13.0938Z" fill="#0749AA"/>
</svg>
