<svg width="35" height="41" viewBox="0 0 35 41" fill="none" xmlns="http://www.w3.org/2000/svg">
<path d="M33.8591 21.1861C33.6611 20.2859 33.2221 19.531 32.5436 18.9211C31.8645 18.3112 31.083 17.9527 30.198 17.8458C27.3916 17.5408 23.1591 17.3884 17.4998 17.3884C11.8407 17.3884 7.6157 17.5409 4.8243 17.8458C3.92461 17.9527 3.13911 18.3112 2.46773 18.9211C1.79651 19.5313 1.35415 20.2862 1.14051 21.1861C0.743992 22.9557 0.545654 25.6249 0.545654 29.1942C0.545654 32.8243 0.743992 35.4937 1.14051 37.2022C1.33909 38.1018 1.77767 38.8573 2.45643 39.467C3.13519 40.0771 3.91692 40.4279 4.80146 40.5195C7.60832 40.8398 11.8412 41 17.5 41C23.1583 41 27.392 40.8398 30.1978 40.5195C31.0828 40.4279 31.8605 40.0771 32.5319 39.467C33.2032 38.8574 33.6456 38.1018 33.859 37.2022C34.2555 35.4326 34.4541 32.7634 34.4541 29.1942C34.454 25.564 34.2554 22.8945 33.8591 21.1861ZM10.2245 23.4974H7.77645V36.5155H5.48863V23.4974H3.08614V21.3468H10.2246V23.4974H10.2245ZM16.4019 36.5155H14.3656V35.2798C13.542 36.2105 12.7637 36.6757 12.0316 36.6757C11.3301 36.6757 10.8877 36.3933 10.7049 35.8291C10.583 35.463 10.5217 34.906 10.5217 34.1587V25.213H12.558V33.5411C12.558 34.029 12.5656 34.2961 12.581 34.3419C12.6268 34.6622 12.7868 34.8223 13.0615 34.8223C13.4733 34.8223 13.9083 34.502 14.3657 33.8614V25.213H16.4019V36.5155H16.4019ZM24.181 33.1292C24.181 34.2426 24.1124 35.0058 23.9758 35.4178C23.7158 36.2561 23.1748 36.6757 22.3512 36.6757C21.619 36.6757 20.9099 36.2561 20.2231 35.4178V36.5158H18.1871V21.3468H20.2231V26.3116C20.8793 25.4884 21.5883 25.0765 22.3512 25.0765C23.1748 25.0765 23.7158 25.5037 23.9758 26.3577C24.1124 26.7542 24.181 27.5092 24.181 28.6227V33.1292ZM31.9143 31.2534H27.819V33.2439C27.819 34.2964 28.1695 34.8223 28.8713 34.8223C29.3744 34.8223 29.6798 34.5481 29.7864 33.9985C29.8166 33.8461 29.8322 33.381 29.8322 32.6032H31.9142V32.9005C31.9142 33.6481 31.8986 34.0902 31.8684 34.2278C31.8229 34.6392 31.6632 35.0511 31.388 35.463C30.8389 36.2715 30.0145 36.6757 28.9165 36.6757C27.8645 36.6757 27.0407 36.2866 26.4456 35.509C26.0035 34.9446 25.7825 34.0599 25.7825 32.8549V28.8965C25.7825 27.6916 25.9958 26.8069 26.4225 26.2425C27.0177 25.4647 27.8337 25.0758 28.8713 25.0758C29.8934 25.0758 30.7024 25.4647 31.2964 26.2425C31.7088 26.8069 31.9143 27.6916 31.9143 28.8965V31.2534Z" fill="#0749AA"/>
<path d="M21.252 26.9294C20.9011 26.9294 20.5582 27.0978 20.2225 27.4329V34.3194C20.5581 34.6548 20.9011 34.8226 21.252 34.8226C21.8466 34.8226 22.1448 34.3119 22.1448 33.2896V28.4625C22.1447 27.4403 21.8472 26.9294 21.252 26.9294Z" fill="#0749AA"/>
<path d="M28.8484 26.9294C28.1621 26.9294 27.8189 27.4483 27.8189 28.4849V29.5374H29.8779V28.4849C29.8779 27.4478 29.5346 26.9294 28.8484 26.9294Z" fill="#0749AA"/>
<path d="M8.89813 9.12891V15.3295H11.1859V9.12891L13.9539 0H11.6203L10.0648 6.01737L8.44023 0H6.01514C6.44226 1.28138 6.93799 2.70741 7.50239 4.27857C8.21937 6.38335 8.68433 8.00043 8.89813 9.12891Z" fill="#0749AA"/>
<path d="M17.0197 15.4897C18.0722 15.4897 18.8804 15.1008 19.4448 14.3229C19.8721 13.7585 20.0854 12.8585 20.0854 11.6232V7.61905C20.0854 6.39898 19.8715 5.50642 19.4448 4.94201C18.8804 4.16413 18.0722 3.77515 17.0197 3.77515C15.9975 3.77515 15.1966 4.16413 14.6172 4.94201C14.1903 5.50642 13.9767 6.39898 13.9767 7.61905V11.6231C13.9767 12.8432 14.1901 13.7432 14.6172 14.3228C15.1968 15.1008 15.9974 15.4897 17.0197 15.4897ZM16.0357 7.20715C16.0357 6.15464 16.3637 5.62838 17.0197 5.62838C17.6757 5.62838 18.0034 6.15464 18.0034 7.20715V12.0117C18.0034 13.0798 17.6757 13.6133 17.0197 13.6133C16.3637 13.6133 16.0357 13.0795 16.0357 12.0117V7.20715Z" fill="#0749AA"/>
<path d="M23.3111 15.4896C24.0742 15.4896 24.86 15.0167 25.6681 14.0708V15.3292H27.7502V3.91235H25.6681V12.6294C25.2104 13.2854 24.776 13.613 24.3636 13.613C24.0888 13.613 23.9286 13.4453 23.8831 13.1098C23.8678 13.0792 23.8601 12.8121 23.8601 12.3089V3.91235H21.7781V12.9271C21.7781 13.7048 21.8395 14.2766 21.9613 14.6429C22.1598 15.2073 22.6096 15.4896 23.3111 15.4896Z" fill="#0749AA"/>
</svg>
