<?xml version="1.0" encoding="iso-8859-1"?><!DOCTYPE svg PUBLIC "-//W3C//DTD SVG 1.1//EN" "http://www.w3.org/Graphics/SVG/1.1/DTD/svg11.dtd"><svg viewBox="0 0 2000 2000" xmlns="http://www.w3.org/2000/svg" xmlns:xlink="http://www.w3.org/1999/xlink"><style>:root>svg{display:none}:root>svg:target{display:block}</style><svg viewBox="0 0 242.667 242.667" id="behance-ic" xmlns="http://www.w3.org/2000/svg"><path d="M102.198 137.025v6.559c0 7.075-5.736 12.811-12.811 12.811H60.395V125.38h30.157c6.432-.001 11.646 5.213 11.646 11.645zm-4.781-37.206v-4.904a9.01 9.01 0 00-9.01-9.01H60.395v22.924h28.012a9.01 9.01 0 009.01-9.01zM242.667 0v242.667H0V0h242.667zm-97.705 85.537h43.274V73.768h-43.274v11.769zm-20.513 53.449c0-18.879-16.672-24.763-16.672-24.763s13.485-3.351 13.485-21.138c0-18.458-12.504-27.163-29.667-27.163H38.146v110.822h50.262s12.749 0 22.066-6.865c9.316-6.865 13.975-15.691 13.975-30.893zM170.28 92.77c-39.13 0-41.436 33.222-41.436 44.991s6.865 38.248 37.697 38.248c28.709 0 34.264-13.608 35.98-18.389 1.716-4.781 1.226-8.826 1.226-8.826h-18.143s1.471 9.93-17.101 9.93c-18.573 0-17.714-17.408-17.714-17.408h53.449s5.697-48.546-33.958-48.546zm-1.144 16.182c-16.427 0-17.653 16.059-17.653 16.059h33.467s.613-16.059-15.814-16.059z"/></svg><svg viewBox="0 0 16 16" id="clock-ic" xmlns="http://www.w3.org/2000/svg"><path d="M10.85 9.413L8.62 7.74V4.332a.62.62 0 10-1.24 0V8.05c0 .195.092.379.248.495l2.479 1.86a.616.616 0 00.867-.125.618.618 0 00-.123-.867z" fill="inherit"/><path d="M8 0C3.589 0 0 3.589 0 8c0 4.412 3.589 8 8 8 4.412 0 8-3.588 8-8 0-4.411-3.588-8-8-8zm0 14.76A6.769 6.769 0 011.24 8 6.769 6.769 0 018 1.24 6.769 6.769 0 0114.76 8 6.77 6.77 0 018 14.76z" fill="inherit"/></svg><svg fill="none" viewBox="0 0 33 33" id="insta-ic" xmlns="http://www.w3.org/2000/svg"><g clip-path="url(#cclip0_45_316)"><path d="M32.199 9.545c-.079-1.729-.352-2.91-.751-3.942a7.966 7.966 0 00-1.863-2.877 7.913 7.913 0 00-2.86-1.874c-1.027-.401-2.2-.675-3.92-.754C21.083.018 20.534 0 16.148 0c-4.386 0-4.936.019-6.658.098C7.771.177 6.598.45 5.57.853a7.91 7.91 0 00-2.86 1.873A7.966 7.966 0 00.847 5.602C.448 6.635.176 7.816.097 9.545.02 11.277 0 11.83 0 16.24c0 4.411.019 4.965.098 6.697.078 1.728.35 2.909.75 3.942a7.963 7.963 0 001.863 2.876 7.907 7.907 0 002.86 1.873c1.027.402 2.2.676 3.92.755 1.722.08 2.272.098 6.657.098 4.386 0 4.936-.019 6.658-.098 1.719-.079 2.892-.353 3.92-.755a8.28 8.28 0 004.722-4.75c.4-1.032.672-2.213.75-3.941.079-1.733.098-2.286.098-6.696 0-4.411-.019-4.964-.097-6.696zm-2.907 13.258c-.072 1.584-.335 2.444-.556 3.016a5.363 5.363 0 01-3.065 3.082c-.569.223-1.424.487-2.998.56-1.702.078-2.213.094-6.525.094s-4.823-.016-6.525-.095c-1.575-.072-2.43-.336-2.999-.559a5 5 0 01-1.856-1.215 5.034 5.034 0 01-1.209-1.867c-.22-.572-.484-1.432-.555-3.015-.078-1.713-.095-2.227-.095-6.563 0-4.337.017-4.85.095-6.563.072-1.583.334-2.443.555-3.016a5.038 5.038 0 011.209-1.867A4.997 4.997 0 016.624 3.58c.57-.222 1.424-.487 2.999-.56 1.702-.077 2.213-.094 6.525-.094 4.311 0 4.822.017 6.525.095 1.574.072 2.43.337 2.998.56.702.26 1.336.675 1.857 1.214.536.524.95 1.162 1.208 1.867.221.573.484 1.433.556 3.016.077 1.712.094 2.226.094 6.563 0 4.336-.016 4.85-.094 6.563z" fill="url(#cpaint0_linear_45_316)"/><path d="M16.148 7.9c-4.58 0-8.292 3.735-8.292 8.34 0 4.607 3.712 8.34 8.292 8.34s8.292-3.733 8.292-8.34c0-4.605-3.713-8.34-8.292-8.34zm0 13.754c-2.973 0-5.383-2.424-5.383-5.413 0-2.99 2.41-5.414 5.383-5.414s5.382 2.424 5.382 5.414c0 2.99-2.41 5.413-5.382 5.413z" fill="url(#cpaint1_linear_45_316)"/><path d="M26.705 7.572a1.943 1.943 0 01-1.937 1.948 1.943 1.943 0 01-1.938-1.948c0-1.077.867-1.95 1.938-1.95 1.07 0 1.937.873 1.937 1.95z" fill="url(#cpaint2_linear_45_316)"/></g><defs><linearGradient id="cpaint0_linear_45_316" x1="2.71" y1="29.755" x2="29.739" y2="2.88" gradientUnits="userSpaceOnUse"><stop stop-color="#FFD600"/><stop offset=".5" stop-color="#FF0100"/><stop offset="1" stop-color="#D800B9"/></linearGradient><linearGradient id="cpaint1_linear_45_316" x1="10.284" y1="22.138" x2="22.078" y2="10.411" gradientUnits="userSpaceOnUse"><stop stop-color="#FF6400"/><stop offset=".5" stop-color="#FF0100"/><stop offset="1" stop-color="#FD0056"/></linearGradient><linearGradient id="cpaint2_linear_45_316" x1="23.397" y1="8.95" x2="26.153" y2="6.209" gradientUnits="userSpaceOnUse"><stop stop-color="#F30072"/><stop offset="1" stop-color="#E50097"/></linearGradient><clipPath id="cclip0_45_316"><path fill="#fff" d="M0 0h32.296v32.481H0z"/></clipPath></defs></svg><svg viewBox="0 0 382 382" id="linkedin-ic" xmlns="http://www.w3.org/2000/svg"><path d="M347.445 0H34.555C15.471 0 0 15.471 0 34.555v312.889C0 366.529 15.471 382 34.555 382h312.889C366.529 382 382 366.529 382 347.444V34.555C382 15.471 366.529 0 347.445 0zM118.207 329.844c0 5.554-4.502 10.056-10.056 10.056H65.345c-5.554 0-10.056-4.502-10.056-10.056V150.403c0-5.554 4.502-10.056 10.056-10.056h42.806c5.554 0 10.056 4.502 10.056 10.056v179.441zM86.748 123.432c-22.459 0-40.666-18.207-40.666-40.666S64.289 42.1 86.748 42.1s40.666 18.207 40.666 40.666-18.206 40.666-40.666 40.666zM341.91 330.654a9.247 9.247 0 01-9.246 9.246H286.73a9.247 9.247 0 01-9.246-9.246v-84.168c0-12.556 3.683-55.021-32.813-55.021-28.309 0-34.051 29.066-35.204 42.11v97.079a9.246 9.246 0 01-9.246 9.246h-44.426a9.247 9.247 0 01-9.246-9.246V149.593a9.247 9.247 0 019.246-9.246h44.426a9.247 9.247 0 019.246 9.246v15.655c10.497-15.753 26.097-27.912 59.312-27.912 73.552 0 73.131 68.716 73.131 106.472v86.846z" fill="#0077b7"/></svg><svg viewBox="0 0 12 16" id="loc-ic"><path d="M6 0A5.801 5.801 0 00.205 5.795c0 3.965 5.186 9.786 5.407 10.032.207.23.57.23.776 0 .221-.246 5.407-6.067 5.407-10.032C11.795 2.599 9.195 0 6 0zm0 14.679c-1.745-2.073-4.751-6.163-4.751-8.884A4.756 4.756 0 016 1.043a4.756 4.756 0 014.751 4.752c0 2.721-3.005 6.81-4.751 8.884z" fill="#696969"/><path d="M6 2.88a2.919 2.919 0 00-2.915 2.915A2.919 2.919 0 006 8.71a2.919 2.919 0 002.915-2.915A2.919 2.919 0 006 2.879zm0 4.786a1.874 1.874 0 01-1.872-1.871c0-1.033.84-1.872 1.872-1.872s1.872.84 1.872 1.872S7.032 7.666 6 7.666z" fill="inherit"/></svg><svg viewBox="0 0 16 12" id="mail-ic" xmlns="http://www.w3.org/2000/svg"><path d="M14.594.375H1.406C.63.375 0 1.008 0 1.781v8.438c0 .777.634 1.406 1.406 1.406h13.188c.77 0 1.406-.626 1.406-1.406V1.78c0-.771-.627-1.406-1.406-1.406zm-.197.938L8.994 6.686A1.397 1.397 0 018 7.098c-.376 0-.729-.146-.995-.412L1.603 1.313h12.794zM.937 10.027V1.973l4.052 4.03-4.051 4.025zm.667.66l4.05-4.024.689.685A2.328 2.328 0 008 8.036c.626 0 1.215-.244 1.656-.686l.69-.686 4.05 4.024H1.604zm13.458-.66l-4.05-4.026 4.05-4.03v8.056z" fill="inherit"/></svg><svg viewBox="0 0 18 18" id="menu-drop-arr"><path d="M9 0C4.037 0 0 4.037 0 9s4.037 9 9 9 9-4.037 9-9-4.037-9-9-9zm2.78 9.53l-3.75 3.75a.748.748 0 01-1.06 0 .75.75 0 010-1.06L10.19 9 6.97 5.78a.75.75 0 111.06-1.06l3.75 3.75a.75.75 0 010 1.06z" fill="inherit"/></svg><svg fill="none" viewBox="0 0 28 28" id="telegram-ic" xmlns="http://www.w3.org/2000/svg"><path d="M14 28c7.732 0 14-6.268 14-14S21.732 0 14 0 0 6.268 0 14s6.268 14 14 14z" fill="#039BE5"/><path d="M6.406 13.697l13.498-5.205c.627-.226 1.174.153.971 1.1h.001l-2.298 10.827c-.17.768-.627.954-1.265.593l-3.5-2.58-1.688 1.627c-.187.186-.344.344-.706.344l.249-3.562 6.486-5.86c.283-.249-.063-.389-.435-.142l-8.016 5.047-3.455-1.077c-.75-.239-.767-.75.158-1.112z" fill="#fff"/></svg><svg viewBox="0 0 250 250" id="tiktok-ic" xmlns="http://www.w3.org/2000/svg"><g clip-rule="evenodd" fill-rule="evenodd"><path d="M25 0h200c13.808 0 25 11.192 25 25v200c0 13.808-11.192 25-25 25H25c-13.808 0-25-11.192-25-25V25C0 11.192 11.192 0 25 0z" fill="#010101"/><path d="M156.98 230c7.607 0 13.774-6.117 13.774-13.662s-6.167-13.663-13.774-13.663h-2.075c7.607 0 13.774 6.118 13.774 13.663S162.512 230 154.905 230z" fill="#ee1d51"/><path d="M154.717 202.675h-2.075c-7.607 0-13.775 6.118-13.775 13.663S145.035 230 152.642 230h2.075c-7.608 0-13.775-6.117-13.775-13.662s6.167-13.663 13.775-13.663z" fill="#66c8cf"/><ellipse cx="154.811" cy="216.338" fill="#010101" rx="6.699" ry="6.643"/><path d="M50 196.5v6.925h8.112v26.388h8.115v-26.201h6.603l2.264-7.112zm66.415 0v6.925h8.112v26.388h8.115v-26.201h6.603l2.264-7.112zm-39.81 3.93c0-2.17 1.771-3.93 3.959-3.93 2.19 0 3.963 1.76 3.963 3.93s-1.772 3.93-3.963 3.93c-2.188-.001-3.959-1.76-3.959-3.93zm0 6.738h7.922v22.645h-7.922zM87.924 196.5v33.313h7.925v-8.608l2.453-2.248L106.037 230h8.49l-11.133-16.095 10-9.733h-9.622l-7.923 7.86V196.5zm85.47 0v33.313h7.926v-8.608l2.452-2.248L191.509 230H200l-11.133-16.095 10-9.733h-9.622l-7.925 7.86V196.5z" fill="#fff"/><path d="M161.167 81.186c10.944 7.819 24.352 12.42 38.832 12.42V65.755a39.26 39.26 0 01-8.155-.853v21.923c-14.479 0-27.885-4.601-38.832-12.42v56.835c0 28.432-23.06 51.479-51.505 51.479-10.613 0-20.478-3.207-28.673-8.707C82.187 183.57 95.23 189.5 109.66 189.5c28.447 0 51.508-23.047 51.508-51.48V81.186zm10.06-28.098c-5.593-6.107-9.265-14-10.06-22.726V26.78h-7.728c1.945 11.09 8.58 20.565 17.788 26.308zm-80.402 99.107a23.445 23.445 0 01-4.806-14.256c0-13.004 10.548-23.547 23.561-23.547a23.6 23.6 0 017.147 1.103V87.022a51.97 51.97 0 00-8.152-.469v22.162a23.619 23.619 0 00-7.15-1.103c-13.013 0-23.56 10.543-23.56 23.548 0 9.195 5.272 17.157 12.96 21.035z" fill="#ee1d52"/><path d="M153.012 74.405c10.947 7.819 24.353 12.42 38.832 12.42V64.902c-8.082-1.72-15.237-5.942-20.617-11.814-9.208-5.743-15.843-15.218-17.788-26.308H133.14v111.239c-.046 12.968-10.576 23.468-23.561 23.468-7.652 0-14.45-3.645-18.755-9.292-7.688-3.878-12.96-11.84-12.96-21.035 0-13.005 10.547-23.548 23.56-23.548 2.493 0 4.896.388 7.15 1.103V86.553c-27.945.577-50.42 23.399-50.42 51.467 0 14.011 5.597 26.713 14.68 35.993 8.195 5.5 18.06 8.707 28.673 8.707 28.445 0 51.505-23.048 51.505-51.479z" fill="#fff"/><path d="M191.844 64.902v-5.928a38.84 38.84 0 01-20.617-5.887 38.948 38.948 0 0020.617 11.815zM153.439 26.78a39.524 39.524 0 01-.427-3.198V20h-28.028v111.24c-.045 12.967-10.574 23.467-23.56 23.467-3.813 0-7.412-.904-10.6-2.512 4.305 5.647 11.103 9.292 18.755 9.292 12.984 0 23.515-10.5 23.561-23.468V26.78zm-44.864 59.773v-6.311a51.97 51.97 0 00-7.067-.479C73.06 79.763 50 102.811 50 131.24c0 17.824 9.063 33.532 22.835 42.772-9.083-9.28-14.68-21.982-14.68-35.993 0-28.067 22.474-50.889 50.42-51.466z" fill="#69c9d0"/><path d="M154.904 230c7.607 0 13.775-6.117 13.775-13.662s-6.168-13.663-13.775-13.663h-.188c-7.607 0-13.774 6.118-13.774 13.663S147.109 230 154.716 230zm-6.792-13.662c0-3.67 3-6.643 6.7-6.643 3.697 0 6.697 2.973 6.697 6.643s-3 6.645-6.697 6.645c-3.7-.001-6.7-2.975-6.7-6.645z" fill="#fff"/></g></svg><svg viewBox="0 0 31 31" fill="none" id="viber-ic" xmlns="http://www.w3.org/2000/svg"><g clip-path="url(#clip0)"><path d="M18.6 0h-6.2C6.416 0 1.548 4.868 1.548 10.851v4.651c0 4.2 2.423 8.013 6.201 9.806v5.18c0 .449.563.684.882.365l4.5-4.5h5.47c5.983 0 10.85-4.868 10.85-10.851v-4.65C29.452 4.867 24.585 0 18.602 0z" fill="#665CAC"/><path d="M9.3 25.308a10.856 10.856 0 01-6.202-9.806v-4.65C3.098 4.867 7.966 0 13.95 0H12.4C6.416 0 1.548 4.868 1.548 10.851v4.651c0 4.2 2.423 8.013 6.201 9.806v5.18c0 .449.563.684.882.365l.668-.668v-4.877z" fill="#523494"/><path d="M23.302 19.26l-.465-2.517a.517.517 0 00-.407-.413l-3.654-.73a.517.517 0 00-.467.141l-1.484 1.485c-2.501-1.121-3.89-2.512-5.11-5.12l1.48-1.48a.517.517 0 00.14-.467l-.73-3.654a.517.517 0 00-.413-.407l-2.517-.464a.518.518 0 00-.208.004 3.606 3.606 0 00-1.754.968c-.835.836-1.155 2.055-.923 3.527.389 2.47 1.599 5.909 3.832 8.151l.03.03c2.241 2.232 5.68 3.443 8.15 3.831.312.05.611.074.899.074 1.071 0 1.969-.338 2.628-.997a3.607 3.607 0 00.968-1.754.522.522 0 00.005-.208z" fill="#fff"/><path d="M12.689 11.13l.505-.504-.505.505zM18.31 15.74l-.51.51.51-.51z" fill="#E5E5E5"/><path d="M20.675 21.244a5.77 5.77 0 01-.898-.073c-2.471-.389-5.91-1.6-8.15-3.831l-.03-.03c-2.234-2.243-3.444-5.681-3.833-8.152-.187-1.188-.014-2.213.5-3.003a3.618 3.618 0 00-.55.451c-.837.836-1.156 2.055-.924 3.527.388 2.47 1.599 5.909 3.832 8.151l.03.03c2.241 2.232 5.68 3.442 8.15 3.831.311.05.611.074.899.074 1.071 0 1.969-.338 2.628-.997.169-.17.32-.354.45-.551-.583.38-1.294.573-2.104.573z" fill="#E5E5E5"/><path d="M16.533 8.784a.517.517 0 000 1.034 2.07 2.07 0 012.067 2.067c0 .281.235.517.517.517a.522.522 0 00.517-.517c0-1.71-1.391-3.1-3.1-3.1z" fill="#fff"/><path d="M16.533 6.717c-.19 0-.384.011-.573.032a.517.517 0 10.113 1.027 4.139 4.139 0 014.569 4.569c-.03.28.177.54.457.57.28.031.54-.177.57-.457a5.173 5.173 0 00-5.136-5.74z" fill="#fff"/><path d="M16.534 4.65c-.185 0-.372.008-.556.022a.517.517 0 00.078 1.03 6.208 6.208 0 016.513 7.614.522.522 0 00.366.617.522.522 0 00.64-.38 7.266 7.266 0 00.193-1.668c0-3.99-3.245-7.234-7.234-7.234z" fill="#fff"/></g></svg><svg viewBox="0 0 31 31" fill="none" id="wp-ic" xmlns="http://www.w3.org/2000/svg"><path d="M15.504 0h-.008C6.95 0 0 6.952 0 15.5c0 3.39 1.093 6.533 2.95 9.085l-1.93 5.758 5.957-1.904A15.365 15.365 0 0015.504 31C24.05 31 31 24.046 31 15.5S24.05 0 15.504 0z" fill="#4CAF50"/><path d="M24.523 21.888c-.374 1.056-1.858 1.932-3.042 2.187-.81.173-1.868.31-5.429-1.166-4.555-1.887-7.488-6.516-7.717-6.816-.219-.3-1.84-2.451-1.84-4.675 0-2.225 1.129-3.308 1.584-3.773.374-.381.992-.556 1.585-.556.192 0 .364.01.52.018.455.02.683.046.984.765.374.901 1.284 3.125 1.393 3.354.11.228.22.538.066.839-.146.31-.274.447-.502.71-.229.264-.446.466-.675.749-.209.246-.445.51-.182.965.264.445 1.175 1.931 2.515 3.125 1.73 1.54 3.133 2.032 3.635 2.241.374.155.82.119 1.093-.172.347-.374.775-.994 1.21-1.604.31-.438.702-.492 1.113-.337.418.145 2.633 1.24 3.088 1.466.456.229.756.338.866.53.109.191.109 1.092-.265 2.15z" fill="#FAFAFA"/></svg></svg>