<?xml version="1.0" encoding="utf-8"?><svg viewBox="0 0 32 30" xmlns="http://www.w3.org/2000/svg" xmlns:xlink="http://www.w3.org/1999/xlink"><style>:root>svg{display:none}:root>svg:target{display:block}</style><svg viewBox="0 0 32 30" id="comment-ic"><path d="M4.658 29.088H2.39l1.604-1.603a5.426 5.426 0 001.55-3.209c-2.257-1.48-3.906-3.428-4.79-5.662-.882-2.232-.993-4.689-.32-7.105.807-2.9 2.7-5.543 5.33-7.442C8.622 2.003 12.18.912 16.054.912c4.879 0 8.992 1.402 11.893 4.054C30.56 7.356 32 10.578 32 14.04c0 1.682-.343 3.319-1.018 4.865-.7 1.6-1.723 3.024-3.043 4.234-2.905 2.662-7.015 4.07-11.886 4.07-1.808 0-3.694-.242-5.379-.685-1.594 1.636-3.755 2.563-6.016 2.563zM16.053 2.79c-7.766 0-12.532 4.632-13.81 9.222-1.207 4.338.573 8.437 4.762 10.965l.468.282-.014.547a7.397 7.397 0 01-.748 3.065 6.653 6.653 0 002.942-2.013l.397-.47.589.177c1.652.494 3.575.766 5.415.766 9.665 0 14.068-5.852 14.068-11.29 0-2.93-1.223-5.66-3.443-7.689-2.549-2.33-6.223-3.562-10.625-3.562z" fill="inherit"/></svg><svg fill="none" viewBox="0 0 20 20" id="dislike-ic" xmlns="http://www.w3.org/2000/svg"><g clip-path="url(#bclip0)"><path d="M18.541 0h-2.083A1.46 1.46 0 0015 1.458v.305C13.74 1.122 10.878 0 6.224 0H4.89a3.949 3.949 0 00-3.9 3.285L.057 8.702a3.958 3.958 0 003.9 4.631h3.78a7.775 7.775 0 00-.472 2.709c0 3.13 1.772 3.958 2.709 3.958 1.73 0 1.875-1.613 1.875-3.125 0-1.845 2.069-3.378 3.162-4.06.055.753.68 1.352 1.447 1.352h2.083A1.46 1.46 0 0020 12.708V1.458A1.46 1.46 0 0018.54 0zM10.6 16.875c0 1.875-.318 1.875-.625 1.875-.587 0-1.459-.722-1.459-2.708 0-1.847.724-2.979.729-2.987a.625.625 0 00-.52-.972H3.957A2.707 2.707 0 011.29 8.915l.933-5.417A2.7 2.7 0 014.89 1.25h1.334c5.669 0 8.509 1.773 8.776 1.95v8.174c-.694.368-4.401 2.477-4.401 5.501zm8.15-4.167a.208.208 0 01-.208.209h-2.083a.209.209 0 01-.208-.209V1.458a.21.21 0 01.208-.208h2.083c.115 0 .209.093.209.208v11.25z" fill="#0749AA"/></g><defs><clipPath id="bclip0"><path fill="#fff" d="M0 0h20v20H0z"/></clipPath></defs></svg><svg viewBox="0 0 32 30" id="like-ic"><path d="M16 29.22c-.456 0-.895-.165-1.237-.465a370.347 370.347 0 00-3.639-3.13l-.005-.005c-3.224-2.747-6.008-5.12-7.945-7.457C1.009 15.55 0 13.073 0 10.367c0-2.63.902-5.055 2.539-6.83C4.195 1.74 6.468.75 8.939.75c1.848 0 3.54.584 5.028 1.736A10.288 10.288 0 0116 4.608c.6-.83 1.281-1.541 2.033-2.122C19.522 1.334 21.213.75 23.06.75c2.47 0 4.744.99 6.4 2.786C31.1 5.312 32 7.738 32 10.366c0 2.707-1.008 5.184-3.174 7.797-1.937 2.337-4.72 4.71-7.944 7.457-1.101.938-2.35 2.002-3.645 3.135-.342.3-.782.465-1.237.465zM8.94 2.625c-1.942 0-3.726.774-5.023 2.182C2.6 6.235 1.873 8.21 1.873 10.367c0 2.276.846 4.312 2.743 6.6 1.833 2.212 4.56 4.536 7.717 7.227l.006.005c1.104.94 2.355 2.007 3.657 3.145a434.58 434.58 0 013.67-3.15c3.156-2.691 5.883-5.015 7.716-7.227 1.897-2.288 2.743-4.324 2.743-6.6 0-2.157-.726-4.132-2.043-5.56-1.297-1.408-3.08-2.182-5.022-2.182-1.423 0-2.729.452-3.882 1.343-1.027.795-1.743 1.8-2.163 2.503A1.174 1.174 0 0116 7.05c-.42 0-.8-.216-1.016-.578-.42-.703-1.136-1.708-2.164-2.503-1.152-.891-2.458-1.343-3.88-1.343z" fill="inherit"/></svg></svg>