<?xml version="1.0" encoding="utf-8"?><svg viewBox="0 0 15 15" xmlns="http://www.w3.org/2000/svg" xmlns:xlink="http://www.w3.org/1999/xlink"><style>:root>svg{display:none}:root>svg:target{display:block}</style><svg viewBox="0 0 15 15" id="comment-ic"><path d="M14.792 7.259c0 1.506-.665 2.88-1.758 3.94v2.604l-2.604-.997a8.51 8.51 0 01-2.93.514c-4.027 0-7.292-2.714-7.292-6.06 0-3.348 3.265-6.062 7.292-6.062 4.027 0 7.292 2.714 7.292 6.06z" fill="inherit"/><path d="M13.034 14.011a.209.209 0 01-.075-.014l-2.531-.968c-.931.332-1.916.5-2.928.5-4.135 0-7.5-2.813-7.5-6.27C0 3.802 3.365.99 7.5.99c4.136 0 7.5 2.813 7.5 6.27 0 1.471-.623 2.898-1.758 4.027v2.517a.208.208 0 01-.208.208zm-2.604-1.413a.21.21 0 01.075.014l2.32.888v-2.302c0-.056.024-.11.064-.15 1.092-1.058 1.694-2.404 1.694-3.79 0-3.226-3.178-5.852-7.083-5.852C3.594 1.406.417 4.032.417 7.26c0 3.228 3.177 5.853 7.083 5.853.99 0 1.952-.168 2.858-.501a.202.202 0 01.072-.013z" fill="inherit"/></svg><svg viewBox="0 0 15 15" id="like-ic"><path d="M11.016.879c-.814 0-1.56.258-2.218.767-.631.487-1.05 1.108-1.298 1.56-.247-.452-.667-1.073-1.298-1.56A3.551 3.551 0 003.984.879C1.713.879 0 2.737 0 5.2c0 2.661 2.137 4.482 5.372 7.24.55.468 1.172.998 1.82 1.564a.468.468 0 00.617 0c.647-.566 1.27-1.096 1.82-1.565C12.862 9.683 15 7.862 15 5.2 15 2.738 13.287.88 11.016.88z" fill="inherit"/></svg><svg viewBox="0 0 15 9" id="views-ic"><path d="M7.5.03C4.634.03 2.035 1.596.117 4.143a.594.594 0 000 .709C2.035 7.403 4.634 8.97 7.5 8.97c2.866 0 5.465-1.568 7.383-4.115a.594.594 0 000-.709C12.965 1.597 10.366.03 7.5.03zm.206 7.618a3.157 3.157 0 01-3.354-3.354 3.162 3.162 0 012.942-2.942 3.157 3.157 0 013.354 3.354 3.172 3.172 0 01-2.942 2.942zM7.61 6.194A1.696 1.696 0 015.806 4.39a1.706 1.706 0 011.587-1.587 1.696 1.696 0 011.804 1.804A1.706 1.706 0 017.61 6.194z" fill="inherit"/></svg></svg>