<svg width="15" height="15" viewBox="0 0 15 15" fill="none" xmlns="http://www.w3.org/2000/svg">
<g clip-path="url(#clip0)">
<path d="M7.5 15C11.6353 15 15 11.6356 15 7.5C15 6.78619 14.9004 6.08276 14.7031 5.40909C14.6059 5.07782 14.2599 4.88754 13.9278 4.98474C13.5962 5.08163 13.4065 5.42877 13.5034 5.76004C13.6668 6.31973 13.75 6.90536 13.75 7.5C13.75 10.9462 10.9462 13.75 7.5 13.75C4.0538 13.75 1.25 10.9462 1.25 7.5C1.25 4.0538 4.0538 1.25 7.5 1.25C8.75244 1.25 9.95743 1.61621 10.9846 2.30881C11.2706 2.50183 11.6594 2.42599 11.8521 2.14005C12.045 1.85379 11.9698 1.4653 11.6835 1.27243C10.4491 0.440063 9.00253 0 7.5 0C3.36472 0 0 3.36441 0 7.5C0 11.6356 3.36472 15 7.5 15Z" fill="#0749AA"/>
<path d="M13.9332 1.43311L7.50013 7.86591L5.44202 5.80811C5.19788 5.56413 4.80238 5.56413 4.55824 5.80811C4.31425 6.05225 4.31425 6.44776 4.55824 6.6919L7.05824 9.1919C7.18046 9.31413 7.34007 9.37501 7.50013 9.37501C7.66019 9.37501 7.8198 9.31413 7.94202 9.1919L14.817 2.3169C15.061 2.07276 15.061 1.67725 14.817 1.43311C14.5729 1.18913 14.1774 1.18913 13.9332 1.43311Z" fill="#0749AA"/>
</g>
<defs>
<clipPath id="clip0">
<rect width="15" height="15" fill="white"/>
</clipPath>
</defs>
</svg>
