<svg width="12" height="14" viewBox="0 0 12 14" fill="none" xmlns="http://www.w3.org/2000/svg">
<g clip-path="url(#clip0_1213_765)">
<path d="M6 13.0702C9.30823 13.0702 12 10.3157 12 6.92975C12 6.34534 11.9203 5.76942 11.7625 5.21787C11.6847 4.94665 11.408 4.79087 11.1422 4.87044C10.877 4.94977 10.7252 5.23398 10.8027 5.5052C10.9335 5.96344 11 6.44291 11 6.92975C11 9.75124 8.75696 12.0468 6 12.0468C3.24304 12.0468 1 9.75124 1 6.92975C1 4.10826 3.24304 1.81271 6 1.81271C7.00195 1.81271 7.96594 2.11254 8.78772 2.67959C9.01648 2.83762 9.32751 2.77553 9.48169 2.54142C9.63599 2.30705 9.57581 1.98899 9.3468 1.83108C8.35925 1.1496 7.20203 0.789307 6 0.789307C2.69177 0.789307 0 3.54384 0 6.92975C0 10.3157 2.69177 13.0702 6 13.0702Z" fill="#A7A7A7"/>
<path d="M11.1464 1.96256L5.99991 7.22927L4.35342 5.54449C4.15811 5.34473 3.84171 5.34473 3.64639 5.54449C3.4512 5.74438 3.4512 6.06819 3.64639 6.26807L5.64639 8.31489C5.74417 8.41496 5.87186 8.4648 5.99991 8.4648C6.12796 8.4648 6.25565 8.41496 6.35342 8.31489L11.8534 2.68615C12.0486 2.48626 12.0486 2.16245 11.8534 1.96256C11.6581 1.7628 11.3417 1.7628 11.1464 1.96256Z" fill="#A7A7A7"/>
</g>
<defs>
<clipPath id="clip0_1213_765">
<rect width="12" height="12.2809" fill="white" transform="translate(0 0.789307)"/>
</clipPath>
</defs>
</svg>
