<?xml version="1.0" encoding="utf-8"?><svg viewBox="0 0 62 62" xmlns="http://www.w3.org/2000/svg" xmlns:xlink="http://www.w3.org/1999/xlink"><style>:root>svg{display:none}:root>svg:target{display:block}</style><svg viewBox="0 0 19 11" id="angle-down" xmlns="http://www.w3.org/2000/svg"><path d="M8.546 10.143L.225 1.638A.723.723 0 01.226.63a.69.69 0 01.989.002L9.041 8.63 16.867.632a.69.69 0 01.99-.002c.136.14.205.322.205.505a.718.718 0 01-.204.503l-8.322 8.505a.692.692 0 01-.99 0z" fill="inherit"/></svg><svg viewBox="0 0 19 19" id="arr-circ"><path d="M.736 9.5a8.764 8.764 0 1117.528 0 8.764 8.764 0 01-17.528 0z" fill="inherit"/><path d="M0 9.5C0 14.738 4.261 19 9.5 19c5.238 0 9.5-4.262 9.5-9.5C19 4.261 14.738 0 9.5 0 4.261 0 0 4.261 0 9.5zm17.528 0c0 4.427-3.601 8.028-8.028 8.028-4.427 0-8.028-3.601-8.028-8.028 0-4.427 3.602-8.028 8.028-8.028 4.427 0 8.028 3.601 8.028 8.028z" fill="inherit"/><path d="M7.454 5.298a.735.735 0 000 1.038l3.157 3.157-3.157 3.156a.736.736 0 001.038 1.038l3.68-3.68a.736.736 0 000-1.037l-3.68-3.68a.735.735 0 00-1.038.008z" fill="currentColor"/></svg><svg viewBox="0 0 62 62" id="btn-arr-circ"><path d="M59.599 31C59.599 15.205 46.795 2.401 31 2.401S2.401 15.205 2.401 31s12.804 28.599 28.6 28.599c15.794 0 28.598-12.804 28.598-28.599z" fill="currentColor"/><path d="M62 31c0 17.092-13.906 31-31 31C13.908 62 0 48.092 0 31 0 13.906 13.908 0 31 0c17.094 0 31 13.906 31 31zM4.802 31c0 14.446 11.752 26.197 26.198 26.197S57.197 45.447 57.197 31 45.444 4.802 31 4.802C16.554 4.802 4.802 16.554 4.802 31z" fill="var(--border-color)"/><path d="M23.699 44.53a2.4 2.4 0 010-3.385L34 30.843 23.7 20.542a2.403 2.403 0 01.262-3.386 2.4 2.4 0 013.124 0L39.09 29.162a2.4 2.4 0 010 3.386L27.085 44.554a2.4 2.4 0 01-3.386-.024z" fill="inherit"/></svg><svg viewBox="0 0 16 16" id="chevron-circle-down" xmlns="http://www.w3.org/2000/svg"><path d="M0 8c0-4.411 3.589-8 8-8s8 3.589 8 8-3.589 8-8 8-8-3.589-8-8zm8.471 2.471l3.334-3.333a.665.665 0 000-.943.666.666 0 00-.943 0L8 9.057 5.138 6.195a.666.666 0 10-.943.943l3.334 3.333c.26.261.682.261.942 0z" fill="inherit"/></svg><svg viewBox="0 0 17 14" id="clock-ic"><g clip-path="url(#eclip0)" fill="inherit"><path d="M11.35 8.236L9.146 6.772V3.79c0-.3-.274-.542-.613-.542-.338 0-.612.242-.612.542v3.254c0 .17.09.331.245.433l2.449 1.627c.11.073.239.108.367.108.186 0 .37-.074.49-.217.203-.24.148-.58-.122-.759z"/><path d="M8.533 0C4.175 0 .63 3.14.63 7s3.546 7 7.904 7c4.359 0 7.905-3.14 7.905-7s-3.546-7-7.905-7zm0 12.916c-3.682 0-6.68-2.655-6.68-5.916 0-3.261 2.998-5.916 6.68-5.916 3.684 0 6.68 2.655 6.68 5.916 0 3.261-2.997 5.916-6.68 5.916z"/></g><defs><clipPath id="eclip0"><path fill="#fff" transform="translate(.63)" d="M0 0h15.808v14H0z"/></clipPath></defs></svg><svg viewBox="0 0 9 17" id="coin"><path d="M6.864 7.722c-.667-.368-1.376-.65-2.078-.94-.408-.17-.797-.366-1.141-.64-.678-.54-.548-1.418.245-1.766.225-.098.46-.13.7-.144.919-.049 1.793.12 2.625.52.415.2.552.137.692-.295.148-.456.27-.92.407-1.38.092-.309-.02-.512-.312-.642a6.676 6.676 0 00-1.657-.495c-.752-.116-.752-.12-.755-.875C5.586.002 5.586.002 4.519.002c-.155 0-.31-.004-.464 0-.498.014-.582.101-.596.603-.007.225 0 .45-.004.678-.003.667-.007.657-.646.888-1.545.562-2.5 1.615-2.602 3.3-.091 1.493.688 2.5 1.914 3.234.755.453 1.59.72 2.39 1.075.313.137.612.295.872.513.769.635.628 1.692-.285 2.092-.488.214-1.004.267-1.534.2-.818-.102-1.601-.316-2.339-.699-.431-.224-.558-.164-.705.302-.127.404-.239.811-.351 1.219-.151.547-.095.677.428.934.667.323 1.38.488 2.107.604.568.09.586.115.593.705.004.267.004.537.007.804.004.337.165.534.513.541.393.007.79.007 1.183-.003.323-.007.488-.183.488-.51 0-.365.017-.733.003-1.098-.017-.373.144-.562.503-.66a3.968 3.968 0 002.068-1.328c1.502-1.826.93-4.497-1.198-5.674z" fill="#0749AA"/></svg><svg viewBox="0 0 31 31" id="cweb-tel"><g clip-path="url(#gclip0)"><path d="M15.5 0C6.954 0 0 6.954 0 15.5S6.954 31 15.5 31c4.14 0 8.083-1.67 11.01-4.598.487-.486.433-1.303-.06-1.787l-2.447-2.41c.527-.723.597-1.602.162-2.437a6.622 6.622 0 00-2.62-2.71c-.442-.255-.859-.38-1.274-.38-.162 0-.325.02-.484.058-.527.128-1.035.376-1.551.755a.962.962 0 01-.59.182 1.39 1.39 0 01-.792-.25 18.893 18.893 0 01-3.908-3.909c-.22-.296-.395-.94-.07-1.383.382-.515.628-1.022.756-1.55.138-.57.032-1.145-.32-1.756A6.62 6.62 0 0010.6 6.204a2.422 2.422 0 00-1.124-.291c-.629 0-1.217.274-1.702.79-.445.474-.839.976-1.293 1.584-.416.556-.381 1.199-.352 1.765l.001.012c.052.72.32 1.57.822 2.599.847 1.744 2.051 3.4 3.68 5.061.335.342 1.669 1.677 2.012 2.012 1.662 1.63 3.318 2.833 5.061 3.68 1.03.502 1.88.77 2.6.822h.012c.148.008.306.016.46.016.367 0 .838-.045 1.262-.342l1.61 1.586a12.803 12.803 0 01-8.149 2.908c-7.116 0-12.906-5.79-12.906-12.906 0-7.116 5.79-12.906 12.906-12.906 7.116 0 12.906 5.79 12.906 12.906a1.297 1.297 0 102.594 0C31 6.954 24.046 0 15.5 0z" fill="inherit"/></g><defs><clipPath id="gclip0"><path fill="#fff" d="M0 0h31v31H0z"/></clipPath></defs></svg><svg viewBox="0 0 36 36" id="handle-ic"><g clip-path="url(#hclip0)" fill="#0749AA"><path d="M32.342 13.185h-.057c-1.114 0-2.017 1.007-2.017 2.242v1.685a.568.568 0 01-.563.572.568.568 0 01-.563-.572V14c0-1.235-.895-2.24-2.009-2.24-1.12 0-2.014 1.005-2.014 2.24v3.297a.568.568 0 01-.563.573.568.568 0 01-.563-.573v-4.202c0-1.235-.933-2.2-2.046-2.2h-.061c-1.087 0-1.997.915-1.997 2.108v4.733a.568.568 0 01-.563.572.568.568 0 01-.563-.572v-4.598l-.002-.044.002-.11V2.24c0-1.235-.918-2.24-2.03-2.24C15.618 0 14.7 1.004 14.7 2.238l-.012 17.816c0 .242-.15.458-.374.539a.557.557 0 01-.625-.176l-2.093-2.59a3.207 3.207 0 00-2.273-1.222 3.124 3.124 0 00-2.37.863l-.021.018-.432.361 7.27 14.19c1.151 2.248 3.33 3.636 5.684 3.636h8.388c3.59 0 6.513-3.188 6.516-7.118l.006-4.83c.004-3.356.006-4.612-.003-8.306-.003-1.23-.909-2.234-2.02-2.234z"/><path d="M22.223 5.17h8.536l-1.633 1.66a.58.58 0 000 .81c.22.224.576.224.796 0l2.585-2.627a.58.58 0 000-.81l-2.585-2.627a.557.557 0 00-.796 0 .58.58 0 000 .81l1.614 1.64h-8.517a.568.568 0 00-.564.572c0 .316.252.572.564.572zM2.657 5.17h8.463c.31 0 .563-.256.563-.572a.568.568 0 00-.563-.572H2.676l1.614-1.64a.58.58 0 000-.81.557.557 0 00-.796 0L.909 4.203a.58.58 0 000 .81L3.494 7.64c.22.224.576.224.796 0a.579.579 0 000-.81L2.657 5.17z"/></g><defs><clipPath id="hclip0"><path fill="#fff" d="M0 0h35.099v35.673H0z"/></clipPath></defs></svg><svg viewBox="0 0 18 18" id="info"><path d="M9 0C4.026 0 0 4.025 0 9c0 4.974 4.025 9 9 9 4.974 0 9-4.025 9-9 0-4.974-4.025-9-9-9zm.924 12.573c0 .284-.414.568-.924.568-.533 0-.912-.284-.912-.568V8.059c0-.332.38-.557.912-.557.51 0 .924.225.924.557v4.514zM9 6.413c-.545 0-.971-.403-.971-.854 0-.45.426-.84.971-.84.533 0 .96.39.96.84 0 .45-.427.853-.96.853z" fill="inherit"/></svg><svg viewBox="0 0 24 24" id="input-build-ic"><path d="M22.7 19l-9.1-9.1c.9-2.3.4-5-1.5-6.9-2-2-5-2.4-7.4-1.3L9 6 6 9 1.6 4.7C.4 7.1.9 10.1 2.9 12.1c1.9 1.9 4.6 2.4 6.9 1.5l9.1 9.1c.4.4 1 .4 1.4 0l2.3-2.3c.5-.4.5-1.1.1-1.4z" fill="inherit"/></svg><svg viewBox="0 0 22 22" id="input-mail-ic"><path d="M7.417 11.113L0 15.802V6.226l7.417 4.887zM22 6.226v9.576l-7.417-4.69L22 6.227zM1.375 3.438h19.25c.686 0 1.23.511 1.334 1.17L11 11.828.041 4.608c.103-.659.648-1.17 1.334-1.17zM8.676 11.943l1.946 1.282a.687.687 0 00.756 0l1.946-1.283 8.632 5.46c-.106.653-.648 1.16-1.331 1.16H1.375c-.683 0-1.225-.507-1.331-1.16l8.632-5.459z" fill="inherit"/></svg><svg viewBox="0 0 18 18" id="input-tel-ic"><path d="M3.62 7.79c1.44 2.83 3.76 5.14 6.59 6.59l2.2-2.2c.27-.27.67-.36 1.02-.24 1.12.37 2.33.57 3.57.57.55 0 1 .45 1 1V17c0 .55-.45 1-1 1C7.61 18 0 10.39 0 1c0-.55.45-1 1-1h3.5c.55 0 1 .45 1 1 0 1.25.2 2.45.57 3.57.11.35.03.74-.25 1.02l-2.2 2.2z" fill="inherit"/></svg><svg viewBox="0 0 16 16" id="input-user-ic"><path d="M8 8c2.21 0 4-1.79 4-4s-1.79-4-4-4-4 1.79-4 4 1.79 4 4 4zm0 2c-2.67 0-8 1.34-8 4v2h16v-2c0-2.66-5.33-4-8-4z" fill="inherit"/></svg><svg viewBox="0 0 13 10" id="menu-ic"><g clip-path="url(#nclip0)" fill="inherit"><path d="M11.692 4.61H1.282c-.243 0-.44.174-.44.39 0 .216.197.39.44.39h10.41c.244 0 .441-.174.441-.39 0-.216-.197-.39-.44-.39zM11.692 1.484H1.282c-.243 0-.44.175-.44.391 0 .216.197.39.44.39h10.41c.244 0 .441-.174.441-.39 0-.216-.197-.39-.44-.39zM11.692 7.734H1.282c-.243 0-.44.175-.44.391 0 .216.197.39.44.39h10.41c.244 0 .441-.174.441-.39 0-.216-.197-.39-.44-.39z"/></g><defs><clipPath id="nclip0"><path fill="#fff" transform="translate(.842)" d="M0 0h11.292v10H0z"/></clipPath></defs></svg><svg viewBox="0 0 18 18" id="scraper"><path d="M17.11 6.526a.38.38 0 01-.015.017L7.23 16.026c-.844.811-1.845 1.236-2.908 1.236-.08 0-.162-.003-.243-.008-1.016-.061-2.001-.504-2.774-1.248C.532 15.263.07 14.317.008 13.34c-.073-1.11.369-2.157 1.277-3.03L11.116.857a.434.434 0 01.597 0 .395.395 0 010 .573l-9.832 9.454c-1.618 1.556-1.123 3.449.021 4.55 1.145 1.1 3.114 1.576 4.732.02l9.855-9.477c1.083-1.173.717-2.517-.129-3.33-.845-.812-2.242-1.165-3.463-.124L6.6 8.578c-.831.8-.593 1.745.012 2.327.605.582 1.588.81 2.42.01l5.45-5.239a.434.434 0 01.596 0 .395.395 0 010 .574l-5.45 5.24c-1.181 1.136-2.712.854-3.612-.012-.901-.866-1.194-2.337-.012-3.474l6.305-6.063a.437.437 0 01.018-.015c.729-.627 1.587-.919 2.48-.844.79.066 1.553.418 2.15.992.597.573.963 1.307 1.031 2.066.078.86-.226 1.685-.877 2.386z" fill="inherit"/></svg><svg viewBox="0 0 19 33" id="slider-arr_left"><path d="M17.385 32.992a.717.717 0 00.507-1.225L2.62 16.497 17.892 1.225A.718.718 0 0016.877.21L1.099 15.99a.717.717 0 000 1.014L16.877 32.78c.134.135.317.21.508.21z" fill="inherit"/></svg><svg viewBox="0 0 19 33" id="slider-arr_right"><path d="M1.615 32.992a.717.717 0 01-.507-1.225l15.271-15.27L1.108 1.225A.718.718 0 112.123.21L17.901 15.99c.28.28.28.734 0 1.014L2.123 32.78a.717.717 0 01-.508.21z" fill="inherit"/></svg></svg>