<?xml version="1.0" encoding="utf-8"?><svg viewBox="0 0 160 160" xmlns="http://www.w3.org/2000/svg" xmlns:xlink="http://www.w3.org/1999/xlink"><style>:root>svg{display:none}:root>svg:target{display:block}</style><svg fill="none" viewBox="0 0 160 160" id="calculator" xmlns="http://www.w3.org/2000/svg"><g clip-path="url(#aclip0_1364_84)" fill="#0749AA"><path d="M32.246 31.215a2.344 2.344 0 00-3.314 0l-5.916 5.915-2.524-2.524a2.343 2.343 0 10-3.314 3.315l4.18 4.18a2.337 2.337 0 001.658.687c.6 0 1.2-.229 1.657-.686l7.573-7.573c.915-.915.915-2.4 0-3.314zM30.665 55.542H18.759a4.629 4.629 0 00-4.623 4.624V72.07a4.629 4.629 0 004.623 4.624h11.906a4.63 4.63 0 004.623-4.624V60.166a4.629 4.629 0 00-4.623-4.624zm-.064 16.466H18.823V60.23h11.778v11.778zM30.665 88.438H18.759a4.629 4.629 0 00-4.623 4.624v11.906a4.629 4.629 0 004.623 4.623h11.906a4.629 4.629 0 004.623-4.623V93.062a4.629 4.629 0 00-4.623-4.624zm-.064 16.466H18.823V93.126h11.778v11.778zM30.665 122.034H18.759a4.63 4.63 0 00-4.623 4.624v11.905a4.629 4.629 0 004.623 4.624h11.906a4.629 4.629 0 004.623-4.624v-11.905a4.629 4.629 0 00-4.623-4.624zm-.064 16.465H18.823v-11.777h11.778v11.777z"/><path d="M156.155 62.693a2.343 2.343 0 00-2.344 2.344v87.111a3.167 3.167 0 01-3.164 3.164H66.729a3.168 3.168 0 01-3.164-3.164V34.922a3.168 3.168 0 013.164-3.165h83.917a3.167 3.167 0 013.164 3.165v20.505a2.345 2.345 0 004.688 0V34.922c0-4.33-3.522-7.852-7.852-7.852h-12.56V13.84c0-7.631-6.208-13.84-13.842-13.841H17.303C8.591 0 1.502 7.089 1.502 15.802v130.191c0 7.633 6.209 13.842 13.84 13.842h37.523a2.344 2.344 0 100-4.688H15.343c-5.047 0-9.153-4.106-9.153-9.154V15.802c0-6.129 4.985-11.115 11.113-11.115h96.57a13.782 13.782 0 00-3.472 9.154v6.47a2.343 2.343 0 104.688 0v-6.47c0-5.047 4.106-9.154 9.155-9.154 5.048 0 9.154 4.107 9.154 9.154V27.07H66.73c-4.33 0-7.852 3.522-7.852 7.852v1.622H46.7a2.344 2.344 0 100 4.688h12.177v22.543H46.7a2.344 2.344 0 100 4.687h12.177v28.21H46.7a2.344 2.344 0 100 4.687h12.177v28.908H46.7a2.344 2.344 0 100 4.687h12.177v17.194c0 4.33 3.522 7.852 7.852 7.852h83.917c4.329 0 7.851-3.522 7.851-7.852V65.037a2.343 2.343 0 00-2.343-2.344z"/><path d="M143.455 35.464H73.116a5.586 5.586 0 00-5.58 5.58v17.513a5.586 5.586 0 005.58 5.58h70.338a5.586 5.586 0 005.58-5.58V41.043a5.586 5.586 0 00-5.579-5.58zm0 23.985H73.116a.893.893 0 01-.892-.892V41.043c0-.492.4-.892.892-.892h70.338c.493 0 .893.4.893.892v17.514c0 .492-.4.892-.892.892zM79.994 68.815H72.28a4.75 4.75 0 00-4.744 4.744v7.533a4.75 4.75 0 004.744 4.744h7.714a4.75 4.75 0 004.744-4.744v-7.533a4.75 4.75 0 00-4.744-4.744zm.056 12.276a.057.057 0 01-.056.057H72.28a.057.057 0 01-.056-.057V73.56c0-.031.025-.056.056-.056h7.713c.032 0 .057.025.057.056v7.532zM101.426 68.815h-7.714a4.75 4.75 0 00-4.744 4.744v7.533a4.75 4.75 0 004.744 4.744h7.714a4.75 4.75 0 004.744-4.744v-7.533a4.75 4.75 0 00-4.744-4.744zm.057 12.276a.057.057 0 01-.057.057h-7.714a.057.057 0 01-.056-.057V73.56c0-.031.025-.056.056-.056h7.714c.031 0 .056.025.056.056v7.532h.001zM122.858 68.815h-7.714a4.75 4.75 0 00-4.744 4.744v7.533a4.75 4.75 0 004.744 4.744h7.714a4.75 4.75 0 004.744-4.744v-7.533a4.75 4.75 0 00-4.744-4.744zm.057 12.276a.057.057 0 01-.057.057h-7.713a.056.056 0 01-.057-.057V73.56c0-.031.025-.056.057-.056h7.713c.031 0 .057.025.057.056v7.532zM144.291 68.815h-7.714a4.75 4.75 0 00-4.744 4.744v7.533a4.75 4.75 0 004.744 4.744h7.714a4.75 4.75 0 004.744-4.744v-7.533a4.75 4.75 0 00-4.744-4.744zm.056 12.276a.056.056 0 01-.057.057h-7.713a.057.057 0 01-.057-.057V73.56c0-.031.026-.056.057-.056h7.713c.032 0 .057.025.057.056v7.532zM79.994 90.504H72.28a4.75 4.75 0 00-4.744 4.745v7.532a4.75 4.75 0 004.744 4.744h7.714a4.75 4.75 0 004.744-4.744v-7.532a4.75 4.75 0 00-4.744-4.745zm.056 12.277a.056.056 0 01-.056.056H72.28a.056.056 0 01-.056-.056v-7.533c0-.031.025-.056.056-.056h7.713c.032 0 .057.025.057.056v7.533zM101.426 90.504h-7.714a4.75 4.75 0 00-4.744 4.745v7.532a4.75 4.75 0 004.744 4.744h7.714a4.75 4.75 0 004.744-4.744v-7.532a4.75 4.75 0 00-4.744-4.745zm.057 12.277a.057.057 0 01-.057.056h-7.714a.056.056 0 01-.056-.056v-7.533c0-.031.025-.056.056-.056h7.714c.031 0 .056.025.056.056v7.533h.001zM122.858 90.504h-7.714a4.75 4.75 0 00-4.744 4.745v7.532a4.75 4.75 0 004.744 4.744h7.714a4.75 4.75 0 004.744-4.744v-7.532a4.75 4.75 0 00-4.744-4.745zm.057 12.277a.057.057 0 01-.057.056h-7.713a.056.056 0 01-.057-.056v-7.533c0-.031.025-.056.057-.056h7.713c.031 0 .057.025.057.056v7.533zM144.291 90.504h-7.714a4.75 4.75 0 00-4.744 4.745v7.532a4.75 4.75 0 004.744 4.744h7.714a4.75 4.75 0 004.744-4.744v-7.532a4.75 4.75 0 00-4.744-4.745zm.056 12.277a.056.056 0 01-.057.056h-7.713a.057.057 0 01-.057-.056v-7.533c0-.031.026-.056.057-.056h7.713c.032 0 .057.025.057.056v7.533zM79.994 112.194H72.28a4.75 4.75 0 00-4.744 4.744v7.532a4.75 4.75 0 004.744 4.744h7.714a4.75 4.75 0 004.744-4.744v-7.532a4.75 4.75 0 00-4.744-4.744zm.056 12.276a.056.056 0 01-.056.057H72.28a.056.056 0 01-.056-.057v-7.532c0-.031.025-.057.056-.057h7.713c.032 0 .057.026.057.057v7.532zM101.426 112.194h-7.714a4.75 4.75 0 00-4.744 4.744v7.532a4.75 4.75 0 004.744 4.744h7.714a4.75 4.75 0 004.744-4.744v-7.532a4.75 4.75 0 00-4.744-4.744zm.057 12.276a.057.057 0 01-.057.057h-7.714a.056.056 0 01-.056-.057v-7.532c0-.031.025-.057.056-.057h7.714c.031 0 .056.026.056.057v7.532h.001zM122.858 112.194h-7.714a4.75 4.75 0 00-4.744 4.744v7.532a4.75 4.75 0 004.744 4.744h7.714a4.75 4.75 0 004.744-4.744v-7.532a4.75 4.75 0 00-4.744-4.744zm.057 12.276a.057.057 0 01-.057.057h-7.713a.056.056 0 01-.057-.057v-7.532c0-.031.025-.057.057-.057h7.713c.031 0 .057.026.057.057v7.532zM144.291 112.194h-7.714a4.75 4.75 0 00-4.744 4.744v27.915a4.75 4.75 0 004.744 4.745h7.714a4.75 4.75 0 004.744-4.745v-27.915a4.75 4.75 0 00-4.744-4.744zm.056 32.659a.056.056 0 01-.057.057h-7.713a.057.057 0 01-.057-.057v-27.915c0-.031.026-.057.057-.057h7.713c.032 0 .057.026.057.057v27.915zM79.994 132.577h-7.713a4.75 4.75 0 00-4.744 4.744v7.533a4.75 4.75 0 004.744 4.744h7.713a4.75 4.75 0 004.744-4.744v-7.533a4.75 4.75 0 00-4.744-4.744zm.056 12.276a.057.057 0 01-.056.057H72.28a.056.056 0 01-.056-.057v-7.532c0-.031.025-.057.056-.057h7.714c.03 0 .056.026.056.057v7.532zM101.426 132.577h-7.713a4.75 4.75 0 00-4.744 4.744v7.533a4.75 4.75 0 004.744 4.744h7.713a4.75 4.75 0 004.744-4.744v-7.533a4.75 4.75 0 00-4.744-4.744zm.057 12.276a.057.057 0 01-.057.057h-7.714a.057.057 0 01-.056-.057v-7.532c0-.031.025-.057.056-.057h7.714c.031 0 .056.026.056.057v7.532h.001zM122.858 132.577h-7.713a4.75 4.75 0 00-4.744 4.744v7.533a4.75 4.75 0 004.744 4.744h7.713a4.75 4.75 0 004.745-4.744v-7.533a4.75 4.75 0 00-4.745-4.744zm.057 12.276a.057.057 0 01-.057.057h-7.713a.056.056 0 01-.057-.057v-7.532c0-.031.025-.057.057-.057h7.713c.031 0 .057.026.057.057v7.532z"/></g><defs><clipPath id="aclip0_1364_84"><path fill="#fff" d="M0 0h160v160H0z"/></clipPath></defs></svg><svg fill="none" viewBox="0 0 160 160" id="complexity" xmlns="http://www.w3.org/2000/svg"><g clip-path="url(#bclip0_1364_78)"><path d="M152 0h-16a8 8 0 00-8 8v5.333H93.333v-2.666a8 8 0 00-8-8H74.667a8 8 0 00-8 8v2.666H32V8a8 8 0 00-8-8H8a8 8 0 00-8 8v16a8 8 0 008 8h5.333v34.667h-2.666a8 8 0 00-8 8v10.666a8 8 0 008 8h2.666V128H8a8.001 8.001 0 00-8 8v16a8 8 0 008 8h16a8.001 8.001 0 008-8v-5.333h34.667v2.666a8 8 0 008 8h10.666a8.001 8.001 0 008-8v-2.666H128V152a8 8 0 008 8h16a8 8 0 008-8v-16a8 8 0 00-8-8h-5.333V93.333h2.666a8 8 0 008-8V74.667a8.001 8.001 0 00-8-8h-2.666V32H152a8 8 0 008-8V8a8.001 8.001 0 00-8-8zm-24 18.667V24a7.874 7.874 0 00.8 3.427l-8.04 8.04a7.87 7.87 0 00-3.427-.8h-10.666a8 8 0 00-8 8v10.666a7.87 7.87 0 00.8 3.427l-8.04 8.04A7.87 7.87 0 0088 64h-5.333V29.333h2.666a8 8 0 008-8v-2.666H128zm-24 34.666V42.667A2.667 2.667 0 01106.667 40h10.666A2.666 2.666 0 01120 42.667v10.666A2.667 2.667 0 01117.333 56h-10.666A2.666 2.666 0 01104 53.333zM72 90.667A2.667 2.667 0 0169.333 88V72A2.667 2.667 0 0172 69.333h16A2.667 2.667 0 0190.667 72v16A2.667 2.667 0 0188 90.667H72zm0-80A2.667 2.667 0 0174.667 8h10.666A2.667 2.667 0 0188 10.667v10.666A2.667 2.667 0 0185.333 24H74.667A2.667 2.667 0 0172 21.333V10.667zm-5.333 8v2.666a8 8 0 008 8h2.666V64H72a7.87 7.87 0 00-3.427.8l-8.04-8.04a7.87 7.87 0 00.8-3.427V42.667a8 8 0 00-8-8H42.667a7.87 7.87 0 00-3.427.8l-8.04-8.04A7.87 7.87 0 0032 24v-5.333h34.667zM40 42.667A2.666 2.666 0 0142.667 40h10.666A2.667 2.667 0 0156 42.667v10.666A2.667 2.667 0 0153.333 56H42.667A2.666 2.666 0 0140 53.333V42.667zM5.333 24V8A2.667 2.667 0 018 5.333h16A2.667 2.667 0 0126.667 8v16A2.667 2.667 0 0124 26.667H8A2.667 2.667 0 015.333 24zm13.334 8H24a7.87 7.87 0 003.427-.8l8.04 8.04a7.87 7.87 0 00-.8 3.427v10.666a8 8 0 008 8h10.666a7.87 7.87 0 003.427-.8l8.04 8.04A7.87 7.87 0 0064 72v5.333H29.333v-2.666a8 8 0 00-8-8h-2.666V32zM8 85.333V74.667A2.666 2.666 0 0110.667 72h10.666A2.667 2.667 0 0124 74.667v10.666A2.667 2.667 0 0121.333 88H10.667A2.667 2.667 0 018 85.333zm10.667 8h2.666a8 8 0 008-8v-2.666H64V88a7.87 7.87 0 00.8 3.427l-8.04 8.04a7.87 7.87 0 00-3.427-.8H42.667a8 8 0 00-8 8v10.666a7.87 7.87 0 00.8 3.427l-8.04 8.04A7.874 7.874 0 0024 128h-5.333V93.333zm21.333 24v-10.666A2.666 2.666 0 0142.667 104h10.666A2.667 2.667 0 0156 106.667v10.666A2.666 2.666 0 0153.333 120H42.667A2.667 2.667 0 0140 117.333zM26.667 152A2.668 2.668 0 0124 154.667H8A2.667 2.667 0 015.333 152v-16A2.668 2.668 0 018 133.333h16A2.667 2.667 0 0126.667 136v16zM32 141.333V136a7.873 7.873 0 00-.8-3.427l8.04-8.04a7.86 7.86 0 003.427.8h10.666a8.001 8.001 0 008-8v-10.666a7.87 7.87 0 00-.8-3.427l8.04-8.04A7.87 7.87 0 0072 96h5.333v34.667h-2.666a8.001 8.001 0 00-8 8v2.666H32zm56 8A2.666 2.666 0 0185.333 152H74.667A2.667 2.667 0 0172 149.333v-10.666A2.666 2.666 0 0174.667 136h10.666A2.667 2.667 0 0188 138.667v10.666zm5.333-8v-2.666a8 8 0 00-8-8h-2.666V96H88a7.87 7.87 0 003.427-.8l8.04 8.04a7.87 7.87 0 00-.8 3.427v10.666a7.999 7.999 0 008 8h10.666a7.86 7.86 0 003.427-.8l8.04 8.04A7.877 7.877 0 00128 136v5.333H93.333zm26.667-24a2.666 2.666 0 01-2.667 2.667h-10.666a2.666 2.666 0 01-2.667-2.667v-10.666a2.666 2.666 0 012.667-2.667h10.666a2.666 2.666 0 012.667 2.667v10.666zM154.667 136v16a2.668 2.668 0 01-2.667 2.667h-16a2.668 2.668 0 01-2.667-2.667v-16a2.668 2.668 0 012.667-2.667h16a2.668 2.668 0 012.667 2.667zm-13.334-8H136a7.877 7.877 0 00-3.427.8l-8.04-8.04a7.86 7.86 0 00.8-3.427v-10.666a8 8 0 00-8-8h-10.666a7.87 7.87 0 00-3.427.8l-8.04-8.04A7.87 7.87 0 0096 88v-5.333h34.667v2.666a8.001 8.001 0 008 8h2.666V128zM152 74.667v10.666A2.667 2.667 0 01149.333 88h-10.666A2.666 2.666 0 01136 85.333V74.667A2.667 2.667 0 01138.667 72h10.666A2.666 2.666 0 01152 74.667zm-10.667-8h-2.666a8 8 0 00-8 8v2.666H96V72a7.87 7.87 0 00-.8-3.427l8.04-8.04a7.87 7.87 0 003.427.8h10.666a8 8 0 008-8V42.667a7.86 7.86 0 00-.8-3.427l8.04-8.04A7.873 7.873 0 00136 32h5.333v34.667zM154.667 24A2.667 2.667 0 01152 26.667h-16A2.668 2.668 0 01133.333 24V8A2.667 2.667 0 01136 5.333h16A2.668 2.668 0 01154.667 8v16z" fill="#0749AA"/></g><defs><clipPath id="bclip0_1364_78"><path fill="#fff" d="M0 0h160v160H0z"/></clipPath></defs></svg><svg fill="none" viewBox="0 0 160 160" id="development" xmlns="http://www.w3.org/2000/svg"><path d="M157.5 90h-5V75.155c0-12.165-8.688-22.563-20.475-24.863l-.315-1.255c3.41-1.594 5.79-5.032 5.79-9.037h2.5c4.135 0 7.5-3.365 7.5-7.5 0-1.375-.397-2.648-1.045-3.755a19.832 19.832 0 001.045-6.31c0-10.992-8.943-19.935-19.935-19.935h-10.133c-10.907 0-19.787 8.81-19.922 19.688C92.997 17.75 86.817 15 80 15c-6.817 0-12.998 2.75-17.513 7.188C62.355 11.31 53.475 2.5 42.566 2.5H32.432C21.442 2.5 12.5 11.443 12.5 22.435c0 2.165.363 4.28 1.045 6.313-.647 1.107-1.045 2.38-1.045 3.752 0 4.135 3.365 7.5 7.5 7.5h2.5c0 4.005 2.38 7.443 5.788 9.038l-.316 1.255C16.188 52.592 7.5 62.99 7.5 75.156V90h-5v5H15v9.335l6.633 2.08a59.394 59.394 0 007.26 17.505l-3.223 6.172 16.737 16.738 6.173-3.225a59.33 59.33 0 0017.502 7.262l2.083 6.633h23.672l2.083-6.63a59.341 59.341 0 0017.503-7.263l6.172 3.226 16.738-16.738-3.223-6.172a59.352 59.352 0 007.26-17.505l6.63-2.083V95h12.5v-5zm-10-14.843V90h-37.507c-.05-8.153-4.005-15.487-10.168-20.112a17.385 17.385 0 005.048-10.336 20.08 20.08 0 013.344-2.25l2.32 23.198L122.5 68.535l11.962 11.963 2.326-23.25c6.42 3.462 10.712 10.247 10.712 17.91zm-77.445-4.614C70.342 75.8 74.672 80 80 80s9.657-4.2 9.945-9.457c8.698 2.342 14.978 10.244 15.048 19.457H55.008c.07-9.213 6.35-17.118 15.047-19.457zM75 67.805L75.703 65H84.3l.7 2.805V70c0 2.757-2.243 5-5 5s-5-2.243-5-5v-2.195zM85 60H75c-2.757 0-5-2.242-5-5V44.788a14.464 14.464 0 007.802-4.055L80 38.535l2.198 2.198A14.464 14.464 0 0090 44.788V55c0 2.758-2.243 5-5 5zm-5 40c-3.255 0-6.005-2.097-7.04-5h14.078c-1.033 2.903-3.783 5-7.038 5zm-12.248-5c.326 1.593.96 3.07 1.83 4.38l-12.47 12.47A29.842 29.842 0 0150.127 95h17.625zm5.366 7.917c1.312.87 2.79 1.505 4.382 1.83v17.626a29.854 29.854 0 01-16.852-6.988l12.47-12.468zm9.382 1.83a12.404 12.404 0 004.382-1.83l12.468 12.47a29.848 29.848 0 01-16.852 6.988v-17.628h.002zm20.387 7.103l-12.47-12.47a12.437 12.437 0 001.83-4.38h17.626a29.838 29.838 0 01-6.986 16.85zM45.127 95c1.29 18.132 16.418 32.5 34.873 32.5s33.583-14.368 34.873-32.5h10c-1.308 23.647-20.903 42.5-44.873 42.5S36.435 118.647 35.127 95h10zm81.671-45l.525 2.102-4.823 8.038-4.823-8.04.525-2.1h8.596zm4.464 5.252c.231.048.458.1.683.155l-1.41 14.096-4.89-4.89 5.617-9.36zm-17.499.043l5.59 9.317-4.89 4.89-1.408-14.062c.235-.057.473-.097.708-.145zm-.788-5.003c-2.84.55-5.51 1.628-7.975 3.083V40h2.5c0 4.005 2.38 7.443 5.787 9.038l-.312 1.255zM107.5 35H105c-.177 0-.35-.04-.52-.075a24.726 24.726 0 00-1.265-4.147A2.475 2.475 0 01105 30h2.5v5zm25 5c0 2.758-2.243 5-5 5h-10c-2.757 0-5-2.242-5-5V29.992a26.295 26.295 0 0010-2.232 26.342 26.342 0 0010 2.232V40zm7.5-5h-2.5v-5h2.5c1.378 0 2.5 1.12 2.5 2.5S141.378 35 140 35zM117.435 7.5h10.133c8.232 0 14.932 6.7 14.932 14.935 0 .995-.102 1.975-.295 2.935-.702-.22-1.432-.37-2.205-.37h-6.91c-3.27 0-6.545-.775-9.473-2.238l-1.117-.557-1.117.56A21.34 21.34 0 01111.91 25H105c-.765 0-1.51.117-2.217.335-.188-.95-.283-1.92-.283-2.9 0-8.235 6.7-14.935 14.935-14.935zM80 20c11.028 0 20 8.973 20 20v17.5c0 3.813-1.718 7.345-4.642 9.707a25.09 25.09 0 00-5.833-1.914l-.315-1.256C92.62 62.442 95 59.005 95 55V40h-2.5a9.51 9.51 0 01-6.767-2.803L80 31.465l-5.733 5.732A9.51 9.51 0 0167.5 40H65v15c0 4.005 2.38 7.443 5.787 9.037l-.315 1.255c-2.05.4-4 1.06-5.832 1.915A12.44 12.44 0 0160 57.5V40c0-11.027 8.972-20 20-20zM47.025 50.292l-.315-1.255c3.41-1.594 5.79-5.032 5.79-9.037H55v13.375c-2.465-1.455-5.135-2.532-7.975-3.083zM32.5 52.805L33.203 50H41.8l.7 2.805V55c0 2.758-2.242 5-5 5s-5-2.242-5-5v-2.195zM52.5 30H55c.69 0 1.322.297 1.785.775a24.726 24.726 0 00-1.265 4.148c-.17.037-.343.077-.52.077h-2.5v-5zM20 35c-1.378 0-2.5-1.12-2.5-2.5S18.622 30 20 30h2.5v5H20zm2.53-10H20c-.775 0-1.508.152-2.21.37-.192-.96-.29-1.943-.29-2.935C17.5 14.2 24.2 7.5 32.435 7.5h10.133C50.8 7.5 57.5 14.2 57.5 22.435c0 .983-.095 1.953-.285 2.902A7.429 7.429 0 0055 25h-6.59a17.695 17.695 0 01-12.59-5.215 7.743 7.743 0 00-5.518-2.285c-4.2 0-7.607 3.34-7.772 7.5zm4.97.302a2.806 2.806 0 014.785-1.982c4.093 4.093 9.465 6.438 15.215 6.663V40c0 2.758-2.242 5-5 5h-10c-2.758 0-5-2.242-5-5V25.302zm-15 49.856c0-9.28 6.308-17.26 15.055-19.616C27.843 60.8 32.172 65 37.5 65c5.33 0 9.657-4.2 9.945-9.46 2.825.755 5.42 2.13 7.682 4.013a17.379 17.379 0 005.045 10.335C54.008 74.511 50.055 81.847 50.005 90H12.5V75.157zM140 100.665l-5.898 1.85-.302 1.43a54.495 54.495 0 01-7.67 18.493l-.798 1.222 2.868 5.492-11.548 11.543-5.49-2.868-1.224.798a54.378 54.378 0 01-18.49 7.67l-1.43.303-1.853 5.902H71.837l-1.85-5.898-1.43-.302a54.45 54.45 0 01-18.49-7.67l-1.224-.797-5.49 2.867-11.548-11.543 2.867-5.492-.797-1.222a54.403 54.403 0 01-7.67-18.493l-.302-1.43L20 100.665V95h10.128c1.314 26.405 23.147 47.5 49.872 47.5s48.558-21.095 49.873-47.5H140v5.665z" fill="#0749AA"/></svg><svg fill="none" viewBox="0 0 160 160" id="pricing" xmlns="http://www.w3.org/2000/svg"><g clip-path="url(#dclip0_1364_7)" fill="#0749AA"><path d="M54.114 159.219a2.669 2.669 0 003.77 0l13.334-13.333-3.771-3.771-11.448 11.448-49.562-49.562 30.115-30.114-3.771-3.771-32 32a2.667 2.667 0 000 3.77l53.333 53.333zM159.982 55.709l-5.333-48a2.668 2.668 0 00-2.358-2.358L104.292.018a2.696 2.696 0 00-2.179.766L83.447 19.45l3.77 3.77 17.761-17.76 44.62 4.955 4.955 44.608-10.464 10.464-5.067-34.083a8.037 8.037 0 10-5.362.203l4.125 27.733-37.234-37.223a2.666 2.666 0 00-3.771 0L83.447 35.45l3.77 3.77 11.448-11.447 33.562 33.562-6.114 6.114 3.771 3.771 8-8c.151-.172.278-.363.378-.567l1.12 7.527-5.269 5.27 3.771 3.77 2.473-2.475 1.694 11.366a9.008 9.008 0 1017.763-2.921l-4.907-22.994 4.31-4.309a2.665 2.665 0 00.765-2.178zm-23.984-34.374a2.667 2.667 0 110 5.334 2.667 2.667 0 010-5.334zm18.595 64.938a3.678 3.678 0 01-4.986 4.106 3.675 3.675 0 01-2.273-2.991l-2.27-15.336 5.364-5.363 4.165 19.584z"/><path d="M19.45 103.716l17.332-17.332 3.771 3.77-17.332 17.333-3.77-3.771zM27.712 111.982L45.044 94.65l3.772 3.77-17.333 17.332-3.771-3.77zM35.98 120.247l10.133-10.133 3.772 3.771-10.134 10.133-3.771-3.771zM44.247 128.515l7.202-7.2 3.77 3.77-7.2 7.202-3.772-3.772zM52.514 136.782l5.333-5.332 3.77 3.771-5.331 5.332-3.772-3.771zM95.999 146.667a42.393 42.393 0 0025.226-8.336l19.231 19.232a8.324 8.324 0 0011.771-11.771l-19.677-19.677-.341.341c10.21-16.514 7.968-37.84-5.45-51.871-13.419-14.033-34.625-17.223-51.578-7.76-16.954 9.462-25.37 29.185-20.47 47.973 4.898 18.786 21.873 31.889 41.288 31.869zm52.457 2.896a2.99 2.99 0 11-4.229 4.229l-18.895-18.893a43.088 43.088 0 004.05-4.407l19.074 19.071zM95.999 66.668c20.618 0 37.333 16.715 37.333 37.333s-16.715 37.333-37.333 37.333-37.333-16.715-37.333-37.333c.022-20.61 16.724-37.31 37.333-37.333z"/><path d="M95.999 136.001c17.673 0 31.999-14.327 31.999-32 0-17.673-14.326-32-32-32-17.672 0-31.999 14.327-31.999 32 .02 17.665 14.335 31.98 32 32zm0-58.666c14.727 0 26.666 11.938 26.666 26.666s-11.939 26.666-26.666 26.666c-14.728 0-26.667-11.938-26.667-26.666C69.348 89.28 81.278 77.351 96 77.335z"/><path d="M98.665 114.668h-5.333a2.667 2.667 0 01-2.667-2.667h-5.333a8 8 0 008 8v5.333h5.333v-5.333a8 8 0 008-8v-2.667a8 8 0 00-8-8h-5.333a2.667 2.667 0 01-2.667-2.666V96a2.667 2.667 0 012.667-2.666h5.333A2.667 2.667 0 01101.332 96h5.333a8 8 0 00-8-8v-5.333h-5.333V88a8 8 0 00-8 8v2.667a8 8 0 008 8h5.333a2.667 2.667 0 012.667 2.666v2.667a2.667 2.667 0 01-2.667 2.667zM13.333 64.001h17.814l17.97 12.835a2.657 2.657 0 002.997.072 2.665 2.665 0 001.165-2.774l-2.026-10.133h15.413c7.36-.009 13.324-5.973 13.333-13.333V13.336C79.989 5.975 74.026.01 66.666.002H13.333C5.973.012.01 5.975 0 13.335v37.333c.01 7.36 5.973 13.324 13.333 13.333zm-8-50.666a8 8 0 018-8h53.333a8 8 0 018 8v37.333a8 8 0 01-8 8H47.999a2.668 2.668 0 00-2.613 3.2l1.333 6.722-13.178-9.413A2.647 2.647 0 0032 58.668H13.333a8 8 0 01-8-8V13.336z"/><path d="M13.333 53.335h56v-5.333H16V40.89l5.333-7.11 5.867 7.822a2.838 2.838 0 002.204 1.067 2.667 2.667 0 002.148-1.188l8.684-13.029 11.046 13.26c.509.605 1.259.955 2.05.956.084.006.167.006.252 0a2.666 2.666 0 002.08-1.36l13.332-24-4.66-2.586L52.89 35.32 42.05 22.305a2.62 2.62 0 00-2.195-.97 2.668 2.668 0 00-2.074 1.184l-8.576 12.87-5.74-7.654a2.762 2.762 0 00-4.265 0L16 32.002V13.335h-5.334v37.333a2.667 2.667 0 002.667 2.667z"/></g><defs><clipPath id="dclip0_1364_7"><path fill="#fff" d="M0 0h160v160H0z"/></clipPath></defs></svg><svg fill="none" viewBox="0 0 160 130" id="process" xmlns="http://www.w3.org/2000/svg"><path d="M117.156 99.403l-5.263 5.263-.976-.977a5.689 5.689 0 00-8.035 0 5.687 5.687 0 000 8.034c.909.909 1.67 1.68 2.316 2.336 3.359 3.406 4.261 4.322 6.695 4.322a5.647 5.647 0 004.018-1.664l9.279-9.28a5.686 5.686 0 000-8.033 5.688 5.688 0 00-8.034 0zm4.72 4.719c-10.467 10.467-9.298 9.557-10.244 9.557v.001c-.486-.185-2.446-2.283-5.435-5.272a.994.994 0 011.405-1.405l2.634 2.635c.916.914 2.4.915 3.315 0l6.92-6.92a.994.994 0 011.405 1.404zM50.987 129.016a2.343 2.343 0 100-4.688H38.513a2.343 2.343 0 100 4.688h12.474zM38.513 76.578a2.343 2.343 0 100 4.687h12.474a2.343 2.343 0 100-4.687H38.513zM109.013 76.578a2.343 2.343 0 100 4.687h12.474a2.343 2.343 0 100-4.687h-12.474zM50.987 35.515a2.343 2.343 0 100-4.687H38.513a2.343 2.343 0 100 4.687h12.474zM121.487 35.515a2.343 2.343 0 100-4.687h-12.474a2.343 2.343 0 100 4.687h12.474z" fill="#0749AA"/><path d="M150.696 11.373h-6.477v-4.37c0-3.38-2.751-6.13-6.131-6.13h-17.369a2.343 2.343 0 100 4.687h17.369c.796 0 1.443.648 1.443 1.444v13.425c0 .796-.647 1.444-1.443 1.444H92.413a1.445 1.445 0 01-1.444-1.444V7.004c0-.796.648-1.444 1.444-1.444h17.368a2.343 2.343 0 100-4.687H92.412c-3.38 0-6.13 2.75-6.13 6.13v4.37H73.719v-4.37c0-3.38-2.75-6.13-6.13-6.13H21.911a6.138 6.138 0 00-6.13 6.13V20.43c0 3.381 2.75 6.131 6.13 6.131h45.676c3.38 0 6.13-2.75 6.13-6.13v-4.37h12.563v4.37c0 3.38 2.75 6.13 6.131 6.13h45.675a6.138 6.138 0 006.131-6.13v-4.37h6.478a4.62 4.62 0 014.616 4.617v31.83a4.621 4.621 0 01-4.616 4.616h-6.477v-4.37c0-3.38-2.751-6.13-6.131-6.13H92.413c-3.381 0-6.131 2.75-6.131 6.13v4.37H73.719v-4.37c0-3.38-2.75-6.13-6.13-6.13H21.911a6.138 6.138 0 00-6.13 6.13v4.37H9.303C4.174 57.123 0 61.296 0 66.427v33.829c0 5.131 4.173 9.304 9.304 9.304h6.477v4.369c0 3.38 2.75 6.131 6.131 6.131h45.676a6.138 6.138 0 006.13-6.131v-4.369h18.535c1.173 10.983 10.494 19.567 21.784 19.567 9.684 0 18.335-6.492 21.036-15.788a2.343 2.343 0 10-4.501-1.308c-2.123 7.306-8.923 12.408-16.535 12.408-9.497 0-17.224-7.726-17.224-17.223 0-9.496 7.727-17.223 17.224-17.223 7.612 0 14.412 5.103 16.535 12.409a2.344 2.344 0 004.501-1.309c-2.701-9.295-11.352-15.787-21.036-15.787-11.29 0-20.61 8.583-21.784 19.567H73.719v-4.369c0-3.38-2.75-6.131-6.131-6.131H21.912a6.138 6.138 0 00-6.13 6.131v4.369H9.303a4.622 4.622 0 01-4.617-4.617v-33.83a4.621 4.621 0 014.617-4.616h6.477v4.37c0 3.38 2.75 6.13 6.131 6.13h45.676c3.38 0 6.13-2.75 6.13-6.13v-4.37h12.563v4.37c0 3.38 2.75 6.13 6.131 6.13h45.675a6.138 6.138 0 006.131-6.13v-4.37h6.478c5.13 0 9.304-4.173 9.304-9.303v-31.83c0-5.13-4.173-9.304-9.304-9.304zM69.031 20.43c0 .796-.647 1.444-1.443 1.444H21.912a1.445 1.445 0 01-1.443-1.444V7.004c0-.796.647-1.444 1.443-1.444h45.676c.796 0 1.443.648 1.443 1.444v13.425zM20.47 100.504c0-.796.647-1.444 1.443-1.444h45.676c.796 0 1.443.648 1.443 1.444v13.425c0 .796-.647 1.444-1.443 1.444H21.912a1.445 1.445 0 01-1.443-1.444v-13.425zM69.03 66.179c0 .796-.647 1.444-1.443 1.444H21.912a1.445 1.445 0 01-1.443-1.444v-6.707-.005-6.713c0-.796.647-1.443 1.443-1.443h45.676c.796 0 1.443.647 1.443 1.443V66.18zm70.5 0c0 .796-.647 1.444-1.443 1.444H92.413a1.445 1.445 0 01-1.444-1.444V52.754c0-.796.648-1.444 1.444-1.444h45.675c.796 0 1.443.648 1.443 1.444v13.425z" fill="#0749AA"/></svg></svg>