<svg width="62" height="62" viewBox="0 0 62 62">
<path d="M59.5988 31C59.5988 15.2054 46.7947 2.40134 31.0001 2.40134C15.2054 2.40134 2.40137 15.2054 2.40137 31C2.40137 46.7947 15.2054 59.5988 31.0001 59.5988C46.7947 59.5988 59.5988 46.7947 59.5988 31Z" fill="currentColor"/>
<path d="M62 31C62 48.092 48.0944 62 31 62C13.908 62 0 48.092 0 31C0 13.9056 13.908 0 31 0C48.0944 0 62 13.9056 62 31ZM4.80246 31C4.80246 45.4459 16.5541 57.1975 31 57.1975C45.4459 57.1975 57.1975 45.4459 57.1975 31C57.1975 16.5541 45.4435 4.80246 31 4.80246C16.5541 4.80246 4.80246 16.5541 4.80246 31Z" fill="var(--border-color)"/>
<path d="M23.6989 44.5304C22.7672 43.5939 22.7672 42.0811 23.6989 41.1446L34.0002 30.8433L23.6989 20.542C22.8369 19.5358 22.9546 18.0183 23.9606 17.1562C24.8586 16.3854 26.1866 16.3854 27.0846 17.1562L39.0908 29.1624C40.0225 30.0989 40.0225 31.6116 39.0908 32.5482L27.0846 44.5544C26.1409 45.4789 24.6282 45.4692 23.6989 44.5304Z" fill="inherit"/>
</svg>
