в<svg width="17" height="14" viewBox="0 0 17 14">
<g clip-path="url(#clip0)">
<path d="M11.3497 8.23642L9.14557 6.77244V3.79027C9.14557 3.49042 8.87188 3.24805 8.5333 3.24805C8.19472 3.24805 7.92104 3.49042 7.92104 3.79027V7.04358C7.92104 7.21437 8.01166 7.37542 8.16594 7.47736L10.6149 9.10401C10.7251 9.17721 10.8537 9.21246 10.9817 9.21246C11.1684 9.21246 11.3521 9.13816 11.4721 8.99502C11.6754 8.75587 11.6203 8.41591 11.3497 8.23642Z" fill="inherit"/>
<path d="M8.53333 0C4.17471 0 0.629166 3.13996 0.629166 7C0.629166 10.86 4.17471 14 8.53333 14C12.892 14 16.4375 10.86 16.4375 7C16.4375 3.13996 12.892 0 8.53333 0ZM8.53333 12.9156C4.85064 12.9156 1.85366 10.2614 1.85366 7C1.85366 3.73857 4.85064 1.08443 8.53333 1.08443C12.2166 1.08443 15.213 3.73857 15.213 7C15.213 10.2614 12.216 12.9156 8.53333 12.9156Z" fill="inherit"/>
</g>
<defs>
<clipPath id="clip0">
<rect width="15.8083" height="14" fill="white" transform="translate(0.629166)"/>
</clipPath>
</defs>
</svg>
