<svg width="31" height="31" viewBox="0 0 31 31">
<g clip-path="url(#clip0)">
<path d="M15.5 0C6.95351 0 0 6.95357 0 15.5C0 24.0464 6.95351 31 15.5 31C19.64 31 23.5834 29.3306 26.5109 26.4024C26.9975 25.9158 26.9426 25.0993 26.4492 24.615L24.0029 22.2048C24.5303 21.4822 24.5997 20.6033 24.1646 19.7683C23.5707 18.6282 22.6886 17.7158 21.5446 17.0576C21.1033 16.8027 20.6862 16.6781 20.2709 16.6785C20.1092 16.6785 19.9461 16.6983 19.7874 16.7358C19.2595 16.8645 18.7518 17.1118 18.236 17.4912C18.0744 17.6124 17.8748 17.6728 17.6452 17.6728C17.3651 17.6728 17.0621 17.5765 16.8543 17.4223C15.3475 16.2991 14.0697 15.0203 12.9464 13.5144C12.7265 13.2181 12.5507 12.5735 12.8765 12.1312C13.2576 11.6159 13.5038 11.1093 13.6319 10.5803C13.7698 10.0104 13.6644 9.43577 13.3112 8.82529C12.6526 7.67915 11.74 6.79813 10.6 6.20372C10.2307 6.01128 9.85268 5.91282 9.47574 5.91282C8.84748 5.91282 8.25875 6.18701 7.77433 6.70282C7.32906 7.17702 6.93529 7.67921 6.48138 8.28667C6.06542 8.84301 6.0999 9.48551 6.12928 10.0519L6.13028 10.0636C6.18153 10.7831 6.45005 11.6333 6.95155 12.6628C7.79923 14.4067 9.00311 16.0626 10.6321 17.7245C10.9669 18.0664 12.301 19.401 12.6436 19.7359C14.3064 21.3652 15.9622 22.5692 17.7052 23.4169C18.7352 23.918 19.5854 24.1865 20.3044 24.2381L20.3165 24.2387C20.4645 24.2457 20.6226 24.2537 20.7766 24.2537C21.144 24.2537 21.6147 24.2092 22.0392 23.9123L23.6489 25.4983C21.3521 27.3769 18.5068 28.406 15.5002 28.406C8.38399 28.406 2.59434 22.6163 2.59434 15.5001C2.59434 8.38393 8.38406 2.59422 15.5002 2.59422C22.6163 2.59422 28.4061 8.38393 28.4061 15.5001C28.4061 16.2165 28.9868 16.7972 29.7031 16.7972C30.4196 16.7972 31.0002 16.2165 31.0002 15.5001C31 6.95357 24.0464 0 15.5 0Z" fill="inherit"/>
</g>
<defs>
<clipPath id="clip0">
<rect width="31" height="31" fill="white"/>
</clipPath>
</defs>
</svg>
