<svg width="36" height="36" viewBox="0 0 36 36">
<g clip-path="url(#clip0)">
<path d="M32.3421 13.1851H32.2849C31.1711 13.1851 30.2684 14.1922 30.2684 15.4271V17.1118C30.2684 17.4277 30.0161 17.6842 29.7052 17.6842C29.3941 17.6842 29.142 17.4277 29.142 17.1118V14.0009C29.142 12.7663 28.2472 11.761 27.1334 11.761C26.0135 11.761 25.1191 12.766 25.1191 14.0009V17.2983C25.1191 17.6143 24.8667 17.8708 24.5559 17.8708C24.2447 17.8708 23.9926 17.6143 23.9926 17.2983V13.0959C23.9926 11.861 23.0604 10.8954 21.9466 10.8954H21.8856C20.7994 10.8954 19.8892 11.8112 19.8892 13.0043V17.7366C19.8892 18.0528 19.6369 18.309 19.326 18.309C19.0149 18.309 18.7628 18.0528 18.7628 17.7366V13.1391C18.7628 13.1244 18.7609 13.1097 18.7609 13.095C18.7609 13.0579 18.7628 13.0212 18.7628 12.9848V2.23983C18.7628 1.00492 17.8454 0 16.7322 0C15.6186 0 14.7015 1.00396 14.7009 2.23824L14.6886 20.0544C14.6883 20.2962 14.5387 20.5118 14.3149 20.5929C14.0912 20.6744 13.841 20.6041 13.6901 20.4172L11.5969 17.8276C11.0391 17.1172 10.2156 16.6745 9.32365 16.6052C8.45023 16.5461 7.59221 16.8588 6.95419 17.468C6.94728 17.4743 6.94005 17.4798 6.93282 17.4858L6.5013 17.8471L13.7706 32.0361C14.9225 34.2852 17.1005 35.6728 19.4546 35.6728H27.8434C31.4326 35.6728 34.3558 32.4852 34.3593 28.5553C34.3612 26.4976 34.3634 24.9716 34.3649 23.7246C34.369 20.3693 34.3706 19.1127 34.3621 15.4195C34.3593 14.1881 33.4532 13.1851 32.3421 13.1851Z" fill="#0749AA"/>
<path d="M22.2225 5.17043H30.7591L29.1257 6.8305C28.906 7.0541 28.906 7.41634 29.1257 7.63994C29.3457 7.86354 29.7024 7.86354 29.9224 7.63994L32.5075 5.01296C32.7272 4.78936 32.7272 4.4268 32.5075 4.2032L29.9224 1.5759C29.7024 1.3523 29.3457 1.3523 29.1257 1.5759C28.906 1.7995 28.906 2.16174 29.1257 2.38534L30.7396 4.0256H22.2225C21.9114 4.0256 21.6593 4.28178 21.6593 4.59802C21.6593 4.91425 21.9114 5.17043 22.2225 5.17043Z" fill="#0749AA"/>
<path d="M2.65745 5.17051H11.1198C11.4306 5.17051 11.683 4.91433 11.683 4.5981C11.683 4.28186 11.4306 4.02568 11.1198 4.02568H2.67631L4.2902 2.38542C4.51021 2.16182 4.51021 1.79926 4.2902 1.57566C4.0702 1.35238 3.71379 1.35238 3.49378 1.57566L0.908725 4.20296C0.68872 4.42656 0.68872 4.78912 0.908725 5.01272L3.49378 7.64002C3.71379 7.86362 4.0702 7.86362 4.2902 7.64002C4.51021 7.41642 4.51021 7.05418 4.2902 6.83058L2.65745 5.17051Z" fill="#0749AA"/>
</g>
<defs>
<clipPath id="clip0">
<rect width="35.0993" height="35.6728" fill="white"/>
</clipPath>
</defs>
</svg>
