<svg width="22" height="22" viewBox="0 0 22 22">
<path d="M7.41675 11.1127L1.00136e-05 15.8015V6.226L7.41675 11.1127Z" fill="inherit"/>
<path d="M22 6.226V15.8015L14.5833 11.1127L22 6.226Z" fill="inherit"/>
<path d="M1.37499 3.4375H20.625C21.3111 3.4375 21.8556 3.949 21.9587 4.60763L11 11.8278L0.0412369 4.60763C0.144363 3.949 0.688864 3.4375 1.37499 3.4375Z" fill="inherit"/>
<path d="M8.67624 11.9433L10.6219 13.2248C10.7374 13.3004 10.868 13.3375 11 13.3375C11.132 13.3375 11.2626 13.3004 11.3781 13.2248L13.3237 11.9419L21.956 17.402C21.8501 18.0551 21.3084 18.5625 20.625 18.5625H1.37499C0.691618 18.5625 0.149868 18.0551 0.043993 17.402L8.67624 11.9433Z" fill="inherit"/>
</svg>
