<svg width="13" height="10" viewBox="0 0 13 10">
<g clip-path="url(#clip0)">
<path d="M11.6923 4.60938H1.28276C1.03915 4.60938 0.841675 4.78426 0.841675 5C0.841675 5.21574 1.03915 5.39062 1.28276 5.39062H11.6923C11.9359 5.39062 12.1333 5.21574 12.1333 5C12.1333 4.78426 11.9359 4.60938 11.6923 4.60938Z" fill="inherit"/>
<path d="M11.6923 1.48438H1.28276C1.03915 1.48438 0.841675 1.65926 0.841675 1.875C0.841675 2.09074 1.03915 2.26562 1.28276 2.26562H11.6923C11.9359 2.26562 12.1333 2.09074 12.1333 1.875C12.1333 1.65926 11.9359 1.48438 11.6923 1.48438Z" fill="inherit"/>
<path d="M11.6923 7.73438H1.28276C1.03915 7.73438 0.841675 7.90926 0.841675 8.125C0.841675 8.34074 1.03915 8.51562 1.28276 8.51562H11.6923C11.9359 8.51562 12.1333 8.34074 12.1333 8.125C12.1333 7.90926 11.9359 7.73438 11.6923 7.73438Z" fill="inherit"/>
</g>
<defs>
<clipPath id="clip0">
<rect width="11.2917" height="10" fill="white" transform="translate(0.841675)"/>
</clipPath>
</defs>
</svg>
