<svg width="18" height="18" viewBox="0 0 18 18">
<path d="M17.1109 6.52587C17.1057 6.53155 17.1002 6.53709 17.0946 6.5425L7.23063 16.0271C6.38681 16.8385 5.38602 17.2626 4.323 17.2626C4.24224 17.2626 4.16117 17.2602 4.07975 17.2552C3.06423 17.194 2.07901 16.7508 1.30561 16.0071C0.532204 15.2635 0.0712357 14.3162 0.00753263 13.3397C-0.0648189 12.2306 0.376849 11.183 1.28476 10.31L11.1164 0.856585C11.2812 0.698179 11.5483 0.698213 11.713 0.856585C11.8778 1.01502 11.8778 1.27187 11.713 1.43027L1.8814 10.8837C0.263048 12.4398 0.757767 14.333 1.90224 15.4335C3.04675 16.5339 5.01565 17.0096 6.63399 15.4535L16.4893 5.97716C17.5718 4.80358 17.2056 3.45984 16.3604 2.64722C15.5153 1.83457 14.1178 1.48243 12.8973 2.52329L6.60042 8.57791C5.76873 9.37761 6.00709 10.3227 6.61223 10.9046C7.21741 11.4865 8.20034 11.7156 9.03203 10.9159L14.4815 5.67603C14.6463 5.51759 14.9134 5.51759 15.0782 5.67603C15.2429 5.83447 15.2429 6.09128 15.0782 6.24972L9.62867 11.4896C8.44654 12.6263 6.9163 12.3443 6.01563 11.4783C5.11496 10.6123 4.82172 9.14088 6.00378 8.00425L12.3093 1.94129C12.3149 1.93592 12.3207 1.93068 12.3266 1.9256C13.056 1.29915 13.914 1.00732 14.8075 1.08196C15.5971 1.14781 16.3605 1.49994 16.957 2.07353C17.5536 2.64709 17.9198 3.38111 17.9883 4.14035C18.0659 4.99961 17.7625 5.82453 17.1109 6.52587Z" fill="inherit"/>
</svg>
